G04 #@! TF.GenerationSoftware,KiCad,Pcbnew,(5.1.5)-3*
G04 #@! TF.CreationDate,2020-02-27T12:36:48+00:00*
G04 #@! TF.ProjectId,midi fader alps 100mm,6d696469-2066-4616-9465-7220616c7073,rev?*
G04 #@! TF.SameCoordinates,Original*
G04 #@! TF.FileFunction,Copper,L2,Bot*
G04 #@! TF.FilePolarity,Positive*
%FSLAX46Y46*%
G04 Gerber Fmt 4.6, Leading zero omitted, Abs format (unit mm)*
G04 Created by KiCad (PCBNEW (5.1.5)-3) date 2020-02-27 12:36:48*
%MOMM*%
%LPD*%
G04 APERTURE LIST*
%ADD10C,0.300000*%
%ADD11C,0.254000*%
G04 APERTURE END LIST*
D10*
X231483333Y-52595238D02*
X231483333Y-53547619D01*
X232054761Y-52404761D02*
X230054761Y-53071428D01*
X232054761Y-53738095D01*
X232054761Y-55357142D02*
X232054761Y-54404761D01*
X230054761Y-54404761D01*
X232054761Y-56976190D02*
X232054761Y-56023809D01*
X230054761Y-56023809D01*
X231007142Y-57642857D02*
X231007142Y-58309523D01*
X232054761Y-58595238D02*
X232054761Y-57642857D01*
X230054761Y-57642857D01*
X230054761Y-58595238D01*
X231959523Y-59357142D02*
X232054761Y-59642857D01*
X232054761Y-60119047D01*
X231959523Y-60309523D01*
X231864285Y-60404761D01*
X231673809Y-60500000D01*
X231483333Y-60500000D01*
X231292857Y-60404761D01*
X231197619Y-60309523D01*
X231102380Y-60119047D01*
X231007142Y-59738095D01*
X230911904Y-59547619D01*
X230816666Y-59452380D01*
X230626190Y-59357142D01*
X230435714Y-59357142D01*
X230245238Y-59452380D01*
X230150000Y-59547619D01*
X230054761Y-59738095D01*
X230054761Y-60214285D01*
X230150000Y-60500000D01*
X230054761Y-62595238D02*
X230054761Y-63738095D01*
X232054761Y-63166666D02*
X230054761Y-63166666D01*
X230054761Y-64404761D02*
X231673809Y-64404761D01*
X231864285Y-64500000D01*
X231959523Y-64595238D01*
X232054761Y-64785714D01*
X232054761Y-65166666D01*
X231959523Y-65357142D01*
X231864285Y-65452380D01*
X231673809Y-65547619D01*
X230054761Y-65547619D01*
X232054761Y-67642857D02*
X231102380Y-66976190D01*
X232054761Y-66500000D02*
X230054761Y-66500000D01*
X230054761Y-67261904D01*
X230150000Y-67452380D01*
X230245238Y-67547619D01*
X230435714Y-67642857D01*
X230721428Y-67642857D01*
X230911904Y-67547619D01*
X231007142Y-67452380D01*
X231102380Y-67261904D01*
X231102380Y-66500000D01*
X232054761Y-68500000D02*
X230054761Y-68500000D01*
X231959523Y-69357142D02*
X232054761Y-69642857D01*
X232054761Y-70119047D01*
X231959523Y-70309523D01*
X231864285Y-70404761D01*
X231673809Y-70500000D01*
X231483333Y-70500000D01*
X231292857Y-70404761D01*
X231197619Y-70309523D01*
X231102380Y-70119047D01*
X231007142Y-69738095D01*
X230911904Y-69547619D01*
X230816666Y-69452380D01*
X230626190Y-69357142D01*
X230435714Y-69357142D01*
X230245238Y-69452380D01*
X230150000Y-69547619D01*
X230054761Y-69738095D01*
X230054761Y-70214285D01*
X230150000Y-70500000D01*
X230054761Y-71071428D02*
X230054761Y-72214285D01*
X232054761Y-71642857D02*
X230054761Y-71642857D01*
X231007142Y-72880952D02*
X231007142Y-73547619D01*
X232054761Y-73833333D02*
X232054761Y-72880952D01*
X230054761Y-72880952D01*
X230054761Y-73833333D01*
X232054761Y-74690476D02*
X230054761Y-74690476D01*
X232054761Y-75833333D01*
X230054761Y-75833333D01*
X230054761Y-78309523D02*
X231673809Y-78309523D01*
X231864285Y-78404761D01*
X231959523Y-78500000D01*
X232054761Y-78690476D01*
X232054761Y-79071428D01*
X231959523Y-79261904D01*
X231864285Y-79357142D01*
X231673809Y-79452380D01*
X230054761Y-79452380D01*
X232054761Y-80404761D02*
X230054761Y-80404761D01*
X232054761Y-81547619D01*
X230054761Y-81547619D01*
X232054761Y-82500000D02*
X230054761Y-82500000D01*
X230054761Y-82976190D01*
X230150000Y-83261904D01*
X230340476Y-83452380D01*
X230530952Y-83547619D01*
X230911904Y-83642857D01*
X231197619Y-83642857D01*
X231578571Y-83547619D01*
X231769047Y-83452380D01*
X231959523Y-83261904D01*
X232054761Y-82976190D01*
X232054761Y-82500000D01*
X232054761Y-86023809D02*
X230054761Y-86023809D01*
X232054761Y-87166666D01*
X230054761Y-87166666D01*
X230054761Y-88500000D02*
X230054761Y-88880952D01*
X230150000Y-89071428D01*
X230340476Y-89261904D01*
X230721428Y-89357142D01*
X231388095Y-89357142D01*
X231769047Y-89261904D01*
X231959523Y-89071428D01*
X232054761Y-88880952D01*
X232054761Y-88500000D01*
X231959523Y-88309523D01*
X231769047Y-88119047D01*
X231388095Y-88023809D01*
X230721428Y-88023809D01*
X230340476Y-88119047D01*
X230150000Y-88309523D01*
X230054761Y-88500000D01*
X232054761Y-90214285D02*
X230054761Y-90214285D01*
X232054761Y-91357142D01*
X230054761Y-91357142D01*
X230054761Y-92023809D02*
X230054761Y-93166666D01*
X232054761Y-92595238D02*
X230054761Y-92595238D01*
X231007142Y-93833333D02*
X231007142Y-94500000D01*
X232054761Y-94785714D02*
X232054761Y-93833333D01*
X230054761Y-93833333D01*
X230054761Y-94785714D01*
X232054761Y-95642857D02*
X230054761Y-95642857D01*
X232054761Y-96785714D02*
X230911904Y-95928571D01*
X230054761Y-96785714D02*
X231197619Y-95642857D01*
X232054761Y-97642857D02*
X230054761Y-97642857D01*
X232054761Y-98785714D01*
X230054761Y-98785714D01*
X232054761Y-99738095D02*
X230054761Y-99738095D01*
X231959523Y-100595238D02*
X232054761Y-100880952D01*
X232054761Y-101357142D01*
X231959523Y-101547619D01*
X231864285Y-101642857D01*
X231673809Y-101738095D01*
X231483333Y-101738095D01*
X231292857Y-101642857D01*
X231197619Y-101547619D01*
X231102380Y-101357142D01*
X231007142Y-100976190D01*
X230911904Y-100785714D01*
X230816666Y-100690476D01*
X230626190Y-100595238D01*
X230435714Y-100595238D01*
X230245238Y-100690476D01*
X230150000Y-100785714D01*
X230054761Y-100976190D01*
X230054761Y-101452380D01*
X230150000Y-101738095D01*
X231864285Y-103738095D02*
X231959523Y-103642857D01*
X232054761Y-103357142D01*
X232054761Y-103166666D01*
X231959523Y-102880952D01*
X231769047Y-102690476D01*
X231578571Y-102595238D01*
X231197619Y-102500000D01*
X230911904Y-102500000D01*
X230530952Y-102595238D01*
X230340476Y-102690476D01*
X230150000Y-102880952D01*
X230054761Y-103166666D01*
X230054761Y-103357142D01*
X230150000Y-103642857D01*
X230245238Y-103738095D01*
X232054761Y-104595238D02*
X230054761Y-104595238D01*
X231007142Y-104595238D02*
X231007142Y-105738095D01*
X232054761Y-105738095D02*
X230054761Y-105738095D01*
X231007142Y-106690476D02*
X231007142Y-107357142D01*
X232054761Y-107642857D02*
X232054761Y-106690476D01*
X230054761Y-106690476D01*
X230054761Y-107642857D01*
X232054761Y-108499999D02*
X230054761Y-108499999D01*
X232054761Y-109642857D01*
X230054761Y-109642857D01*
X232054761Y-113071428D02*
X232054761Y-112119047D01*
X230054761Y-112119047D01*
X230054761Y-114119047D02*
X230054761Y-114499999D01*
X230150000Y-114690476D01*
X230340476Y-114880952D01*
X230721428Y-114976190D01*
X231388095Y-114976190D01*
X231769047Y-114880952D01*
X231959523Y-114690476D01*
X232054761Y-114499999D01*
X232054761Y-114119047D01*
X231959523Y-113928571D01*
X231769047Y-113738095D01*
X231388095Y-113642857D01*
X230721428Y-113642857D01*
X230340476Y-113738095D01*
X230150000Y-113928571D01*
X230054761Y-114119047D01*
X230054761Y-116214285D02*
X230054761Y-116595238D01*
X230150000Y-116785714D01*
X230340476Y-116976190D01*
X230721428Y-117071428D01*
X231388095Y-117071428D01*
X231769047Y-116976190D01*
X231959523Y-116785714D01*
X232054761Y-116595238D01*
X232054761Y-116214285D01*
X231959523Y-116023809D01*
X231769047Y-115833333D01*
X231388095Y-115738095D01*
X230721428Y-115738095D01*
X230340476Y-115833333D01*
X230150000Y-116023809D01*
X230054761Y-116214285D01*
X232054761Y-117928571D02*
X230054761Y-117928571D01*
X232054761Y-119071428D02*
X230911904Y-118214285D01*
X230054761Y-119071428D02*
X231197619Y-117928571D01*
X231007142Y-119928571D02*
X231007142Y-120595238D01*
X232054761Y-120880952D02*
X232054761Y-119928571D01*
X230054761Y-119928571D01*
X230054761Y-120880952D01*
X232054761Y-121738095D02*
X230054761Y-121738095D01*
X232054761Y-122880952D01*
X230054761Y-122880952D01*
X231959523Y-123738095D02*
X232054761Y-124023809D01*
X232054761Y-124499999D01*
X231959523Y-124690476D01*
X231864285Y-124785714D01*
X231673809Y-124880952D01*
X231483333Y-124880952D01*
X231292857Y-124785714D01*
X231197619Y-124690476D01*
X231102380Y-124499999D01*
X231007142Y-124119047D01*
X230911904Y-123928571D01*
X230816666Y-123833333D01*
X230626190Y-123738095D01*
X230435714Y-123738095D01*
X230245238Y-123833333D01*
X230150000Y-123928571D01*
X230054761Y-124119047D01*
X230054761Y-124595238D01*
X230150000Y-124880952D01*
X232054761Y-125738095D02*
X230054761Y-125738095D01*
X230054761Y-126499999D01*
X230150000Y-126690476D01*
X230245238Y-126785714D01*
X230435714Y-126880952D01*
X230721428Y-126880952D01*
X230911904Y-126785714D01*
X231007142Y-126690476D01*
X231102380Y-126499999D01*
X231102380Y-125738095D01*
X231007142Y-127738095D02*
X231007142Y-128404761D01*
X232054761Y-128690476D02*
X232054761Y-127738095D01*
X230054761Y-127738095D01*
X230054761Y-128690476D01*
X231007142Y-129547619D02*
X231007142Y-130214285D01*
X232054761Y-130499999D02*
X232054761Y-129547619D01*
X230054761Y-129547619D01*
X230054761Y-130499999D01*
X232054761Y-131357142D02*
X230054761Y-131357142D01*
X230054761Y-132119047D01*
X230150000Y-132309523D01*
X230245238Y-132404761D01*
X230435714Y-132499999D01*
X230721428Y-132499999D01*
X230911904Y-132404761D01*
X231007142Y-132309523D01*
X231102380Y-132119047D01*
X231102380Y-131357142D01*
X231007142Y-133357142D02*
X231007142Y-134023809D01*
X232054761Y-134309523D02*
X232054761Y-133357142D01*
X230054761Y-133357142D01*
X230054761Y-134309523D01*
X232054761Y-136309523D02*
X231102380Y-135642857D01*
X232054761Y-135166666D02*
X230054761Y-135166666D01*
X230054761Y-135928571D01*
X230150000Y-136119047D01*
X230245238Y-136214285D01*
X230435714Y-136309523D01*
X230721428Y-136309523D01*
X230911904Y-136214285D01*
X231007142Y-136119047D01*
X231102380Y-135928571D01*
X231102380Y-135166666D01*
X231959523Y-137071428D02*
X232054761Y-137357142D01*
X232054761Y-137833333D01*
X231959523Y-138023809D01*
X231864285Y-138119047D01*
X231673809Y-138214285D01*
X231483333Y-138214285D01*
X231292857Y-138119047D01*
X231197619Y-138023809D01*
X231102380Y-137833333D01*
X231007142Y-137452380D01*
X230911904Y-137261904D01*
X230816666Y-137166666D01*
X230626190Y-137071428D01*
X230435714Y-137071428D01*
X230245238Y-137166666D01*
X230150000Y-137261904D01*
X230054761Y-137452380D01*
X230054761Y-137928571D01*
X230150000Y-138214285D01*
X231864285Y-139071428D02*
X231959523Y-139166666D01*
X232054761Y-139071428D01*
X231959523Y-138976190D01*
X231864285Y-139071428D01*
X232054761Y-139071428D01*
X231292857Y-139071428D02*
X230150000Y-138976190D01*
X230054761Y-139071428D01*
X230150000Y-139166666D01*
X231292857Y-139071428D01*
X230054761Y-139071428D01*
X232054761Y-141547619D02*
X230054761Y-141547619D01*
X230054761Y-142023809D01*
X230150000Y-142309523D01*
X230340476Y-142499999D01*
X230530952Y-142595238D01*
X230911904Y-142690476D01*
X231197619Y-142690476D01*
X231578571Y-142595238D01*
X231769047Y-142499999D01*
X231959523Y-142309523D01*
X232054761Y-142023809D01*
X232054761Y-141547619D01*
X231483333Y-143452380D02*
X231483333Y-144404761D01*
X232054761Y-143261904D02*
X230054761Y-143928571D01*
X232054761Y-144595238D01*
X231959523Y-145166666D02*
X232054761Y-145452380D01*
X232054761Y-145928571D01*
X231959523Y-146119047D01*
X231864285Y-146214285D01*
X231673809Y-146309523D01*
X231483333Y-146309523D01*
X231292857Y-146214285D01*
X231197619Y-146119047D01*
X231102380Y-145928571D01*
X231007142Y-145547619D01*
X230911904Y-145357142D01*
X230816666Y-145261904D01*
X230626190Y-145166666D01*
X230435714Y-145166666D01*
X230245238Y-145261904D01*
X230150000Y-145357142D01*
X230054761Y-145547619D01*
X230054761Y-146023809D01*
X230150000Y-146309523D01*
X232054761Y-148690476D02*
X230054761Y-148690476D01*
X232054761Y-149833333D02*
X230911904Y-148976190D01*
X230054761Y-149833333D02*
X231197619Y-148690476D01*
X230054761Y-151071428D02*
X230054761Y-151452380D01*
X230150000Y-151642857D01*
X230340476Y-151833333D01*
X230721428Y-151928571D01*
X231388095Y-151928571D01*
X231769047Y-151833333D01*
X231959523Y-151642857D01*
X232054761Y-151452380D01*
X232054761Y-151071428D01*
X231959523Y-150880952D01*
X231769047Y-150690476D01*
X231388095Y-150595238D01*
X230721428Y-150595238D01*
X230340476Y-150690476D01*
X230150000Y-150880952D01*
X230054761Y-151071428D01*
X232054761Y-152785714D02*
X230054761Y-152785714D01*
X231483333Y-153452380D01*
X230054761Y-154119047D01*
X232054761Y-154119047D01*
X232054761Y-155071428D02*
X230054761Y-155071428D01*
X230054761Y-155833333D01*
X230150000Y-156023809D01*
X230245238Y-156119047D01*
X230435714Y-156214285D01*
X230721428Y-156214285D01*
X230911904Y-156119047D01*
X231007142Y-156023809D01*
X231102380Y-155833333D01*
X231102380Y-155071428D01*
X230054761Y-157071428D02*
X231673809Y-157071428D01*
X231864285Y-157166666D01*
X231959523Y-157261904D01*
X232054761Y-157452380D01*
X232054761Y-157833333D01*
X231959523Y-158023809D01*
X231864285Y-158119047D01*
X231673809Y-158214285D01*
X230054761Y-158214285D01*
X230054761Y-158880952D02*
X230054761Y-160023809D01*
X232054761Y-159452380D02*
X230054761Y-159452380D01*
X231007142Y-160690476D02*
X231007142Y-161357142D01*
X232054761Y-161642857D02*
X232054761Y-160690476D01*
X230054761Y-160690476D01*
X230054761Y-161642857D01*
X232054761Y-163642857D02*
X231102380Y-162976190D01*
X232054761Y-162499999D02*
X230054761Y-162499999D01*
X230054761Y-163261904D01*
X230150000Y-163452380D01*
X230245238Y-163547619D01*
X230435714Y-163642857D01*
X230721428Y-163642857D01*
X230911904Y-163547619D01*
X231007142Y-163452380D01*
X231102380Y-163261904D01*
X231102380Y-162499999D01*
X232054761Y-164499999D02*
X230054761Y-164499999D01*
X231483333Y-165166666D01*
X230054761Y-165833333D01*
X232054761Y-165833333D01*
X231483333Y-166690476D02*
X231483333Y-167642857D01*
X232054761Y-166499999D02*
X230054761Y-167166666D01*
X232054761Y-167833333D01*
X231959523Y-168404761D02*
X232054761Y-168690476D01*
X232054761Y-169166666D01*
X231959523Y-169357142D01*
X231864285Y-169452380D01*
X231673809Y-169547619D01*
X231483333Y-169547619D01*
X231292857Y-169452380D01*
X231197619Y-169357142D01*
X231102380Y-169166666D01*
X231007142Y-168785714D01*
X230911904Y-168595238D01*
X230816666Y-168499999D01*
X230626190Y-168404761D01*
X230435714Y-168404761D01*
X230245238Y-168499999D01*
X230150000Y-168595238D01*
X230054761Y-168785714D01*
X230054761Y-169261904D01*
X230150000Y-169547619D01*
X231864285Y-171547619D02*
X231959523Y-171452380D01*
X232054761Y-171166666D01*
X232054761Y-170976190D01*
X231959523Y-170690476D01*
X231769047Y-170499999D01*
X231578571Y-170404761D01*
X231197619Y-170309523D01*
X230911904Y-170309523D01*
X230530952Y-170404761D01*
X230340476Y-170499999D01*
X230150000Y-170690476D01*
X230054761Y-170976190D01*
X230054761Y-171166666D01*
X230150000Y-171452380D01*
X230245238Y-171547619D01*
X232054761Y-172404761D02*
X230054761Y-172404761D01*
X231007142Y-172404761D02*
X231007142Y-173547619D01*
X232054761Y-173547619D02*
X230054761Y-173547619D01*
X232054761Y-174499999D02*
X230054761Y-174499999D01*
X232054761Y-175452380D02*
X230054761Y-175452380D01*
X232054761Y-176595238D01*
X230054761Y-176595238D01*
X231007142Y-177547619D02*
X231007142Y-178214285D01*
X232054761Y-178499999D02*
X232054761Y-177547619D01*
X230054761Y-177547619D01*
X230054761Y-178499999D01*
X232054761Y-180880952D02*
X230054761Y-180880952D01*
X231959523Y-181738095D02*
X232054761Y-182023809D01*
X232054761Y-182499999D01*
X231959523Y-182690476D01*
X231864285Y-182785714D01*
X231673809Y-182880952D01*
X231483333Y-182880952D01*
X231292857Y-182785714D01*
X231197619Y-182690476D01*
X231102380Y-182499999D01*
X231007142Y-182119047D01*
X230911904Y-181928571D01*
X230816666Y-181833333D01*
X230626190Y-181738095D01*
X230435714Y-181738095D01*
X230245238Y-181833333D01*
X230150000Y-181928571D01*
X230054761Y-182119047D01*
X230054761Y-182595238D01*
X230150000Y-182880952D01*
X230054761Y-183452380D02*
X230054761Y-184595238D01*
X232054761Y-184023809D02*
X230054761Y-184023809D01*
X235354761Y-60309523D02*
X233354761Y-60309523D01*
X235354761Y-61452380D01*
X233354761Y-61452380D01*
X235354761Y-62404761D02*
X233354761Y-62404761D01*
X235164285Y-64500000D02*
X235259523Y-64404761D01*
X235354761Y-64119047D01*
X235354761Y-63928571D01*
X235259523Y-63642857D01*
X235069047Y-63452380D01*
X234878571Y-63357142D01*
X234497619Y-63261904D01*
X234211904Y-63261904D01*
X233830952Y-63357142D01*
X233640476Y-63452380D01*
X233450000Y-63642857D01*
X233354761Y-63928571D01*
X233354761Y-64119047D01*
X233450000Y-64404761D01*
X233545238Y-64500000D01*
X235354761Y-65357142D02*
X233354761Y-65357142D01*
X234307142Y-65357142D02*
X234307142Y-66500000D01*
X235354761Y-66500000D02*
X233354761Y-66500000D01*
X233354761Y-67166666D02*
X233354761Y-68309523D01*
X235354761Y-67738095D02*
X233354761Y-67738095D01*
X234307142Y-71166666D02*
X234307142Y-70500000D01*
X235354761Y-70500000D02*
X233354761Y-70500000D01*
X233354761Y-71452380D01*
X233354761Y-72214285D02*
X234973809Y-72214285D01*
X235164285Y-72309523D01*
X235259523Y-72404761D01*
X235354761Y-72595238D01*
X235354761Y-72976190D01*
X235259523Y-73166666D01*
X235164285Y-73261904D01*
X234973809Y-73357142D01*
X233354761Y-73357142D01*
X232688095Y-72404761D02*
X232783333Y-72500000D01*
X232878571Y-72404761D01*
X232783333Y-72309523D01*
X232688095Y-72404761D01*
X232878571Y-72404761D01*
X232688095Y-73166666D02*
X232783333Y-73261904D01*
X232878571Y-73166666D01*
X232783333Y-73071428D01*
X232688095Y-73166666D01*
X232878571Y-73166666D01*
X235354761Y-75452380D02*
X234402380Y-74785714D01*
X235354761Y-74309523D02*
X233354761Y-74309523D01*
X233354761Y-75071428D01*
X233450000Y-75261904D01*
X233545238Y-75357142D01*
X233735714Y-75452380D01*
X234021428Y-75452380D01*
X234211904Y-75357142D01*
X234307142Y-75261904D01*
X234402380Y-75071428D01*
X234402380Y-74309523D01*
X235354761Y-77833333D02*
X233354761Y-77833333D01*
X233354761Y-78309523D01*
X233450000Y-78595238D01*
X233640476Y-78785714D01*
X233830952Y-78880952D01*
X234211904Y-78976190D01*
X234497619Y-78976190D01*
X234878571Y-78880952D01*
X235069047Y-78785714D01*
X235259523Y-78595238D01*
X235354761Y-78309523D01*
X235354761Y-77833333D01*
X234307142Y-79833333D02*
X234307142Y-80500000D01*
X235354761Y-80785714D02*
X235354761Y-79833333D01*
X233354761Y-79833333D01*
X233354761Y-80785714D01*
X235354761Y-82785714D02*
X234402380Y-82119047D01*
X235354761Y-81642857D02*
X233354761Y-81642857D01*
X233354761Y-82404761D01*
X233450000Y-82595238D01*
X233545238Y-82690476D01*
X233735714Y-82785714D01*
X234021428Y-82785714D01*
X234211904Y-82690476D01*
X234307142Y-82595238D01*
X234402380Y-82404761D01*
X234402380Y-81642857D01*
X233450000Y-86214285D02*
X233354761Y-86023809D01*
X233354761Y-85738095D01*
X233450000Y-85452380D01*
X233640476Y-85261904D01*
X233830952Y-85166666D01*
X234211904Y-85071428D01*
X234497619Y-85071428D01*
X234878571Y-85166666D01*
X235069047Y-85261904D01*
X235259523Y-85452380D01*
X235354761Y-85738095D01*
X235354761Y-85928571D01*
X235259523Y-86214285D01*
X235164285Y-86309523D01*
X234497619Y-86309523D01*
X234497619Y-85928571D01*
X234307142Y-87166666D02*
X234307142Y-87833333D01*
X235354761Y-88119047D02*
X235354761Y-87166666D01*
X233354761Y-87166666D01*
X233354761Y-88119047D01*
X234307142Y-89642857D02*
X234307142Y-88976190D01*
X235354761Y-88976190D02*
X233354761Y-88976190D01*
X233354761Y-89928571D01*
X235354761Y-90690476D02*
X233354761Y-90690476D01*
X235354761Y-91642857D02*
X233354761Y-91642857D01*
X235354761Y-92785714D01*
X233354761Y-92785714D01*
X233450000Y-94785714D02*
X233354761Y-94595238D01*
X233354761Y-94309523D01*
X233450000Y-94023809D01*
X233640476Y-93833333D01*
X233830952Y-93738095D01*
X234211904Y-93642857D01*
X234497619Y-93642857D01*
X234878571Y-93738095D01*
X235069047Y-93833333D01*
X235259523Y-94023809D01*
X235354761Y-94309523D01*
X235354761Y-94500000D01*
X235259523Y-94785714D01*
X235164285Y-94880952D01*
X234497619Y-94880952D01*
X234497619Y-94500000D01*
X234307142Y-95738095D02*
X234307142Y-96404761D01*
X235354761Y-96690476D02*
X235354761Y-95738095D01*
X233354761Y-95738095D01*
X233354761Y-96690476D01*
X235354761Y-98690476D02*
X234402380Y-98023809D01*
X235354761Y-97547619D02*
X233354761Y-97547619D01*
X233354761Y-98309523D01*
X233450000Y-98500000D01*
X233545238Y-98595238D01*
X233735714Y-98690476D01*
X234021428Y-98690476D01*
X234211904Y-98595238D01*
X234307142Y-98500000D01*
X234402380Y-98309523D01*
X234402380Y-97547619D01*
X235354761Y-99547619D02*
X233354761Y-99547619D01*
X233354761Y-100309523D01*
X233450000Y-100500000D01*
X233545238Y-100595238D01*
X233735714Y-100690476D01*
X234021428Y-100690476D01*
X234211904Y-100595238D01*
X234307142Y-100500000D01*
X234402380Y-100309523D01*
X234402380Y-99547619D01*
X233354761Y-101928571D02*
X233354761Y-102309523D01*
X233450000Y-102500000D01*
X233640476Y-102690476D01*
X234021428Y-102785714D01*
X234688095Y-102785714D01*
X235069047Y-102690476D01*
X235259523Y-102500000D01*
X235354761Y-102309523D01*
X235354761Y-101928571D01*
X235259523Y-101738095D01*
X235069047Y-101547619D01*
X234688095Y-101452380D01*
X234021428Y-101452380D01*
X233640476Y-101547619D01*
X233450000Y-101738095D01*
X233354761Y-101928571D01*
X235354761Y-103642857D02*
X233354761Y-103642857D01*
X235354761Y-104785714D02*
X234211904Y-103928571D01*
X233354761Y-104785714D02*
X234497619Y-103642857D01*
X234307142Y-105642857D02*
X234307142Y-106309523D01*
X235354761Y-106595238D02*
X235354761Y-105642857D01*
X233354761Y-105642857D01*
X233354761Y-106595238D01*
X235354761Y-107452380D02*
X233354761Y-107452380D01*
X235354761Y-108595238D01*
X233354761Y-108595238D01*
X233354761Y-111071428D02*
X234973809Y-111071428D01*
X235164285Y-111166666D01*
X235259523Y-111261904D01*
X235354761Y-111452380D01*
X235354761Y-111833333D01*
X235259523Y-112023809D01*
X235164285Y-112119047D01*
X234973809Y-112214285D01*
X233354761Y-112214285D01*
X235354761Y-113166666D02*
X233354761Y-113166666D01*
X235354761Y-114309523D01*
X233354761Y-114309523D01*
X235354761Y-115261904D02*
X233354761Y-115261904D01*
X233354761Y-115738095D01*
X233450000Y-116023809D01*
X233640476Y-116214285D01*
X233830952Y-116309523D01*
X234211904Y-116404761D01*
X234497619Y-116404761D01*
X234878571Y-116309523D01*
X235069047Y-116214285D01*
X235259523Y-116023809D01*
X235354761Y-115738095D01*
X235354761Y-115261904D01*
X235354761Y-118785714D02*
X233354761Y-118785714D01*
X234783333Y-119452380D01*
X233354761Y-120119047D01*
X235354761Y-120119047D01*
X235354761Y-121071428D02*
X233354761Y-121071428D01*
X233354761Y-121738095D02*
X233354761Y-122880952D01*
X235354761Y-122309523D02*
X233354761Y-122309523D01*
X233354761Y-123261904D02*
X233354761Y-124404761D01*
X235354761Y-123833333D02*
X233354761Y-123833333D01*
X234307142Y-125071428D02*
X234307142Y-125738095D01*
X235354761Y-126023809D02*
X235354761Y-125071428D01*
X233354761Y-125071428D01*
X233354761Y-126023809D01*
X235354761Y-126880952D02*
X233354761Y-126880952D01*
X235354761Y-128023809D01*
X233354761Y-128023809D01*
X233450000Y-130023809D02*
X233354761Y-129833333D01*
X233354761Y-129547619D01*
X233450000Y-129261904D01*
X233640476Y-129071428D01*
X233830952Y-128976190D01*
X234211904Y-128880952D01*
X234497619Y-128880952D01*
X234878571Y-128976190D01*
X235069047Y-129071428D01*
X235259523Y-129261904D01*
X235354761Y-129547619D01*
X235354761Y-129738095D01*
X235259523Y-130023809D01*
X235164285Y-130119047D01*
X234497619Y-130119047D01*
X234497619Y-129738095D01*
X235354761Y-132119047D02*
X234402380Y-131452380D01*
X235354761Y-130976190D02*
X233354761Y-130976190D01*
X233354761Y-131738095D01*
X233450000Y-131928571D01*
X233545238Y-132023809D01*
X233735714Y-132119047D01*
X234021428Y-132119047D01*
X234211904Y-132023809D01*
X234307142Y-131928571D01*
X234402380Y-131738095D01*
X234402380Y-130976190D01*
X234783333Y-132880952D02*
X234783333Y-133833333D01*
X235354761Y-132690476D02*
X233354761Y-133357142D01*
X235354761Y-134023809D01*
X234307142Y-135357142D02*
X234402380Y-135642857D01*
X234497619Y-135738095D01*
X234688095Y-135833333D01*
X234973809Y-135833333D01*
X235164285Y-135738095D01*
X235259523Y-135642857D01*
X235354761Y-135452380D01*
X235354761Y-134690476D01*
X233354761Y-134690476D01*
X233354761Y-135357142D01*
X233450000Y-135547619D01*
X233545238Y-135642857D01*
X233735714Y-135738095D01*
X233926190Y-135738095D01*
X234116666Y-135642857D01*
X234211904Y-135547619D01*
X234307142Y-135357142D01*
X234307142Y-134690476D01*
X234307142Y-136690476D02*
X234307142Y-137357142D01*
X235354761Y-137642857D02*
X235354761Y-136690476D01*
X233354761Y-136690476D01*
X233354761Y-137642857D01*
X235354761Y-138500000D02*
X233354761Y-138500000D01*
X235354761Y-139642857D01*
X233354761Y-139642857D01*
X235164285Y-140595238D02*
X235259523Y-140690476D01*
X235354761Y-140595238D01*
X235259523Y-140500000D01*
X235164285Y-140595238D01*
X235354761Y-140595238D01*
X234592857Y-140595238D02*
X233450000Y-140500000D01*
X233354761Y-140595238D01*
X233450000Y-140690476D01*
X234592857Y-140595238D01*
X233354761Y-140595238D01*
X233354761Y-143452380D02*
X233354761Y-143833333D01*
X233450000Y-144023809D01*
X233640476Y-144214285D01*
X234021428Y-144309523D01*
X234688095Y-144309523D01*
X235069047Y-144214285D01*
X235259523Y-144023809D01*
X235354761Y-143833333D01*
X235354761Y-143452380D01*
X235259523Y-143261904D01*
X235069047Y-143071428D01*
X234688095Y-142976190D01*
X234021428Y-142976190D01*
X233640476Y-143071428D01*
X233450000Y-143261904D01*
X233354761Y-143452380D01*
X235354761Y-145166666D02*
X233354761Y-145166666D01*
X233354761Y-145642857D01*
X233450000Y-145928571D01*
X233640476Y-146119047D01*
X233830952Y-146214285D01*
X234211904Y-146309523D01*
X234497619Y-146309523D01*
X234878571Y-146214285D01*
X235069047Y-146119047D01*
X235259523Y-145928571D01*
X235354761Y-145642857D01*
X235354761Y-145166666D01*
X234307142Y-147166666D02*
X234307142Y-147833333D01*
X235354761Y-148119047D02*
X235354761Y-147166666D01*
X233354761Y-147166666D01*
X233354761Y-148119047D01*
X235354761Y-150119047D02*
X234402380Y-149452380D01*
X235354761Y-148976190D02*
X233354761Y-148976190D01*
X233354761Y-149738095D01*
X233450000Y-149928571D01*
X233545238Y-150023809D01*
X233735714Y-150119047D01*
X234021428Y-150119047D01*
X234211904Y-150023809D01*
X234307142Y-149928571D01*
X234402380Y-149738095D01*
X234402380Y-148976190D01*
X233354761Y-150785714D02*
X235354761Y-151261904D01*
X233926190Y-151642857D01*
X235354761Y-152023809D01*
X233354761Y-152500000D01*
X235354761Y-153261904D02*
X233354761Y-153261904D01*
X235259523Y-154119047D02*
X235354761Y-154404761D01*
X235354761Y-154880952D01*
X235259523Y-155071428D01*
X235164285Y-155166666D01*
X234973809Y-155261904D01*
X234783333Y-155261904D01*
X234592857Y-155166666D01*
X234497619Y-155071428D01*
X234402380Y-154880952D01*
X234307142Y-154500000D01*
X234211904Y-154309523D01*
X234116666Y-154214285D01*
X233926190Y-154119047D01*
X233735714Y-154119047D01*
X233545238Y-154214285D01*
X233450000Y-154309523D01*
X233354761Y-154500000D01*
X233354761Y-154976190D01*
X233450000Y-155261904D01*
X234307142Y-156119047D02*
X234307142Y-156785714D01*
X235354761Y-157071428D02*
X235354761Y-156119047D01*
X233354761Y-156119047D01*
X233354761Y-157071428D01*
X235354761Y-159452380D02*
X233354761Y-159452380D01*
X235259523Y-160309523D02*
X235354761Y-160595238D01*
X235354761Y-161071428D01*
X235259523Y-161261904D01*
X235164285Y-161357142D01*
X234973809Y-161452380D01*
X234783333Y-161452380D01*
X234592857Y-161357142D01*
X234497619Y-161261904D01*
X234402380Y-161071428D01*
X234307142Y-160690476D01*
X234211904Y-160500000D01*
X234116666Y-160404761D01*
X233926190Y-160309523D01*
X233735714Y-160309523D01*
X233545238Y-160404761D01*
X233450000Y-160500000D01*
X233354761Y-160690476D01*
X233354761Y-161166666D01*
X233450000Y-161452380D01*
X233354761Y-162023809D02*
X233354761Y-163166666D01*
X235354761Y-162595238D02*
X233354761Y-162595238D01*
X234307142Y-165357142D02*
X234307142Y-166023809D01*
X235354761Y-166309523D02*
X235354761Y-165357142D01*
X233354761Y-165357142D01*
X233354761Y-166309523D01*
X234783333Y-167071428D02*
X234783333Y-168023809D01*
X235354761Y-166880952D02*
X233354761Y-167547619D01*
X235354761Y-168214285D01*
X235259523Y-168785714D02*
X235354761Y-169071428D01*
X235354761Y-169547619D01*
X235259523Y-169738095D01*
X235164285Y-169833333D01*
X234973809Y-169928571D01*
X234783333Y-169928571D01*
X234592857Y-169833333D01*
X234497619Y-169738095D01*
X234402380Y-169547619D01*
X234307142Y-169166666D01*
X234211904Y-168976190D01*
X234116666Y-168880952D01*
X233926190Y-168785714D01*
X233735714Y-168785714D01*
X233545238Y-168880952D01*
X233450000Y-168976190D01*
X233354761Y-169166666D01*
X233354761Y-169642857D01*
X233450000Y-169928571D01*
X234402380Y-171166666D02*
X235354761Y-171166666D01*
X233354761Y-170500000D02*
X234402380Y-171166666D01*
X233354761Y-171833333D01*
X233354761Y-173738095D02*
X233354761Y-174880952D01*
X235354761Y-174309523D02*
X233354761Y-174309523D01*
X233354761Y-175928571D02*
X233354761Y-176309523D01*
X233450000Y-176500000D01*
X233640476Y-176690476D01*
X234021428Y-176785714D01*
X234688095Y-176785714D01*
X235069047Y-176690476D01*
X235259523Y-176500000D01*
X235354761Y-176309523D01*
X235354761Y-175928571D01*
X235259523Y-175738095D01*
X235069047Y-175547619D01*
X234688095Y-175452380D01*
X234021428Y-175452380D01*
X233640476Y-175547619D01*
X233450000Y-175738095D01*
X233354761Y-175928571D01*
X238559523Y-48261904D02*
X238654761Y-48547619D01*
X238654761Y-49023809D01*
X238559523Y-49214285D01*
X238464285Y-49309523D01*
X238273809Y-49404761D01*
X238083333Y-49404761D01*
X237892857Y-49309523D01*
X237797619Y-49214285D01*
X237702380Y-49023809D01*
X237607142Y-48642857D01*
X237511904Y-48452380D01*
X237416666Y-48357142D01*
X237226190Y-48261904D01*
X237035714Y-48261904D01*
X236845238Y-48357142D01*
X236750000Y-48452380D01*
X236654761Y-48642857D01*
X236654761Y-49119047D01*
X236750000Y-49404761D01*
X238464285Y-51404761D02*
X238559523Y-51309523D01*
X238654761Y-51023809D01*
X238654761Y-50833333D01*
X238559523Y-50547619D01*
X238369047Y-50357142D01*
X238178571Y-50261904D01*
X237797619Y-50166666D01*
X237511904Y-50166666D01*
X237130952Y-50261904D01*
X236940476Y-50357142D01*
X236750000Y-50547619D01*
X236654761Y-50833333D01*
X236654761Y-51023809D01*
X236750000Y-51309523D01*
X236845238Y-51404761D01*
X238654761Y-52261904D02*
X236654761Y-52261904D01*
X237607142Y-52261904D02*
X237607142Y-53404761D01*
X238654761Y-53404761D02*
X236654761Y-53404761D01*
X238654761Y-54357142D02*
X236654761Y-54357142D01*
X238654761Y-55500000D01*
X236654761Y-55500000D01*
X238083333Y-56357142D02*
X238083333Y-57309523D01*
X238654761Y-56166666D02*
X236654761Y-56833333D01*
X238654761Y-57500000D01*
X238654761Y-58166666D02*
X236654761Y-58166666D01*
X236654761Y-58928571D01*
X236750000Y-59119047D01*
X236845238Y-59214285D01*
X237035714Y-59309523D01*
X237321428Y-59309523D01*
X237511904Y-59214285D01*
X237607142Y-59119047D01*
X237702380Y-58928571D01*
X237702380Y-58166666D01*
X238654761Y-60166666D02*
X236654761Y-60166666D01*
X236654761Y-60928571D01*
X236750000Y-61119047D01*
X236845238Y-61214285D01*
X237035714Y-61309523D01*
X237321428Y-61309523D01*
X237511904Y-61214285D01*
X237607142Y-61119047D01*
X237702380Y-60928571D01*
X237702380Y-60166666D01*
X237607142Y-62166666D02*
X237607142Y-62833333D01*
X238654761Y-63119047D02*
X238654761Y-62166666D01*
X236654761Y-62166666D01*
X236654761Y-63119047D01*
X238654761Y-63976190D02*
X236654761Y-63976190D01*
X238654761Y-65119047D01*
X236654761Y-65119047D01*
X238654761Y-67595238D02*
X236654761Y-67595238D01*
X236654761Y-68071428D01*
X236750000Y-68357142D01*
X236940476Y-68547619D01*
X237130952Y-68642857D01*
X237511904Y-68738095D01*
X237797619Y-68738095D01*
X238178571Y-68642857D01*
X238369047Y-68547619D01*
X238559523Y-68357142D01*
X238654761Y-68071428D01*
X238654761Y-67595238D01*
X237607142Y-69595238D02*
X237607142Y-70261904D01*
X238654761Y-70547619D02*
X238654761Y-69595238D01*
X236654761Y-69595238D01*
X236654761Y-70547619D01*
X238654761Y-72547619D02*
X237702380Y-71880952D01*
X238654761Y-71404761D02*
X236654761Y-71404761D01*
X236654761Y-72166666D01*
X236750000Y-72357142D01*
X236845238Y-72452380D01*
X237035714Y-72547619D01*
X237321428Y-72547619D01*
X237511904Y-72452380D01*
X237607142Y-72357142D01*
X237702380Y-72166666D01*
X237702380Y-71404761D01*
X238559523Y-74833333D02*
X238654761Y-75119047D01*
X238654761Y-75595238D01*
X238559523Y-75785714D01*
X238464285Y-75880952D01*
X238273809Y-75976190D01*
X238083333Y-75976190D01*
X237892857Y-75880952D01*
X237797619Y-75785714D01*
X237702380Y-75595238D01*
X237607142Y-75214285D01*
X237511904Y-75023809D01*
X237416666Y-74928571D01*
X237226190Y-74833333D01*
X237035714Y-74833333D01*
X236845238Y-74928571D01*
X236750000Y-75023809D01*
X236654761Y-75214285D01*
X236654761Y-75690476D01*
X236750000Y-75976190D01*
X238654761Y-76833333D02*
X236654761Y-76833333D01*
X236654761Y-77595238D01*
X236750000Y-77785714D01*
X236845238Y-77880952D01*
X237035714Y-77976190D01*
X237321428Y-77976190D01*
X237511904Y-77880952D01*
X237607142Y-77785714D01*
X237702380Y-77595238D01*
X237702380Y-76833333D01*
X238654761Y-79976190D02*
X237702380Y-79309523D01*
X238654761Y-78833333D02*
X236654761Y-78833333D01*
X236654761Y-79595238D01*
X236750000Y-79785714D01*
X236845238Y-79880952D01*
X237035714Y-79976190D01*
X237321428Y-79976190D01*
X237511904Y-79880952D01*
X237607142Y-79785714D01*
X237702380Y-79595238D01*
X237702380Y-78833333D01*
X238654761Y-80833333D02*
X236654761Y-80833333D01*
X238654761Y-81785714D02*
X236654761Y-81785714D01*
X238654761Y-82928571D01*
X236654761Y-82928571D01*
X236750000Y-84928571D02*
X236654761Y-84738095D01*
X236654761Y-84452380D01*
X236750000Y-84166666D01*
X236940476Y-83976190D01*
X237130952Y-83880952D01*
X237511904Y-83785714D01*
X237797619Y-83785714D01*
X238178571Y-83880952D01*
X238369047Y-83976190D01*
X238559523Y-84166666D01*
X238654761Y-84452380D01*
X238654761Y-84642857D01*
X238559523Y-84928571D01*
X238464285Y-85023809D01*
X237797619Y-85023809D01*
X237797619Y-84642857D01*
X237607142Y-85880952D02*
X237607142Y-86547619D01*
X238654761Y-86833333D02*
X238654761Y-85880952D01*
X236654761Y-85880952D01*
X236654761Y-86833333D01*
X238654761Y-87690476D02*
X236654761Y-87690476D01*
X238654761Y-88833333D01*
X236654761Y-88833333D01*
X236654761Y-89595238D02*
X238654761Y-90071428D01*
X237226190Y-90452380D01*
X238654761Y-90833333D01*
X236654761Y-91309523D01*
X237607142Y-92071428D02*
X237607142Y-92738095D01*
X238654761Y-93023809D02*
X238654761Y-92071428D01*
X236654761Y-92071428D01*
X236654761Y-93023809D01*
X238654761Y-95023809D02*
X237702380Y-94357142D01*
X238654761Y-93880952D02*
X236654761Y-93880952D01*
X236654761Y-94642857D01*
X236750000Y-94833333D01*
X236845238Y-94928571D01*
X237035714Y-95023809D01*
X237321428Y-95023809D01*
X237511904Y-94928571D01*
X237607142Y-94833333D01*
X237702380Y-94642857D01*
X237702380Y-93880952D01*
X238654761Y-95880952D02*
X236654761Y-95880952D01*
X238654761Y-97023809D02*
X237511904Y-96166666D01*
X236654761Y-97023809D02*
X237797619Y-95880952D01*
X238559523Y-97976190D02*
X238654761Y-97976190D01*
X238845238Y-97880952D01*
X238940476Y-97785714D01*
X237607142Y-101023809D02*
X237702380Y-101309523D01*
X237797619Y-101404761D01*
X237988095Y-101499999D01*
X238273809Y-101499999D01*
X238464285Y-101404761D01*
X238559523Y-101309523D01*
X238654761Y-101119047D01*
X238654761Y-100357142D01*
X236654761Y-100357142D01*
X236654761Y-101023809D01*
X236750000Y-101214285D01*
X236845238Y-101309523D01*
X237035714Y-101404761D01*
X237226190Y-101404761D01*
X237416666Y-101309523D01*
X237511904Y-101214285D01*
X237607142Y-101023809D01*
X237607142Y-100357142D01*
X238654761Y-103309523D02*
X238654761Y-102357142D01*
X236654761Y-102357142D01*
X236654761Y-104357142D02*
X236654761Y-104738095D01*
X236750000Y-104928571D01*
X236940476Y-105119047D01*
X237321428Y-105214285D01*
X237988095Y-105214285D01*
X238369047Y-105119047D01*
X238559523Y-104928571D01*
X238654761Y-104738095D01*
X238654761Y-104357142D01*
X238559523Y-104166666D01*
X238369047Y-103976190D01*
X237988095Y-103880952D01*
X237321428Y-103880952D01*
X236940476Y-103976190D01*
X236750000Y-104166666D01*
X236654761Y-104357142D01*
X236654761Y-105880952D02*
X238654761Y-106357142D01*
X237226190Y-106738095D01*
X238654761Y-107119047D01*
X236654761Y-107595238D01*
X237607142Y-108357142D02*
X237607142Y-109023809D01*
X238654761Y-109309523D02*
X238654761Y-108357142D01*
X236654761Y-108357142D01*
X236654761Y-109309523D01*
X238654761Y-110166666D02*
X236654761Y-110166666D01*
X238654761Y-111309523D01*
X236654761Y-111309523D01*
X237607142Y-112928571D02*
X237607142Y-112261904D01*
X238654761Y-112261904D02*
X236654761Y-112261904D01*
X236654761Y-113214285D01*
X236654761Y-113976190D02*
X238273809Y-113976190D01*
X238464285Y-114071428D01*
X238559523Y-114166666D01*
X238654761Y-114357142D01*
X238654761Y-114738095D01*
X238559523Y-114928571D01*
X238464285Y-115023809D01*
X238273809Y-115119047D01*
X236654761Y-115119047D01*
X238559523Y-115976190D02*
X238654761Y-116261904D01*
X238654761Y-116738095D01*
X238559523Y-116928571D01*
X238464285Y-117023809D01*
X238273809Y-117119047D01*
X238083333Y-117119047D01*
X237892857Y-117023809D01*
X237797619Y-116928571D01*
X237702380Y-116738095D01*
X237607142Y-116357142D01*
X237511904Y-116166666D01*
X237416666Y-116071428D01*
X237226190Y-115976190D01*
X237035714Y-115976190D01*
X236845238Y-116071428D01*
X236750000Y-116166666D01*
X236654761Y-116357142D01*
X236654761Y-116833333D01*
X236750000Y-117119047D01*
X237607142Y-117976190D02*
X237607142Y-118642857D01*
X238654761Y-118928571D02*
X238654761Y-117976190D01*
X236654761Y-117976190D01*
X236654761Y-118928571D01*
X238654761Y-119785714D02*
X236654761Y-119785714D01*
X238654761Y-120928571D01*
X236654761Y-120928571D01*
X236654761Y-123404761D02*
X238273809Y-123404761D01*
X238464285Y-123499999D01*
X238559523Y-123595238D01*
X238654761Y-123785714D01*
X238654761Y-124166666D01*
X238559523Y-124357142D01*
X238464285Y-124452380D01*
X238273809Y-124547619D01*
X236654761Y-124547619D01*
X238654761Y-125499999D02*
X236654761Y-125499999D01*
X238654761Y-126642857D01*
X236654761Y-126642857D01*
X238654761Y-127595238D02*
X236654761Y-127595238D01*
X236654761Y-128071428D01*
X236750000Y-128357142D01*
X236940476Y-128547619D01*
X237130952Y-128642857D01*
X237511904Y-128738095D01*
X237797619Y-128738095D01*
X238178571Y-128642857D01*
X238369047Y-128547619D01*
X238559523Y-128357142D01*
X238654761Y-128071428D01*
X238654761Y-127595238D01*
X238654761Y-131119047D02*
X236654761Y-131119047D01*
X236654761Y-131880952D01*
X236750000Y-132071428D01*
X236845238Y-132166666D01*
X237035714Y-132261904D01*
X237321428Y-132261904D01*
X237511904Y-132166666D01*
X237607142Y-132071428D01*
X237702380Y-131880952D01*
X237702380Y-131119047D01*
X236654761Y-133499999D02*
X236654761Y-133880952D01*
X236750000Y-134071428D01*
X236940476Y-134261904D01*
X237321428Y-134357142D01*
X237988095Y-134357142D01*
X238369047Y-134261904D01*
X238559523Y-134071428D01*
X238654761Y-133880952D01*
X238654761Y-133499999D01*
X238559523Y-133309523D01*
X238369047Y-133119047D01*
X237988095Y-133023809D01*
X237321428Y-133023809D01*
X236940476Y-133119047D01*
X236750000Y-133309523D01*
X236654761Y-133499999D01*
X238654761Y-135214285D02*
X236654761Y-135214285D01*
X236654761Y-135976190D01*
X236750000Y-136166666D01*
X236845238Y-136261904D01*
X237035714Y-136357142D01*
X237321428Y-136357142D01*
X237511904Y-136261904D01*
X237607142Y-136166666D01*
X237702380Y-135976190D01*
X237702380Y-135214285D01*
X238654761Y-137214285D02*
X236654761Y-137214285D01*
X236654761Y-137976190D01*
X236750000Y-138166666D01*
X236845238Y-138261904D01*
X237035714Y-138357142D01*
X237321428Y-138357142D01*
X237511904Y-138261904D01*
X237607142Y-138166666D01*
X237702380Y-137976190D01*
X237702380Y-137214285D01*
X237607142Y-139214285D02*
X237607142Y-139880952D01*
X238654761Y-140166666D02*
X238654761Y-139214285D01*
X236654761Y-139214285D01*
X236654761Y-140166666D01*
X238654761Y-141023809D02*
X236654761Y-141023809D01*
X238654761Y-142166666D01*
X236654761Y-142166666D01*
X238464285Y-144261904D02*
X238559523Y-144166666D01*
X238654761Y-143880952D01*
X238654761Y-143690476D01*
X238559523Y-143404761D01*
X238369047Y-143214285D01*
X238178571Y-143119047D01*
X237797619Y-143023809D01*
X237511904Y-143023809D01*
X237130952Y-143119047D01*
X236940476Y-143214285D01*
X236750000Y-143404761D01*
X236654761Y-143690476D01*
X236654761Y-143880952D01*
X236750000Y-144166666D01*
X236845238Y-144261904D01*
X236654761Y-145499999D02*
X236654761Y-145880952D01*
X236750000Y-146071428D01*
X236940476Y-146261904D01*
X237321428Y-146357142D01*
X237988095Y-146357142D01*
X238369047Y-146261904D01*
X238559523Y-146071428D01*
X238654761Y-145880952D01*
X238654761Y-145499999D01*
X238559523Y-145309523D01*
X238369047Y-145119047D01*
X237988095Y-145023809D01*
X237321428Y-145023809D01*
X236940476Y-145119047D01*
X236750000Y-145309523D01*
X236654761Y-145499999D01*
X238654761Y-148357142D02*
X237702380Y-147690476D01*
X238654761Y-147214285D02*
X236654761Y-147214285D01*
X236654761Y-147976190D01*
X236750000Y-148166666D01*
X236845238Y-148261904D01*
X237035714Y-148357142D01*
X237321428Y-148357142D01*
X237511904Y-148261904D01*
X237607142Y-148166666D01*
X237702380Y-147976190D01*
X237702380Y-147214285D01*
X238654761Y-149214285D02*
X236654761Y-149214285D01*
X238654761Y-150357142D02*
X237511904Y-149499999D01*
X236654761Y-150357142D02*
X237797619Y-149214285D01*
X237607142Y-151214285D02*
X237607142Y-151880952D01*
X238654761Y-152166666D02*
X238654761Y-151214285D01*
X236654761Y-151214285D01*
X236654761Y-152166666D01*
X238654761Y-153023809D02*
X236654761Y-153023809D01*
X238654761Y-154166666D01*
X236654761Y-154166666D01*
X238654761Y-156642857D02*
X236654761Y-156642857D01*
X238083333Y-157309523D01*
X236654761Y-157976190D01*
X238654761Y-157976190D01*
X238654761Y-158928571D02*
X236654761Y-158928571D01*
X236654761Y-159595238D02*
X236654761Y-160738095D01*
X238654761Y-160166666D02*
X236654761Y-160166666D01*
X238559523Y-162833333D02*
X238654761Y-163119047D01*
X238654761Y-163595238D01*
X238559523Y-163785714D01*
X238464285Y-163880952D01*
X238273809Y-163976190D01*
X238083333Y-163976190D01*
X237892857Y-163880952D01*
X237797619Y-163785714D01*
X237702380Y-163595238D01*
X237607142Y-163214285D01*
X237511904Y-163023809D01*
X237416666Y-162928571D01*
X237226190Y-162833333D01*
X237035714Y-162833333D01*
X236845238Y-162928571D01*
X236750000Y-163023809D01*
X236654761Y-163214285D01*
X236654761Y-163690476D01*
X236750000Y-163976190D01*
X238654761Y-164833333D02*
X236654761Y-164833333D01*
X236654761Y-165595238D01*
X236750000Y-165785714D01*
X236845238Y-165880952D01*
X237035714Y-165976190D01*
X237321428Y-165976190D01*
X237511904Y-165880952D01*
X237607142Y-165785714D01*
X237702380Y-165595238D01*
X237702380Y-164833333D01*
X238654761Y-166833333D02*
X236654761Y-166833333D01*
X236654761Y-167499999D02*
X236654761Y-168642857D01*
X238654761Y-168071428D02*
X236654761Y-168071428D01*
X236654761Y-169119047D02*
X236654761Y-170452380D01*
X238654761Y-169119047D01*
X238654761Y-170452380D01*
X237607142Y-171214285D02*
X237607142Y-171880952D01*
X238654761Y-172166666D02*
X238654761Y-171214285D01*
X236654761Y-171214285D01*
X236654761Y-172166666D01*
X238654761Y-173023809D02*
X236654761Y-173023809D01*
X238654761Y-174166666D01*
X236654761Y-174166666D01*
X238559523Y-175023809D02*
X238654761Y-175309523D01*
X238654761Y-175785714D01*
X238559523Y-175976190D01*
X238464285Y-176071428D01*
X238273809Y-176166666D01*
X238083333Y-176166666D01*
X237892857Y-176071428D01*
X237797619Y-175976190D01*
X237702380Y-175785714D01*
X237607142Y-175404761D01*
X237511904Y-175214285D01*
X237416666Y-175119047D01*
X237226190Y-175023809D01*
X237035714Y-175023809D01*
X236845238Y-175119047D01*
X236750000Y-175214285D01*
X236654761Y-175404761D01*
X236654761Y-175880952D01*
X236750000Y-176166666D01*
X238654761Y-177023809D02*
X236654761Y-177023809D01*
X236654761Y-177785714D01*
X236750000Y-177976190D01*
X236845238Y-178071428D01*
X237035714Y-178166666D01*
X237321428Y-178166666D01*
X237511904Y-178071428D01*
X237607142Y-177976190D01*
X237702380Y-177785714D01*
X237702380Y-177023809D01*
X238083333Y-178928571D02*
X238083333Y-179880952D01*
X238654761Y-178738095D02*
X236654761Y-179404761D01*
X238654761Y-180071428D01*
X238654761Y-181880952D02*
X237702380Y-181214285D01*
X238654761Y-180738095D02*
X236654761Y-180738095D01*
X236654761Y-181499999D01*
X236750000Y-181690476D01*
X236845238Y-181785714D01*
X237035714Y-181880952D01*
X237321428Y-181880952D01*
X237511904Y-181785714D01*
X237607142Y-181690476D01*
X237702380Y-181499999D01*
X237702380Y-180738095D01*
X238654761Y-182738095D02*
X236654761Y-182738095D01*
X238654761Y-183880952D02*
X237511904Y-183023809D01*
X236654761Y-183880952D02*
X237797619Y-182738095D01*
X237607142Y-184738095D02*
X237607142Y-185404761D01*
X238654761Y-185690476D02*
X238654761Y-184738095D01*
X236654761Y-184738095D01*
X236654761Y-185690476D01*
X238654761Y-186547619D02*
X236654761Y-186547619D01*
X238654761Y-187690476D01*
X236654761Y-187690476D01*
X238464285Y-188642857D02*
X238559523Y-188738095D01*
X238654761Y-188642857D01*
X238559523Y-188547619D01*
X238464285Y-188642857D01*
X238654761Y-188642857D01*
X241954761Y-57023809D02*
X239954761Y-57023809D01*
X241859523Y-57880952D02*
X241954761Y-58166666D01*
X241954761Y-58642857D01*
X241859523Y-58833333D01*
X241764285Y-58928571D01*
X241573809Y-59023809D01*
X241383333Y-59023809D01*
X241192857Y-58928571D01*
X241097619Y-58833333D01*
X241002380Y-58642857D01*
X240907142Y-58261904D01*
X240811904Y-58071428D01*
X240716666Y-57976190D01*
X240526190Y-57880952D01*
X240335714Y-57880952D01*
X240145238Y-57976190D01*
X240050000Y-58071428D01*
X239954761Y-58261904D01*
X239954761Y-58738095D01*
X240050000Y-59023809D01*
X239954761Y-59595238D02*
X239954761Y-60738095D01*
X241954761Y-60166666D02*
X239954761Y-60166666D01*
X241954761Y-62928571D02*
X239954761Y-62928571D01*
X241954761Y-64071428D01*
X239954761Y-64071428D01*
X241954761Y-65023809D02*
X239954761Y-65023809D01*
X241764285Y-67119047D02*
X241859523Y-67023809D01*
X241954761Y-66738095D01*
X241954761Y-66547619D01*
X241859523Y-66261904D01*
X241669047Y-66071428D01*
X241478571Y-65976190D01*
X241097619Y-65880952D01*
X240811904Y-65880952D01*
X240430952Y-65976190D01*
X240240476Y-66071428D01*
X240050000Y-66261904D01*
X239954761Y-66547619D01*
X239954761Y-66738095D01*
X240050000Y-67023809D01*
X240145238Y-67119047D01*
X241954761Y-67976190D02*
X239954761Y-67976190D01*
X240907142Y-67976190D02*
X240907142Y-69119047D01*
X241954761Y-69119047D02*
X239954761Y-69119047D01*
X239954761Y-69785714D02*
X239954761Y-70928571D01*
X241954761Y-70357142D02*
X239954761Y-70357142D01*
X240907142Y-73785714D02*
X240907142Y-73119047D01*
X241954761Y-73119047D02*
X239954761Y-73119047D01*
X239954761Y-74071428D01*
X239954761Y-74833333D02*
X241573809Y-74833333D01*
X241764285Y-74928571D01*
X241859523Y-75023809D01*
X241954761Y-75214285D01*
X241954761Y-75595238D01*
X241859523Y-75785714D01*
X241764285Y-75880952D01*
X241573809Y-75976190D01*
X239954761Y-75976190D01*
X239288095Y-75023809D02*
X239383333Y-75119047D01*
X239478571Y-75023809D01*
X239383333Y-74928571D01*
X239288095Y-75023809D01*
X239478571Y-75023809D01*
X239288095Y-75785714D02*
X239383333Y-75880952D01*
X239478571Y-75785714D01*
X239383333Y-75690476D01*
X239288095Y-75785714D01*
X239478571Y-75785714D01*
X241954761Y-78071428D02*
X241002380Y-77404761D01*
X241954761Y-76928571D02*
X239954761Y-76928571D01*
X239954761Y-77690476D01*
X240050000Y-77880952D01*
X240145238Y-77976190D01*
X240335714Y-78071428D01*
X240621428Y-78071428D01*
X240811904Y-77976190D01*
X240907142Y-77880952D01*
X241002380Y-77690476D01*
X241002380Y-76928571D01*
X240050000Y-81500000D02*
X239954761Y-81309523D01*
X239954761Y-81023809D01*
X240050000Y-80738095D01*
X240240476Y-80547619D01*
X240430952Y-80452380D01*
X240811904Y-80357142D01*
X241097619Y-80357142D01*
X241478571Y-80452380D01*
X241669047Y-80547619D01*
X241859523Y-80738095D01*
X241954761Y-81023809D01*
X241954761Y-81214285D01*
X241859523Y-81500000D01*
X241764285Y-81595238D01*
X241097619Y-81595238D01*
X241097619Y-81214285D01*
X240907142Y-82452380D02*
X240907142Y-83119047D01*
X241954761Y-83404761D02*
X241954761Y-82452380D01*
X239954761Y-82452380D01*
X239954761Y-83404761D01*
X239954761Y-84071428D02*
X241954761Y-84547619D01*
X240526190Y-84928571D01*
X241954761Y-85309523D01*
X239954761Y-85785714D01*
X240907142Y-86547619D02*
X240907142Y-87214285D01*
X241954761Y-87500000D02*
X241954761Y-86547619D01*
X239954761Y-86547619D01*
X239954761Y-87500000D01*
X241954761Y-89500000D02*
X241002380Y-88833333D01*
X241954761Y-88357142D02*
X239954761Y-88357142D01*
X239954761Y-89119047D01*
X240050000Y-89309523D01*
X240145238Y-89404761D01*
X240335714Y-89500000D01*
X240621428Y-89500000D01*
X240811904Y-89404761D01*
X240907142Y-89309523D01*
X241002380Y-89119047D01*
X241002380Y-88357142D01*
X241954761Y-90357142D02*
X239954761Y-90357142D01*
X241954761Y-91500000D02*
X240811904Y-90642857D01*
X239954761Y-91500000D02*
X241097619Y-90357142D01*
X240907142Y-92357142D02*
X240907142Y-93023809D01*
X241954761Y-93309523D02*
X241954761Y-92357142D01*
X239954761Y-92357142D01*
X239954761Y-93309523D01*
X241954761Y-94166666D02*
X239954761Y-94166666D01*
X241954761Y-95309523D01*
X239954761Y-95309523D01*
X240907142Y-98452380D02*
X241002380Y-98738095D01*
X241097619Y-98833333D01*
X241288095Y-98928571D01*
X241573809Y-98928571D01*
X241764285Y-98833333D01*
X241859523Y-98738095D01*
X241954761Y-98547619D01*
X241954761Y-97785714D01*
X239954761Y-97785714D01*
X239954761Y-98452380D01*
X240050000Y-98642857D01*
X240145238Y-98738095D01*
X240335714Y-98833333D01*
X240526190Y-98833333D01*
X240716666Y-98738095D01*
X240811904Y-98642857D01*
X240907142Y-98452380D01*
X240907142Y-97785714D01*
X240907142Y-99785714D02*
X240907142Y-100452380D01*
X241954761Y-100738095D02*
X241954761Y-99785714D01*
X239954761Y-99785714D01*
X239954761Y-100738095D01*
X241954761Y-101595238D02*
X239954761Y-101595238D01*
X241954761Y-104071428D02*
X239954761Y-104071428D01*
X239954761Y-104547619D01*
X240050000Y-104833333D01*
X240240476Y-105023809D01*
X240430952Y-105119047D01*
X240811904Y-105214285D01*
X241097619Y-105214285D01*
X241478571Y-105119047D01*
X241669047Y-105023809D01*
X241859523Y-104833333D01*
X241954761Y-104547619D01*
X241954761Y-104071428D01*
X239954761Y-106071428D02*
X241573809Y-106071428D01*
X241764285Y-106166666D01*
X241859523Y-106261904D01*
X241954761Y-106452380D01*
X241954761Y-106833333D01*
X241859523Y-107023809D01*
X241764285Y-107119047D01*
X241573809Y-107214285D01*
X239954761Y-107214285D01*
X241954761Y-108166666D02*
X239954761Y-108166666D01*
X241383333Y-108833333D01*
X239954761Y-109500000D01*
X241954761Y-109500000D01*
X241954761Y-110452380D02*
X239954761Y-110452380D01*
X241383333Y-111119047D01*
X239954761Y-111785714D01*
X241954761Y-111785714D01*
X241954761Y-112738095D02*
X239954761Y-112738095D01*
X241954761Y-113880952D02*
X240811904Y-113023809D01*
X239954761Y-113880952D02*
X241097619Y-112738095D01*
X239954761Y-115119047D02*
X239954761Y-115500000D01*
X240050000Y-115690476D01*
X240240476Y-115880952D01*
X240621428Y-115976190D01*
X241288095Y-115976190D01*
X241669047Y-115880952D01*
X241859523Y-115690476D01*
X241954761Y-115500000D01*
X241954761Y-115119047D01*
X241859523Y-114928571D01*
X241669047Y-114738095D01*
X241288095Y-114642857D01*
X240621428Y-114642857D01*
X240240476Y-114738095D01*
X240050000Y-114928571D01*
X239954761Y-115119047D01*
X241954761Y-116833333D02*
X239954761Y-116833333D01*
X239954761Y-117595238D01*
X240050000Y-117785714D01*
X240145238Y-117880952D01*
X240335714Y-117976190D01*
X240621428Y-117976190D01*
X240811904Y-117880952D01*
X240907142Y-117785714D01*
X241002380Y-117595238D01*
X241002380Y-116833333D01*
X240907142Y-119500000D02*
X240907142Y-118833333D01*
X241954761Y-118833333D02*
X239954761Y-118833333D01*
X239954761Y-119785714D01*
X240907142Y-120547619D02*
X240907142Y-121214285D01*
X241954761Y-121500000D02*
X241954761Y-120547619D01*
X239954761Y-120547619D01*
X239954761Y-121500000D01*
X241954761Y-122357142D02*
X239954761Y-122357142D01*
X241954761Y-123500000D01*
X239954761Y-123500000D01*
X241764285Y-124452380D02*
X241859523Y-124547619D01*
X241954761Y-124452380D01*
X241859523Y-124357142D01*
X241764285Y-124452380D01*
X241954761Y-124452380D01*
X241954761Y-126928571D02*
X239954761Y-126928571D01*
X239954761Y-127404761D01*
X240050000Y-127690476D01*
X240240476Y-127880952D01*
X240430952Y-127976190D01*
X240811904Y-128071428D01*
X241097619Y-128071428D01*
X241478571Y-127976190D01*
X241669047Y-127880952D01*
X241859523Y-127690476D01*
X241954761Y-127404761D01*
X241954761Y-126928571D01*
X240907142Y-128928571D02*
X240907142Y-129595238D01*
X241954761Y-129880952D02*
X241954761Y-128928571D01*
X239954761Y-128928571D01*
X239954761Y-129880952D01*
X241954761Y-131880952D02*
X241002380Y-131214285D01*
X241954761Y-130738095D02*
X239954761Y-130738095D01*
X239954761Y-131500000D01*
X240050000Y-131690476D01*
X240145238Y-131785714D01*
X240335714Y-131880952D01*
X240621428Y-131880952D01*
X240811904Y-131785714D01*
X240907142Y-131690476D01*
X241002380Y-131500000D01*
X241002380Y-130738095D01*
X241954761Y-135404761D02*
X241002380Y-134738095D01*
X241954761Y-134261904D02*
X239954761Y-134261904D01*
X239954761Y-135023809D01*
X240050000Y-135214285D01*
X240145238Y-135309523D01*
X240335714Y-135404761D01*
X240621428Y-135404761D01*
X240811904Y-135309523D01*
X240907142Y-135214285D01*
X241002380Y-135023809D01*
X241002380Y-134261904D01*
X239954761Y-136261904D02*
X241573809Y-136261904D01*
X241764285Y-136357142D01*
X241859523Y-136452380D01*
X241954761Y-136642857D01*
X241954761Y-137023809D01*
X241859523Y-137214285D01*
X241764285Y-137309523D01*
X241573809Y-137404761D01*
X239954761Y-137404761D01*
X240907142Y-139023809D02*
X241002380Y-139309523D01*
X241097619Y-139404761D01*
X241288095Y-139500000D01*
X241573809Y-139500000D01*
X241764285Y-139404761D01*
X241859523Y-139309523D01*
X241954761Y-139119047D01*
X241954761Y-138357142D01*
X239954761Y-138357142D01*
X239954761Y-139023809D01*
X240050000Y-139214285D01*
X240145238Y-139309523D01*
X240335714Y-139404761D01*
X240526190Y-139404761D01*
X240716666Y-139309523D01*
X240811904Y-139214285D01*
X240907142Y-139023809D01*
X240907142Y-138357142D01*
X240907142Y-141023809D02*
X241002380Y-141309523D01*
X241097619Y-141404761D01*
X241288095Y-141500000D01*
X241573809Y-141500000D01*
X241764285Y-141404761D01*
X241859523Y-141309523D01*
X241954761Y-141119047D01*
X241954761Y-140357142D01*
X239954761Y-140357142D01*
X239954761Y-141023809D01*
X240050000Y-141214285D01*
X240145238Y-141309523D01*
X240335714Y-141404761D01*
X240526190Y-141404761D01*
X240716666Y-141309523D01*
X240811904Y-141214285D01*
X240907142Y-141023809D01*
X240907142Y-140357142D01*
X240907142Y-142357142D02*
X240907142Y-143023809D01*
X241954761Y-143309523D02*
X241954761Y-142357142D01*
X239954761Y-142357142D01*
X239954761Y-143309523D01*
X241954761Y-145309523D02*
X241002380Y-144642857D01*
X241954761Y-144166666D02*
X239954761Y-144166666D01*
X239954761Y-144928571D01*
X240050000Y-145119047D01*
X240145238Y-145214285D01*
X240335714Y-145309523D01*
X240621428Y-145309523D01*
X240811904Y-145214285D01*
X240907142Y-145119047D01*
X241002380Y-144928571D01*
X241002380Y-144166666D01*
X241954761Y-146166666D02*
X239954761Y-146166666D01*
X241954761Y-147309523D01*
X239954761Y-147309523D01*
X240907142Y-148261904D02*
X240907142Y-148928571D01*
X241954761Y-149214285D02*
X241954761Y-148261904D01*
X239954761Y-148261904D01*
X239954761Y-149214285D01*
X241764285Y-151214285D02*
X241859523Y-151119047D01*
X241954761Y-150833333D01*
X241954761Y-150642857D01*
X241859523Y-150357142D01*
X241669047Y-150166666D01*
X241478571Y-150071428D01*
X241097619Y-149976190D01*
X240811904Y-149976190D01*
X240430952Y-150071428D01*
X240240476Y-150166666D01*
X240050000Y-150357142D01*
X239954761Y-150642857D01*
X239954761Y-150833333D01*
X240050000Y-151119047D01*
X240145238Y-151214285D01*
X241954761Y-152071428D02*
X239954761Y-152071428D01*
X241954761Y-153214285D02*
X240811904Y-152357142D01*
X239954761Y-153214285D02*
X241097619Y-152071428D01*
X240907142Y-154071428D02*
X240907142Y-154738095D01*
X241954761Y-155023809D02*
X241954761Y-154071428D01*
X239954761Y-154071428D01*
X239954761Y-155023809D01*
X241954761Y-155880952D02*
X239954761Y-155880952D01*
X241954761Y-157023809D01*
X239954761Y-157023809D01*
X241859523Y-159404761D02*
X241954761Y-159690476D01*
X241954761Y-160166666D01*
X241859523Y-160357142D01*
X241764285Y-160452380D01*
X241573809Y-160547619D01*
X241383333Y-160547619D01*
X241192857Y-160452380D01*
X241097619Y-160357142D01*
X241002380Y-160166666D01*
X240907142Y-159785714D01*
X240811904Y-159595238D01*
X240716666Y-159500000D01*
X240526190Y-159404761D01*
X240335714Y-159404761D01*
X240145238Y-159500000D01*
X240050000Y-159595238D01*
X239954761Y-159785714D01*
X239954761Y-160261904D01*
X240050000Y-160547619D01*
X241954761Y-161404761D02*
X239954761Y-161404761D01*
X240050000Y-163404761D02*
X239954761Y-163214285D01*
X239954761Y-162928571D01*
X240050000Y-162642857D01*
X240240476Y-162452380D01*
X240430952Y-162357142D01*
X240811904Y-162261904D01*
X241097619Y-162261904D01*
X241478571Y-162357142D01*
X241669047Y-162452380D01*
X241859523Y-162642857D01*
X241954761Y-162928571D01*
X241954761Y-163119047D01*
X241859523Y-163404761D01*
X241764285Y-163500000D01*
X241097619Y-163500000D01*
X241097619Y-163119047D01*
X241954761Y-164357142D02*
X239954761Y-164357142D01*
X240907142Y-164357142D02*
X240907142Y-165500000D01*
X241954761Y-165500000D02*
X239954761Y-165500000D01*
X239954761Y-166166666D02*
X239954761Y-167309523D01*
X241954761Y-166738095D02*
X239954761Y-166738095D01*
X241859523Y-167880952D02*
X241954761Y-168166666D01*
X241954761Y-168642857D01*
X241859523Y-168833333D01*
X241764285Y-168928571D01*
X241573809Y-169023809D01*
X241383333Y-169023809D01*
X241192857Y-168928571D01*
X241097619Y-168833333D01*
X241002380Y-168642857D01*
X240907142Y-168261904D01*
X240811904Y-168071428D01*
X240716666Y-167976190D01*
X240526190Y-167880952D01*
X240335714Y-167880952D01*
X240145238Y-167976190D01*
X240050000Y-168071428D01*
X239954761Y-168261904D01*
X239954761Y-168738095D01*
X240050000Y-169023809D01*
X240907142Y-169880952D02*
X240907142Y-170547619D01*
X241954761Y-170833333D02*
X241954761Y-169880952D01*
X239954761Y-169880952D01*
X239954761Y-170833333D01*
X240907142Y-171690476D02*
X240907142Y-172357142D01*
X241954761Y-172642857D02*
X241954761Y-171690476D01*
X239954761Y-171690476D01*
X239954761Y-172642857D01*
X241954761Y-174642857D02*
X241002380Y-173976190D01*
X241954761Y-173500000D02*
X239954761Y-173500000D01*
X239954761Y-174261904D01*
X240050000Y-174452380D01*
X240145238Y-174547619D01*
X240335714Y-174642857D01*
X240621428Y-174642857D01*
X240811904Y-174547619D01*
X240907142Y-174452380D01*
X241002380Y-174261904D01*
X241002380Y-173500000D01*
X240907142Y-175500000D02*
X240907142Y-176166666D01*
X241954761Y-176452380D02*
X241954761Y-175500000D01*
X239954761Y-175500000D01*
X239954761Y-176452380D01*
X241954761Y-177309523D02*
X239954761Y-177309523D01*
X241954761Y-178452380D01*
X239954761Y-178452380D01*
X245254761Y-72547619D02*
X243254761Y-72547619D01*
X245254761Y-73690476D02*
X244111904Y-72833333D01*
X243254761Y-73690476D02*
X244397619Y-72547619D01*
X244207142Y-74547619D02*
X244207142Y-75214285D01*
X245254761Y-75500000D02*
X245254761Y-74547619D01*
X243254761Y-74547619D01*
X243254761Y-75500000D01*
X244207142Y-76357142D02*
X244207142Y-77023809D01*
X245254761Y-77309523D02*
X245254761Y-76357142D01*
X243254761Y-76357142D01*
X243254761Y-77309523D01*
X245254761Y-78166666D02*
X243254761Y-78166666D01*
X243254761Y-78928571D01*
X243350000Y-79119047D01*
X243445238Y-79214285D01*
X243635714Y-79309523D01*
X243921428Y-79309523D01*
X244111904Y-79214285D01*
X244207142Y-79119047D01*
X244302380Y-78928571D01*
X244302380Y-78166666D01*
X244207142Y-80166666D02*
X244207142Y-80833333D01*
X245254761Y-81119047D02*
X245254761Y-80166666D01*
X243254761Y-80166666D01*
X243254761Y-81119047D01*
X245254761Y-81976190D02*
X243254761Y-81976190D01*
X245254761Y-83119047D01*
X243254761Y-83119047D01*
X245254761Y-85595238D02*
X243254761Y-85595238D01*
X243254761Y-86071428D01*
X243350000Y-86357142D01*
X243540476Y-86547619D01*
X243730952Y-86642857D01*
X244111904Y-86738095D01*
X244397619Y-86738095D01*
X244778571Y-86642857D01*
X244969047Y-86547619D01*
X245159523Y-86357142D01*
X245254761Y-86071428D01*
X245254761Y-85595238D01*
X244683333Y-87500000D02*
X244683333Y-88452380D01*
X245254761Y-87309523D02*
X243254761Y-87976190D01*
X245254761Y-88642857D01*
X245159523Y-89214285D02*
X245254761Y-89500000D01*
X245254761Y-89976190D01*
X245159523Y-90166666D01*
X245064285Y-90261904D01*
X244873809Y-90357142D01*
X244683333Y-90357142D01*
X244492857Y-90261904D01*
X244397619Y-90166666D01*
X244302380Y-89976190D01*
X244207142Y-89595238D01*
X244111904Y-89404761D01*
X244016666Y-89309523D01*
X243826190Y-89214285D01*
X243635714Y-89214285D01*
X243445238Y-89309523D01*
X243350000Y-89404761D01*
X243254761Y-89595238D01*
X243254761Y-90071428D01*
X243350000Y-90357142D01*
X245064285Y-93880952D02*
X245159523Y-93785714D01*
X245254761Y-93500000D01*
X245254761Y-93309523D01*
X245159523Y-93023809D01*
X244969047Y-92833333D01*
X244778571Y-92738095D01*
X244397619Y-92642857D01*
X244111904Y-92642857D01*
X243730952Y-92738095D01*
X243540476Y-92833333D01*
X243350000Y-93023809D01*
X243254761Y-93309523D01*
X243254761Y-93500000D01*
X243350000Y-93785714D01*
X243445238Y-93880952D01*
X243254761Y-95119047D02*
X243254761Y-95500000D01*
X243350000Y-95690476D01*
X243540476Y-95880952D01*
X243921428Y-95976190D01*
X244588095Y-95976190D01*
X244969047Y-95880952D01*
X245159523Y-95690476D01*
X245254761Y-95500000D01*
X245254761Y-95119047D01*
X245159523Y-94928571D01*
X244969047Y-94738095D01*
X244588095Y-94642857D01*
X243921428Y-94642857D01*
X243540476Y-94738095D01*
X243350000Y-94928571D01*
X243254761Y-95119047D01*
X243254761Y-96547619D02*
X243254761Y-97690476D01*
X245254761Y-97119047D02*
X243254761Y-97119047D01*
X243254761Y-98071428D02*
X243254761Y-99214285D01*
X245254761Y-98642857D02*
X243254761Y-98642857D01*
X243254761Y-100261904D02*
X243254761Y-100642857D01*
X243350000Y-100833333D01*
X243540476Y-101023809D01*
X243921428Y-101119047D01*
X244588095Y-101119047D01*
X244969047Y-101023809D01*
X245159523Y-100833333D01*
X245254761Y-100642857D01*
X245254761Y-100261904D01*
X245159523Y-100071428D01*
X244969047Y-99880952D01*
X244588095Y-99785714D01*
X243921428Y-99785714D01*
X243540476Y-99880952D01*
X243350000Y-100071428D01*
X243254761Y-100261904D01*
X245254761Y-101976190D02*
X243254761Y-101976190D01*
X245254761Y-103119047D01*
X243254761Y-103119047D01*
X245254761Y-104071428D02*
X243254761Y-104071428D01*
X243254761Y-104833333D01*
X243350000Y-105023809D01*
X243445238Y-105119047D01*
X243635714Y-105214285D01*
X243921428Y-105214285D01*
X244111904Y-105119047D01*
X244207142Y-105023809D01*
X244302380Y-104833333D01*
X244302380Y-104071428D01*
X245254761Y-106071428D02*
X243254761Y-106071428D01*
X245064285Y-108166666D02*
X245159523Y-108071428D01*
X245254761Y-107785714D01*
X245254761Y-107595238D01*
X245159523Y-107309523D01*
X244969047Y-107119047D01*
X244778571Y-107023809D01*
X244397619Y-106928571D01*
X244111904Y-106928571D01*
X243730952Y-107023809D01*
X243540476Y-107119047D01*
X243350000Y-107309523D01*
X243254761Y-107595238D01*
X243254761Y-107785714D01*
X243350000Y-108071428D01*
X243445238Y-108166666D01*
X245254761Y-109023809D02*
X243254761Y-109023809D01*
X245254761Y-110166666D02*
X244111904Y-109309523D01*
X243254761Y-110166666D02*
X244397619Y-109023809D01*
X244207142Y-111023809D02*
X244207142Y-111690476D01*
X245254761Y-111976190D02*
X245254761Y-111023809D01*
X243254761Y-111023809D01*
X243254761Y-111976190D01*
X245254761Y-112833333D02*
X243254761Y-112833333D01*
X245254761Y-113976190D01*
X243254761Y-113976190D01*
X245254761Y-116452380D02*
X243254761Y-116452380D01*
X244207142Y-116452380D02*
X244207142Y-117595238D01*
X245254761Y-117595238D02*
X243254761Y-117595238D01*
X244683333Y-118452380D02*
X244683333Y-119404761D01*
X245254761Y-118261904D02*
X243254761Y-118928571D01*
X245254761Y-119595238D01*
X242588095Y-118547619D02*
X242683333Y-118642857D01*
X242778571Y-118547619D01*
X242683333Y-118452380D01*
X242588095Y-118547619D01*
X242778571Y-118547619D01*
X242588095Y-119309523D02*
X242683333Y-119404761D01*
X242778571Y-119309523D01*
X242683333Y-119214285D01*
X242588095Y-119309523D01*
X242778571Y-119309523D01*
X245254761Y-120261904D02*
X243254761Y-120261904D01*
X245254761Y-121404761D01*
X243254761Y-121404761D01*
X245254761Y-122357142D02*
X243254761Y-122357142D01*
X243254761Y-122833333D01*
X243350000Y-123119047D01*
X243540476Y-123309523D01*
X243730952Y-123404761D01*
X244111904Y-123500000D01*
X244397619Y-123500000D01*
X244778571Y-123404761D01*
X244969047Y-123309523D01*
X245159523Y-123119047D01*
X245254761Y-122833333D01*
X245254761Y-122357142D01*
X244207142Y-124357142D02*
X244207142Y-125023809D01*
X245254761Y-125309523D02*
X245254761Y-124357142D01*
X243254761Y-124357142D01*
X243254761Y-125309523D01*
X245254761Y-127309523D02*
X244302380Y-126642857D01*
X245254761Y-126166666D02*
X243254761Y-126166666D01*
X243254761Y-126928571D01*
X243350000Y-127119047D01*
X243445238Y-127214285D01*
X243635714Y-127309523D01*
X243921428Y-127309523D01*
X244111904Y-127214285D01*
X244207142Y-127119047D01*
X244302380Y-126928571D01*
X244302380Y-126166666D01*
X245254761Y-129690476D02*
X243254761Y-129690476D01*
X245254761Y-130642857D02*
X243254761Y-130642857D01*
X245254761Y-131785714D01*
X243254761Y-131785714D01*
X245254761Y-134261904D02*
X243254761Y-134261904D01*
X243254761Y-134738095D01*
X243350000Y-135023809D01*
X243540476Y-135214285D01*
X243730952Y-135309523D01*
X244111904Y-135404761D01*
X244397619Y-135404761D01*
X244778571Y-135309523D01*
X244969047Y-135214285D01*
X245159523Y-135023809D01*
X245254761Y-134738095D01*
X245254761Y-134261904D01*
X244683333Y-136166666D02*
X244683333Y-137119047D01*
X245254761Y-135976190D02*
X243254761Y-136642857D01*
X245254761Y-137309523D01*
X245159523Y-137880952D02*
X245254761Y-138166666D01*
X245254761Y-138642857D01*
X245159523Y-138833333D01*
X245064285Y-138928571D01*
X244873809Y-139023809D01*
X244683333Y-139023809D01*
X244492857Y-138928571D01*
X244397619Y-138833333D01*
X244302380Y-138642857D01*
X244207142Y-138261904D01*
X244111904Y-138071428D01*
X244016666Y-137976190D01*
X243826190Y-137880952D01*
X243635714Y-137880952D01*
X243445238Y-137976190D01*
X243350000Y-138071428D01*
X243254761Y-138261904D01*
X243254761Y-138738095D01*
X243350000Y-139023809D01*
X245254761Y-141404761D02*
X243254761Y-141404761D01*
X243254761Y-142166666D01*
X243350000Y-142357142D01*
X243445238Y-142452380D01*
X243635714Y-142547619D01*
X243921428Y-142547619D01*
X244111904Y-142452380D01*
X244207142Y-142357142D01*
X244302380Y-142166666D01*
X244302380Y-141404761D01*
X243254761Y-143785714D02*
X243254761Y-144166666D01*
X243350000Y-144357142D01*
X243540476Y-144547619D01*
X243921428Y-144642857D01*
X244588095Y-144642857D01*
X244969047Y-144547619D01*
X245159523Y-144357142D01*
X245254761Y-144166666D01*
X245254761Y-143785714D01*
X245159523Y-143595238D01*
X244969047Y-143404761D01*
X244588095Y-143309523D01*
X243921428Y-143309523D01*
X243540476Y-143404761D01*
X243350000Y-143595238D01*
X243254761Y-143785714D01*
X245064285Y-146642857D02*
X245159523Y-146547619D01*
X245254761Y-146261904D01*
X245254761Y-146071428D01*
X245159523Y-145785714D01*
X244969047Y-145595238D01*
X244778571Y-145500000D01*
X244397619Y-145404761D01*
X244111904Y-145404761D01*
X243730952Y-145500000D01*
X243540476Y-145595238D01*
X243350000Y-145785714D01*
X243254761Y-146071428D01*
X243254761Y-146261904D01*
X243350000Y-146547619D01*
X243445238Y-146642857D01*
X245254761Y-147500000D02*
X243254761Y-147500000D01*
X245254761Y-148642857D02*
X244111904Y-147785714D01*
X243254761Y-148642857D02*
X244397619Y-147500000D01*
X244207142Y-149500000D02*
X244207142Y-150166666D01*
X245254761Y-150452380D02*
X245254761Y-149500000D01*
X243254761Y-149500000D01*
X243254761Y-150452380D01*
X243254761Y-151023809D02*
X243254761Y-152166666D01*
X245254761Y-151595238D02*
X243254761Y-151595238D01*
X245159523Y-152738095D02*
X245254761Y-153023809D01*
X245254761Y-153500000D01*
X245159523Y-153690476D01*
X245064285Y-153785714D01*
X244873809Y-153880952D01*
X244683333Y-153880952D01*
X244492857Y-153785714D01*
X244397619Y-153690476D01*
X244302380Y-153500000D01*
X244207142Y-153119047D01*
X244111904Y-152928571D01*
X244016666Y-152833333D01*
X243826190Y-152738095D01*
X243635714Y-152738095D01*
X243445238Y-152833333D01*
X243350000Y-152928571D01*
X243254761Y-153119047D01*
X243254761Y-153595238D01*
X243350000Y-153880952D01*
X245254761Y-156261904D02*
X243254761Y-156261904D01*
X244683333Y-156928571D01*
X243254761Y-157595238D01*
X245254761Y-157595238D01*
X243254761Y-158547619D02*
X244873809Y-158547619D01*
X245064285Y-158642857D01*
X245159523Y-158738095D01*
X245254761Y-158928571D01*
X245254761Y-159309523D01*
X245159523Y-159500000D01*
X245064285Y-159595238D01*
X244873809Y-159690476D01*
X243254761Y-159690476D01*
X245159523Y-160547619D02*
X245254761Y-160833333D01*
X245254761Y-161309523D01*
X245159523Y-161500000D01*
X245064285Y-161595238D01*
X244873809Y-161690476D01*
X244683333Y-161690476D01*
X244492857Y-161595238D01*
X244397619Y-161500000D01*
X244302380Y-161309523D01*
X244207142Y-160928571D01*
X244111904Y-160738095D01*
X244016666Y-160642857D01*
X243826190Y-160547619D01*
X243635714Y-160547619D01*
X243445238Y-160642857D01*
X243350000Y-160738095D01*
X243254761Y-160928571D01*
X243254761Y-161404761D01*
X243350000Y-161690476D01*
X245159523Y-162452380D02*
X245254761Y-162738095D01*
X245254761Y-163214285D01*
X245159523Y-163404761D01*
X245064285Y-163500000D01*
X244873809Y-163595238D01*
X244683333Y-163595238D01*
X244492857Y-163500000D01*
X244397619Y-163404761D01*
X244302380Y-163214285D01*
X244207142Y-162833333D01*
X244111904Y-162642857D01*
X244016666Y-162547619D01*
X243826190Y-162452380D01*
X243635714Y-162452380D01*
X243445238Y-162547619D01*
X243350000Y-162642857D01*
X243254761Y-162833333D01*
X243254761Y-163309523D01*
X243350000Y-163595238D01*
X245064285Y-164452380D02*
X245159523Y-164547619D01*
X245254761Y-164452380D01*
X245159523Y-164357142D01*
X245064285Y-164452380D01*
X245254761Y-164452380D01*
X255154761Y-85976190D02*
X255154761Y-87309523D01*
X257154761Y-85976190D01*
X257154761Y-87309523D01*
X255154761Y-88452380D02*
X255154761Y-88833333D01*
X255250000Y-89023809D01*
X255440476Y-89214285D01*
X255821428Y-89309523D01*
X256488095Y-89309523D01*
X256869047Y-89214285D01*
X257059523Y-89023809D01*
X257154761Y-88833333D01*
X257154761Y-88452380D01*
X257059523Y-88261904D01*
X256869047Y-88071428D01*
X256488095Y-87976190D01*
X255821428Y-87976190D01*
X255440476Y-88071428D01*
X255250000Y-88261904D01*
X255154761Y-88452380D01*
X257154761Y-92833333D02*
X256202380Y-92166666D01*
X257154761Y-91690476D02*
X255154761Y-91690476D01*
X255154761Y-92452380D01*
X255250000Y-92642857D01*
X255345238Y-92738095D01*
X255535714Y-92833333D01*
X255821428Y-92833333D01*
X256011904Y-92738095D01*
X256107142Y-92642857D01*
X256202380Y-92452380D01*
X256202380Y-91690476D01*
X256107142Y-93690476D02*
X256107142Y-94357142D01*
X257154761Y-94642857D02*
X257154761Y-93690476D01*
X255154761Y-93690476D01*
X255154761Y-94642857D01*
X257154761Y-96452380D02*
X257154761Y-95500000D01*
X255154761Y-95500000D01*
X256583333Y-97023809D02*
X256583333Y-97976190D01*
X257154761Y-96833333D02*
X255154761Y-97500000D01*
X257154761Y-98166666D01*
X255154761Y-98642857D02*
X257154761Y-99976190D01*
X255154761Y-99976190D02*
X257154761Y-98642857D01*
X256107142Y-100738095D02*
X256107142Y-101404761D01*
X257154761Y-101690476D02*
X257154761Y-100738095D01*
X255154761Y-100738095D01*
X255154761Y-101690476D01*
X257154761Y-102547619D02*
X255154761Y-102547619D01*
X257154761Y-103690476D01*
X255154761Y-103690476D01*
X255154761Y-106166666D02*
X256773809Y-106166666D01*
X256964285Y-106261904D01*
X257059523Y-106357142D01*
X257154761Y-106547619D01*
X257154761Y-106928571D01*
X257059523Y-107119047D01*
X256964285Y-107214285D01*
X256773809Y-107309523D01*
X255154761Y-107309523D01*
X257154761Y-108261904D02*
X255154761Y-108261904D01*
X257154761Y-109404761D01*
X255154761Y-109404761D01*
X257154761Y-110357142D02*
X255154761Y-110357142D01*
X255154761Y-110833333D01*
X255250000Y-111119047D01*
X255440476Y-111309523D01*
X255630952Y-111404761D01*
X256011904Y-111500000D01*
X256297619Y-111500000D01*
X256678571Y-111404761D01*
X256869047Y-111309523D01*
X257059523Y-111119047D01*
X257154761Y-110833333D01*
X257154761Y-110357142D01*
X255154761Y-113690476D02*
X257154761Y-114166666D01*
X255726190Y-114547619D01*
X257154761Y-114928571D01*
X255154761Y-115404761D01*
X256583333Y-116071428D02*
X256583333Y-117023809D01*
X257154761Y-115880952D02*
X255154761Y-116547619D01*
X257154761Y-117214285D01*
X255154761Y-117595238D02*
X255154761Y-118738095D01*
X257154761Y-118166666D02*
X255154761Y-118166666D01*
X257059523Y-119309523D02*
X257154761Y-119595238D01*
X257154761Y-120071428D01*
X257059523Y-120261904D01*
X256964285Y-120357142D01*
X256773809Y-120452380D01*
X256583333Y-120452380D01*
X256392857Y-120357142D01*
X256297619Y-120261904D01*
X256202380Y-120071428D01*
X256107142Y-119690476D01*
X256011904Y-119500000D01*
X255916666Y-119404761D01*
X255726190Y-119309523D01*
X255535714Y-119309523D01*
X255345238Y-119404761D01*
X255250000Y-119500000D01*
X255154761Y-119690476D01*
X255154761Y-120166666D01*
X255250000Y-120452380D01*
X256964285Y-122452380D02*
X257059523Y-122357142D01*
X257154761Y-122071428D01*
X257154761Y-121880952D01*
X257059523Y-121595238D01*
X256869047Y-121404761D01*
X256678571Y-121309523D01*
X256297619Y-121214285D01*
X256011904Y-121214285D01*
X255630952Y-121309523D01*
X255440476Y-121404761D01*
X255250000Y-121595238D01*
X255154761Y-121880952D01*
X255154761Y-122071428D01*
X255250000Y-122357142D01*
X255345238Y-122452380D01*
X257154761Y-123309523D02*
X255154761Y-123309523D01*
X256107142Y-123309523D02*
X256107142Y-124452380D01*
X257154761Y-124452380D02*
X255154761Y-124452380D01*
X256107142Y-125404761D02*
X256107142Y-126071428D01*
X257154761Y-126357142D02*
X257154761Y-125404761D01*
X255154761Y-125404761D01*
X255154761Y-126357142D01*
X257154761Y-127214285D02*
X255154761Y-127214285D01*
X257154761Y-128357142D01*
X255154761Y-128357142D01*
X257154761Y-130833333D02*
X255154761Y-130833333D01*
X255154761Y-131309523D01*
X255250000Y-131595238D01*
X255440476Y-131785714D01*
X255630952Y-131880952D01*
X256011904Y-131976190D01*
X256297619Y-131976190D01*
X256678571Y-131880952D01*
X256869047Y-131785714D01*
X257059523Y-131595238D01*
X257154761Y-131309523D01*
X257154761Y-130833333D01*
X256107142Y-132833333D02*
X256107142Y-133500000D01*
X257154761Y-133785714D02*
X257154761Y-132833333D01*
X255154761Y-132833333D01*
X255154761Y-133785714D01*
X257154761Y-135785714D02*
X256202380Y-135119047D01*
X257154761Y-134642857D02*
X255154761Y-134642857D01*
X255154761Y-135404761D01*
X255250000Y-135595238D01*
X255345238Y-135690476D01*
X255535714Y-135785714D01*
X255821428Y-135785714D01*
X256011904Y-135690476D01*
X256107142Y-135595238D01*
X256202380Y-135404761D01*
X256202380Y-134642857D01*
X256107142Y-138833333D02*
X256202380Y-139119047D01*
X256297619Y-139214285D01*
X256488095Y-139309523D01*
X256773809Y-139309523D01*
X256964285Y-139214285D01*
X257059523Y-139119047D01*
X257154761Y-138928571D01*
X257154761Y-138166666D01*
X255154761Y-138166666D01*
X255154761Y-138833333D01*
X255250000Y-139023809D01*
X255345238Y-139119047D01*
X255535714Y-139214285D01*
X255726190Y-139214285D01*
X255916666Y-139119047D01*
X256011904Y-139023809D01*
X256107142Y-138833333D01*
X256107142Y-138166666D01*
X257154761Y-141119047D02*
X257154761Y-140166666D01*
X255154761Y-140166666D01*
X257154761Y-141785714D02*
X255154761Y-141785714D01*
X257154761Y-142738095D02*
X255154761Y-142738095D01*
X257154761Y-143880952D01*
X255154761Y-143880952D01*
X257154761Y-144833333D02*
X255154761Y-144833333D01*
X257154761Y-145976190D02*
X256011904Y-145119047D01*
X255154761Y-145976190D02*
X256297619Y-144833333D01*
X256107142Y-146833333D02*
X256107142Y-147500000D01*
X257154761Y-147785714D02*
X257154761Y-146833333D01*
X255154761Y-146833333D01*
X255154761Y-147785714D01*
X257154761Y-148642857D02*
X255154761Y-148642857D01*
X257154761Y-149785714D01*
X255154761Y-149785714D01*
X257154761Y-151690476D02*
X257154761Y-150738095D01*
X255154761Y-150738095D01*
X257154761Y-152357142D02*
X255154761Y-152357142D01*
X256964285Y-154452380D02*
X257059523Y-154357142D01*
X257154761Y-154071428D01*
X257154761Y-153880952D01*
X257059523Y-153595238D01*
X256869047Y-153404761D01*
X256678571Y-153309523D01*
X256297619Y-153214285D01*
X256011904Y-153214285D01*
X255630952Y-153309523D01*
X255440476Y-153404761D01*
X255250000Y-153595238D01*
X255154761Y-153880952D01*
X255154761Y-154071428D01*
X255250000Y-154357142D01*
X255345238Y-154452380D01*
X257154761Y-155309523D02*
X255154761Y-155309523D01*
X256107142Y-155309523D02*
X256107142Y-156452380D01*
X257154761Y-156452380D02*
X255154761Y-156452380D01*
X255154761Y-157119047D02*
X255154761Y-158261904D01*
X257154761Y-157690476D02*
X255154761Y-157690476D01*
X256107142Y-158928571D02*
X256107142Y-159595238D01*
X257154761Y-159880952D02*
X257154761Y-158928571D01*
X255154761Y-158928571D01*
X255154761Y-159880952D01*
X257154761Y-160738095D02*
X255154761Y-160738095D01*
X257154761Y-161880952D01*
X255154761Y-161880952D01*
X256964285Y-162833333D02*
X257059523Y-162928571D01*
X257154761Y-162833333D01*
X257059523Y-162738095D01*
X256964285Y-162833333D01*
X257154761Y-162833333D01*
D11*
G36*
X229000000Y-189904047D02*
G01*
X246770000Y-189904047D01*
X246770000Y-175560551D01*
X246797340Y-175838137D01*
X246925139Y-176259436D01*
X247132675Y-176647707D01*
X247411971Y-176988030D01*
X247752294Y-177267326D01*
X248140565Y-177474862D01*
X248561864Y-177602661D01*
X249000000Y-177645814D01*
X249438137Y-177602661D01*
X249859436Y-177474862D01*
X250247707Y-177267326D01*
X250588030Y-176988030D01*
X250867326Y-176647707D01*
X251074862Y-176259436D01*
X251202661Y-175838137D01*
X251235000Y-175509796D01*
X251235000Y-84905476D01*
X254100000Y-84905476D01*
X254100000Y-164094524D01*
X258670000Y-164094524D01*
X258670000Y-118779872D01*
X259765000Y-118779872D01*
X259765000Y-119220128D01*
X259850890Y-119651925D01*
X260019369Y-120058669D01*
X260263962Y-120424729D01*
X260575271Y-120736038D01*
X260941331Y-120980631D01*
X261348075Y-121149110D01*
X261779872Y-121235000D01*
X262220128Y-121235000D01*
X262651925Y-121149110D01*
X263058669Y-120980631D01*
X263424729Y-120736038D01*
X263736038Y-120424729D01*
X263980631Y-120058669D01*
X264149110Y-119651925D01*
X264235000Y-119220128D01*
X264235000Y-118779872D01*
X264149110Y-118348075D01*
X263980631Y-117941331D01*
X263736038Y-117575271D01*
X263424729Y-117263962D01*
X263058669Y-117019369D01*
X262651925Y-116850890D01*
X262220128Y-116765000D01*
X261779872Y-116765000D01*
X261348075Y-116850890D01*
X260941331Y-117019369D01*
X260575271Y-117263962D01*
X260263962Y-117575271D01*
X260019369Y-117941331D01*
X259850890Y-118348075D01*
X259765000Y-118779872D01*
X258670000Y-118779872D01*
X258670000Y-84905476D01*
X254100000Y-84905476D01*
X251235000Y-84905476D01*
X251235000Y-62490205D01*
X271765000Y-62490205D01*
X271765001Y-175509796D01*
X271797340Y-175838137D01*
X271925139Y-176259436D01*
X272132675Y-176647707D01*
X272411971Y-176988030D01*
X272752294Y-177267326D01*
X273140565Y-177474862D01*
X273561864Y-177602661D01*
X274000000Y-177645814D01*
X274438137Y-177602661D01*
X274859436Y-177474862D01*
X275247707Y-177267326D01*
X275588030Y-176988030D01*
X275867326Y-176647707D01*
X276074862Y-176259436D01*
X276202661Y-175838137D01*
X276235000Y-175509796D01*
X276235000Y-118779872D01*
X284765000Y-118779872D01*
X284765000Y-119220128D01*
X284850890Y-119651925D01*
X285019369Y-120058669D01*
X285263962Y-120424729D01*
X285575271Y-120736038D01*
X285941331Y-120980631D01*
X286348075Y-121149110D01*
X286779872Y-121235000D01*
X287220128Y-121235000D01*
X287651925Y-121149110D01*
X288058669Y-120980631D01*
X288424729Y-120736038D01*
X288736038Y-120424729D01*
X288980631Y-120058669D01*
X289149110Y-119651925D01*
X289235000Y-119220128D01*
X289235000Y-118779872D01*
X289149110Y-118348075D01*
X288980631Y-117941331D01*
X288736038Y-117575271D01*
X288424729Y-117263962D01*
X288058669Y-117019369D01*
X287651925Y-116850890D01*
X287220128Y-116765000D01*
X286779872Y-116765000D01*
X286348075Y-116850890D01*
X285941331Y-117019369D01*
X285575271Y-117263962D01*
X285263962Y-117575271D01*
X285019369Y-117941331D01*
X284850890Y-118348075D01*
X284765000Y-118779872D01*
X276235000Y-118779872D01*
X276235000Y-62490205D01*
X296765000Y-62490205D01*
X296765001Y-175509796D01*
X296797340Y-175838137D01*
X296925139Y-176259436D01*
X297132675Y-176647707D01*
X297411971Y-176988030D01*
X297752294Y-177267326D01*
X298140565Y-177474862D01*
X298561864Y-177602661D01*
X299000000Y-177645814D01*
X299438137Y-177602661D01*
X299859436Y-177474862D01*
X300247707Y-177267326D01*
X300588030Y-176988030D01*
X300867326Y-176647707D01*
X301074862Y-176259436D01*
X301202661Y-175838137D01*
X301235000Y-175509796D01*
X301235000Y-62490204D01*
X301202661Y-62161863D01*
X301074862Y-61740564D01*
X300867326Y-61352293D01*
X300588030Y-61011970D01*
X300247707Y-60732674D01*
X299859435Y-60525138D01*
X299438136Y-60397339D01*
X299000000Y-60354186D01*
X298561863Y-60397339D01*
X298140564Y-60525138D01*
X297752293Y-60732674D01*
X297411970Y-61011970D01*
X297132674Y-61352293D01*
X296925138Y-61740565D01*
X296797339Y-62161864D01*
X296765000Y-62490205D01*
X276235000Y-62490205D01*
X276235000Y-62490204D01*
X276202661Y-62161863D01*
X276074862Y-61740564D01*
X275867326Y-61352293D01*
X275588030Y-61011970D01*
X275247707Y-60732674D01*
X274859435Y-60525138D01*
X274438136Y-60397339D01*
X274000000Y-60354186D01*
X273561863Y-60397339D01*
X273140564Y-60525138D01*
X272752293Y-60732674D01*
X272411970Y-61011970D01*
X272132674Y-61352293D01*
X271925138Y-61740565D01*
X271797339Y-62161864D01*
X271765000Y-62490205D01*
X251235000Y-62490205D01*
X251235000Y-62490204D01*
X251202661Y-62161863D01*
X251074862Y-61740564D01*
X250867326Y-61352293D01*
X250588030Y-61011970D01*
X250247707Y-60732674D01*
X249859435Y-60525138D01*
X249438136Y-60397339D01*
X249000000Y-60354186D01*
X248561863Y-60397339D01*
X248140564Y-60525138D01*
X247752293Y-60732674D01*
X247411970Y-61011970D01*
X247132674Y-61352293D01*
X246925138Y-61740565D01*
X246797339Y-62161864D01*
X246770000Y-62439440D01*
X246770000Y-47660000D01*
X307873000Y-47660000D01*
X307873000Y-49765000D01*
X307779872Y-49765000D01*
X307348075Y-49850890D01*
X306941331Y-50019369D01*
X306575271Y-50263962D01*
X306263962Y-50575271D01*
X306019369Y-50941331D01*
X305850890Y-51348075D01*
X305765000Y-51779872D01*
X305765000Y-52220128D01*
X305850890Y-52651925D01*
X306019369Y-53058669D01*
X306263962Y-53424729D01*
X306575271Y-53736038D01*
X306941331Y-53980631D01*
X307348075Y-54149110D01*
X307779872Y-54235000D01*
X308220128Y-54235000D01*
X308651925Y-54149110D01*
X309058669Y-53980631D01*
X309424729Y-53736038D01*
X309736038Y-53424729D01*
X309980631Y-53058669D01*
X310149110Y-52651925D01*
X310235000Y-52220128D01*
X310235000Y-52127000D01*
X312340001Y-52127000D01*
X312340000Y-185873000D01*
X310235000Y-185873000D01*
X310235000Y-185779872D01*
X310149110Y-185348075D01*
X309980631Y-184941331D01*
X309736038Y-184575271D01*
X309424729Y-184263962D01*
X309058669Y-184019369D01*
X308651925Y-183850890D01*
X308220128Y-183765000D01*
X307779872Y-183765000D01*
X307348075Y-183850890D01*
X306941331Y-184019369D01*
X306575271Y-184263962D01*
X306263962Y-184575271D01*
X306019369Y-184941331D01*
X305850890Y-185348075D01*
X305765000Y-185779872D01*
X305765000Y-186220128D01*
X305850890Y-186651925D01*
X306019369Y-187058669D01*
X306263962Y-187424729D01*
X306575271Y-187736038D01*
X306941331Y-187980631D01*
X307348075Y-188149110D01*
X307779872Y-188235000D01*
X307873000Y-188235000D01*
X307873000Y-190340000D01*
X225127000Y-190340000D01*
X225127000Y-188235000D01*
X225220128Y-188235000D01*
X225651925Y-188149110D01*
X226058669Y-187980631D01*
X226424729Y-187736038D01*
X226736038Y-187424729D01*
X226980631Y-187058669D01*
X227149110Y-186651925D01*
X227235000Y-186220128D01*
X227235000Y-185779872D01*
X227149110Y-185348075D01*
X226980631Y-184941331D01*
X226736038Y-184575271D01*
X226424729Y-184263962D01*
X226058669Y-184019369D01*
X225651925Y-183850890D01*
X225220128Y-183765000D01*
X224779872Y-183765000D01*
X224348075Y-183850890D01*
X223941331Y-184019369D01*
X223575271Y-184263962D01*
X223263962Y-184575271D01*
X223019369Y-184941331D01*
X222850890Y-185348075D01*
X222765000Y-185779872D01*
X222765000Y-185873000D01*
X220660000Y-185873000D01*
X220660000Y-52127000D01*
X222765000Y-52127000D01*
X222765000Y-52220128D01*
X222850890Y-52651925D01*
X223019369Y-53058669D01*
X223263962Y-53424729D01*
X223575271Y-53736038D01*
X223941331Y-53980631D01*
X224348075Y-54149110D01*
X224779872Y-54235000D01*
X225220128Y-54235000D01*
X225651925Y-54149110D01*
X226058669Y-53980631D01*
X226424729Y-53736038D01*
X226736038Y-53424729D01*
X226980631Y-53058669D01*
X227149110Y-52651925D01*
X227235000Y-52220128D01*
X227235000Y-51779872D01*
X227149110Y-51348075D01*
X226980631Y-50941331D01*
X226736038Y-50575271D01*
X226424729Y-50263962D01*
X226058669Y-50019369D01*
X225651925Y-49850890D01*
X225220128Y-49765000D01*
X225127000Y-49765000D01*
X225127000Y-47660000D01*
X229000000Y-47660000D01*
X229000000Y-189904047D01*
G37*
X229000000Y-189904047D02*
X246770000Y-189904047D01*
X246770000Y-175560551D01*
X246797340Y-175838137D01*
X246925139Y-176259436D01*
X247132675Y-176647707D01*
X247411971Y-176988030D01*
X247752294Y-177267326D01*
X248140565Y-177474862D01*
X248561864Y-177602661D01*
X249000000Y-177645814D01*
X249438137Y-177602661D01*
X249859436Y-177474862D01*
X250247707Y-177267326D01*
X250588030Y-176988030D01*
X250867326Y-176647707D01*
X251074862Y-176259436D01*
X251202661Y-175838137D01*
X251235000Y-175509796D01*
X251235000Y-84905476D01*
X254100000Y-84905476D01*
X254100000Y-164094524D01*
X258670000Y-164094524D01*
X258670000Y-118779872D01*
X259765000Y-118779872D01*
X259765000Y-119220128D01*
X259850890Y-119651925D01*
X260019369Y-120058669D01*
X260263962Y-120424729D01*
X260575271Y-120736038D01*
X260941331Y-120980631D01*
X261348075Y-121149110D01*
X261779872Y-121235000D01*
X262220128Y-121235000D01*
X262651925Y-121149110D01*
X263058669Y-120980631D01*
X263424729Y-120736038D01*
X263736038Y-120424729D01*
X263980631Y-120058669D01*
X264149110Y-119651925D01*
X264235000Y-119220128D01*
X264235000Y-118779872D01*
X264149110Y-118348075D01*
X263980631Y-117941331D01*
X263736038Y-117575271D01*
X263424729Y-117263962D01*
X263058669Y-117019369D01*
X262651925Y-116850890D01*
X262220128Y-116765000D01*
X261779872Y-116765000D01*
X261348075Y-116850890D01*
X260941331Y-117019369D01*
X260575271Y-117263962D01*
X260263962Y-117575271D01*
X260019369Y-117941331D01*
X259850890Y-118348075D01*
X259765000Y-118779872D01*
X258670000Y-118779872D01*
X258670000Y-84905476D01*
X254100000Y-84905476D01*
X251235000Y-84905476D01*
X251235000Y-62490205D01*
X271765000Y-62490205D01*
X271765001Y-175509796D01*
X271797340Y-175838137D01*
X271925139Y-176259436D01*
X272132675Y-176647707D01*
X272411971Y-176988030D01*
X272752294Y-177267326D01*
X273140565Y-177474862D01*
X273561864Y-177602661D01*
X274000000Y-177645814D01*
X274438137Y-177602661D01*
X274859436Y-177474862D01*
X275247707Y-177267326D01*
X275588030Y-176988030D01*
X275867326Y-176647707D01*
X276074862Y-176259436D01*
X276202661Y-175838137D01*
X276235000Y-175509796D01*
X276235000Y-118779872D01*
X284765000Y-118779872D01*
X284765000Y-119220128D01*
X284850890Y-119651925D01*
X285019369Y-120058669D01*
X285263962Y-120424729D01*
X285575271Y-120736038D01*
X285941331Y-120980631D01*
X286348075Y-121149110D01*
X286779872Y-121235000D01*
X287220128Y-121235000D01*
X287651925Y-121149110D01*
X288058669Y-120980631D01*
X288424729Y-120736038D01*
X288736038Y-120424729D01*
X288980631Y-120058669D01*
X289149110Y-119651925D01*
X289235000Y-119220128D01*
X289235000Y-118779872D01*
X289149110Y-118348075D01*
X288980631Y-117941331D01*
X288736038Y-117575271D01*
X288424729Y-117263962D01*
X288058669Y-117019369D01*
X287651925Y-116850890D01*
X287220128Y-116765000D01*
X286779872Y-116765000D01*
X286348075Y-116850890D01*
X285941331Y-117019369D01*
X285575271Y-117263962D01*
X285263962Y-117575271D01*
X285019369Y-117941331D01*
X284850890Y-118348075D01*
X284765000Y-118779872D01*
X276235000Y-118779872D01*
X276235000Y-62490205D01*
X296765000Y-62490205D01*
X296765001Y-175509796D01*
X296797340Y-175838137D01*
X296925139Y-176259436D01*
X297132675Y-176647707D01*
X297411971Y-176988030D01*
X297752294Y-177267326D01*
X298140565Y-177474862D01*
X298561864Y-177602661D01*
X299000000Y-177645814D01*
X299438137Y-177602661D01*
X299859436Y-177474862D01*
X300247707Y-177267326D01*
X300588030Y-176988030D01*
X300867326Y-176647707D01*
X301074862Y-176259436D01*
X301202661Y-175838137D01*
X301235000Y-175509796D01*
X301235000Y-62490204D01*
X301202661Y-62161863D01*
X301074862Y-61740564D01*
X300867326Y-61352293D01*
X300588030Y-61011970D01*
X300247707Y-60732674D01*
X299859435Y-60525138D01*
X299438136Y-60397339D01*
X299000000Y-60354186D01*
X298561863Y-60397339D01*
X298140564Y-60525138D01*
X297752293Y-60732674D01*
X297411970Y-61011970D01*
X297132674Y-61352293D01*
X296925138Y-61740565D01*
X296797339Y-62161864D01*
X296765000Y-62490205D01*
X276235000Y-62490205D01*
X276235000Y-62490204D01*
X276202661Y-62161863D01*
X276074862Y-61740564D01*
X275867326Y-61352293D01*
X275588030Y-61011970D01*
X275247707Y-60732674D01*
X274859435Y-60525138D01*
X274438136Y-60397339D01*
X274000000Y-60354186D01*
X273561863Y-60397339D01*
X273140564Y-60525138D01*
X272752293Y-60732674D01*
X272411970Y-61011970D01*
X272132674Y-61352293D01*
X271925138Y-61740565D01*
X271797339Y-62161864D01*
X271765000Y-62490205D01*
X251235000Y-62490205D01*
X251235000Y-62490204D01*
X251202661Y-62161863D01*
X251074862Y-61740564D01*
X250867326Y-61352293D01*
X250588030Y-61011970D01*
X250247707Y-60732674D01*
X249859435Y-60525138D01*
X249438136Y-60397339D01*
X249000000Y-60354186D01*
X248561863Y-60397339D01*
X248140564Y-60525138D01*
X247752293Y-60732674D01*
X247411970Y-61011970D01*
X247132674Y-61352293D01*
X246925138Y-61740565D01*
X246797339Y-62161864D01*
X246770000Y-62439440D01*
X246770000Y-47660000D01*
X307873000Y-47660000D01*
X307873000Y-49765000D01*
X307779872Y-49765000D01*
X307348075Y-49850890D01*
X306941331Y-50019369D01*
X306575271Y-50263962D01*
X306263962Y-50575271D01*
X306019369Y-50941331D01*
X305850890Y-51348075D01*
X305765000Y-51779872D01*
X305765000Y-52220128D01*
X305850890Y-52651925D01*
X306019369Y-53058669D01*
X306263962Y-53424729D01*
X306575271Y-53736038D01*
X306941331Y-53980631D01*
X307348075Y-54149110D01*
X307779872Y-54235000D01*
X308220128Y-54235000D01*
X308651925Y-54149110D01*
X309058669Y-53980631D01*
X309424729Y-53736038D01*
X309736038Y-53424729D01*
X309980631Y-53058669D01*
X310149110Y-52651925D01*
X310235000Y-52220128D01*
X310235000Y-52127000D01*
X312340001Y-52127000D01*
X312340000Y-185873000D01*
X310235000Y-185873000D01*
X310235000Y-185779872D01*
X310149110Y-185348075D01*
X309980631Y-184941331D01*
X309736038Y-184575271D01*
X309424729Y-184263962D01*
X309058669Y-184019369D01*
X308651925Y-183850890D01*
X308220128Y-183765000D01*
X307779872Y-183765000D01*
X307348075Y-183850890D01*
X306941331Y-184019369D01*
X306575271Y-184263962D01*
X306263962Y-184575271D01*
X306019369Y-184941331D01*
X305850890Y-185348075D01*
X305765000Y-185779872D01*
X305765000Y-186220128D01*
X305850890Y-186651925D01*
X306019369Y-187058669D01*
X306263962Y-187424729D01*
X306575271Y-187736038D01*
X306941331Y-187980631D01*
X307348075Y-188149110D01*
X307779872Y-188235000D01*
X307873000Y-188235000D01*
X307873000Y-190340000D01*
X225127000Y-190340000D01*
X225127000Y-188235000D01*
X225220128Y-188235000D01*
X225651925Y-188149110D01*
X226058669Y-187980631D01*
X226424729Y-187736038D01*
X226736038Y-187424729D01*
X226980631Y-187058669D01*
X227149110Y-186651925D01*
X227235000Y-186220128D01*
X227235000Y-185779872D01*
X227149110Y-185348075D01*
X226980631Y-184941331D01*
X226736038Y-184575271D01*
X226424729Y-184263962D01*
X226058669Y-184019369D01*
X225651925Y-183850890D01*
X225220128Y-183765000D01*
X224779872Y-183765000D01*
X224348075Y-183850890D01*
X223941331Y-184019369D01*
X223575271Y-184263962D01*
X223263962Y-184575271D01*
X223019369Y-184941331D01*
X222850890Y-185348075D01*
X222765000Y-185779872D01*
X222765000Y-185873000D01*
X220660000Y-185873000D01*
X220660000Y-52127000D01*
X222765000Y-52127000D01*
X222765000Y-52220128D01*
X222850890Y-52651925D01*
X223019369Y-53058669D01*
X223263962Y-53424729D01*
X223575271Y-53736038D01*
X223941331Y-53980631D01*
X224348075Y-54149110D01*
X224779872Y-54235000D01*
X225220128Y-54235000D01*
X225651925Y-54149110D01*
X226058669Y-53980631D01*
X226424729Y-53736038D01*
X226736038Y-53424729D01*
X226980631Y-53058669D01*
X227149110Y-52651925D01*
X227235000Y-52220128D01*
X227235000Y-51779872D01*
X227149110Y-51348075D01*
X226980631Y-50941331D01*
X226736038Y-50575271D01*
X226424729Y-50263962D01*
X226058669Y-50019369D01*
X225651925Y-49850890D01*
X225220128Y-49765000D01*
X225127000Y-49765000D01*
X225127000Y-47660000D01*
X229000000Y-47660000D01*
X229000000Y-189904047D01*
M02*
