G04 #@! TF.GenerationSoftware,KiCad,Pcbnew,(5.1.5)-3*
G04 #@! TF.CreationDate,2020-02-27T12:36:48+00:00*
G04 #@! TF.ProjectId,midi fader alps 100mm,6d696469-2066-4616-9465-7220616c7073,rev?*
G04 #@! TF.SameCoordinates,Original*
G04 #@! TF.FileFunction,Soldermask,Top*
G04 #@! TF.FilePolarity,Negative*
%FSLAX46Y46*%
G04 Gerber Fmt 4.6, Leading zero omitted, Abs format (unit mm)*
G04 Created by KiCad (PCBNEW (5.1.5)-3) date 2020-02-27 12:36:48*
%MOMM*%
%LPD*%
G04 APERTURE LIST*
%ADD10C,0.100000*%
G04 APERTURE END LIST*
D10*
G36*
X225375256Y-184391298D02*
G01*
X225481579Y-184412447D01*
X225782042Y-184536903D01*
X226052451Y-184717585D01*
X226282415Y-184947549D01*
X226463097Y-185217958D01*
X226587553Y-185518421D01*
X226651000Y-185837391D01*
X226651000Y-186162609D01*
X226587553Y-186481579D01*
X226463097Y-186782042D01*
X226282415Y-187052451D01*
X226052451Y-187282415D01*
X225782042Y-187463097D01*
X225481579Y-187587553D01*
X225375256Y-187608702D01*
X225162611Y-187651000D01*
X224837389Y-187651000D01*
X224624744Y-187608702D01*
X224518421Y-187587553D01*
X224217958Y-187463097D01*
X223947549Y-187282415D01*
X223717585Y-187052451D01*
X223536903Y-186782042D01*
X223412447Y-186481579D01*
X223349000Y-186162609D01*
X223349000Y-185837391D01*
X223412447Y-185518421D01*
X223536903Y-185217958D01*
X223717585Y-184947549D01*
X223947549Y-184717585D01*
X224217958Y-184536903D01*
X224518421Y-184412447D01*
X224624744Y-184391298D01*
X224837389Y-184349000D01*
X225162611Y-184349000D01*
X225375256Y-184391298D01*
G37*
G36*
X308375256Y-184391298D02*
G01*
X308481579Y-184412447D01*
X308782042Y-184536903D01*
X309052451Y-184717585D01*
X309282415Y-184947549D01*
X309463097Y-185217958D01*
X309587553Y-185518421D01*
X309651000Y-185837391D01*
X309651000Y-186162609D01*
X309587553Y-186481579D01*
X309463097Y-186782042D01*
X309282415Y-187052451D01*
X309052451Y-187282415D01*
X308782042Y-187463097D01*
X308481579Y-187587553D01*
X308375256Y-187608702D01*
X308162611Y-187651000D01*
X307837389Y-187651000D01*
X307624744Y-187608702D01*
X307518421Y-187587553D01*
X307217958Y-187463097D01*
X306947549Y-187282415D01*
X306717585Y-187052451D01*
X306536903Y-186782042D01*
X306412447Y-186481579D01*
X306349000Y-186162609D01*
X306349000Y-185837391D01*
X306412447Y-185518421D01*
X306536903Y-185217958D01*
X306717585Y-184947549D01*
X306947549Y-184717585D01*
X307217958Y-184536903D01*
X307518421Y-184412447D01*
X307624744Y-184391298D01*
X307837389Y-184349000D01*
X308162611Y-184349000D01*
X308375256Y-184391298D01*
G37*
G36*
X274323650Y-60972888D02*
G01*
X274634869Y-61067296D01*
X274921682Y-61220601D01*
X274921684Y-61220602D01*
X274921683Y-61220602D01*
X275173082Y-61426918D01*
X275379398Y-61678316D01*
X275379401Y-61678320D01*
X275532704Y-61965130D01*
X275627112Y-62276349D01*
X275651000Y-62518893D01*
X275651000Y-175481107D01*
X275627112Y-175723651D01*
X275532704Y-176034870D01*
X275379401Y-176321680D01*
X275379399Y-176321683D01*
X275379398Y-176321684D01*
X275173082Y-176573082D01*
X274921684Y-176779398D01*
X274921680Y-176779401D01*
X274634870Y-176932704D01*
X274323651Y-177027112D01*
X274000000Y-177058988D01*
X273676350Y-177027112D01*
X273365131Y-176932704D01*
X273078321Y-176779401D01*
X273078317Y-176779398D01*
X272826919Y-176573082D01*
X272620603Y-176321684D01*
X272620602Y-176321683D01*
X272620600Y-176321680D01*
X272467297Y-176034870D01*
X272372889Y-175723651D01*
X272349001Y-175481107D01*
X272349000Y-62518894D01*
X272372888Y-62276350D01*
X272467296Y-61965131D01*
X272620601Y-61678318D01*
X272826916Y-61426921D01*
X272826918Y-61426918D01*
X273078316Y-61220602D01*
X273078317Y-61220601D01*
X273078320Y-61220599D01*
X273365130Y-61067296D01*
X273676349Y-60972888D01*
X274000000Y-60941012D01*
X274323650Y-60972888D01*
G37*
G36*
X299323650Y-60972888D02*
G01*
X299634869Y-61067296D01*
X299921682Y-61220601D01*
X299921684Y-61220602D01*
X299921683Y-61220602D01*
X300173082Y-61426918D01*
X300379398Y-61678316D01*
X300379401Y-61678320D01*
X300532704Y-61965130D01*
X300627112Y-62276349D01*
X300651000Y-62518893D01*
X300651000Y-175481107D01*
X300627112Y-175723651D01*
X300532704Y-176034870D01*
X300379401Y-176321680D01*
X300379399Y-176321683D01*
X300379398Y-176321684D01*
X300173082Y-176573082D01*
X299921684Y-176779398D01*
X299921680Y-176779401D01*
X299634870Y-176932704D01*
X299323651Y-177027112D01*
X299000000Y-177058988D01*
X298676350Y-177027112D01*
X298365131Y-176932704D01*
X298078321Y-176779401D01*
X298078317Y-176779398D01*
X297826919Y-176573082D01*
X297620603Y-176321684D01*
X297620602Y-176321683D01*
X297620600Y-176321680D01*
X297467297Y-176034870D01*
X297372889Y-175723651D01*
X297349001Y-175481107D01*
X297349000Y-62518894D01*
X297372888Y-62276350D01*
X297467296Y-61965131D01*
X297620601Y-61678318D01*
X297826916Y-61426921D01*
X297826918Y-61426918D01*
X298078316Y-61220602D01*
X298078317Y-61220601D01*
X298078320Y-61220599D01*
X298365130Y-61067296D01*
X298676349Y-60972888D01*
X299000000Y-60941012D01*
X299323650Y-60972888D01*
G37*
G36*
X249323650Y-60972888D02*
G01*
X249634869Y-61067296D01*
X249921682Y-61220601D01*
X249921684Y-61220602D01*
X249921683Y-61220602D01*
X250173082Y-61426918D01*
X250379398Y-61678316D01*
X250379401Y-61678320D01*
X250532704Y-61965130D01*
X250627112Y-62276349D01*
X250651000Y-62518893D01*
X250651000Y-175481107D01*
X250627112Y-175723651D01*
X250532704Y-176034870D01*
X250379401Y-176321680D01*
X250379399Y-176321683D01*
X250379398Y-176321684D01*
X250173082Y-176573082D01*
X249921684Y-176779398D01*
X249921680Y-176779401D01*
X249634870Y-176932704D01*
X249323651Y-177027112D01*
X249000000Y-177058988D01*
X248676350Y-177027112D01*
X248365131Y-176932704D01*
X248078321Y-176779401D01*
X248078317Y-176779398D01*
X247826919Y-176573082D01*
X247620603Y-176321684D01*
X247620602Y-176321683D01*
X247620600Y-176321680D01*
X247467297Y-176034870D01*
X247372889Y-175723651D01*
X247349001Y-175481107D01*
X247349000Y-62518894D01*
X247372888Y-62276350D01*
X247467296Y-61965131D01*
X247620601Y-61678318D01*
X247826916Y-61426921D01*
X247826918Y-61426918D01*
X248078316Y-61220602D01*
X248078317Y-61220601D01*
X248078320Y-61220599D01*
X248365130Y-61067296D01*
X248676349Y-60972888D01*
X249000000Y-60941012D01*
X249323650Y-60972888D01*
G37*
G36*
X287375256Y-117391298D02*
G01*
X287481579Y-117412447D01*
X287782042Y-117536903D01*
X288052451Y-117717585D01*
X288282415Y-117947549D01*
X288463097Y-118217958D01*
X288587553Y-118518421D01*
X288651000Y-118837391D01*
X288651000Y-119162609D01*
X288587553Y-119481579D01*
X288463097Y-119782042D01*
X288282415Y-120052451D01*
X288052451Y-120282415D01*
X287782042Y-120463097D01*
X287481579Y-120587553D01*
X287375256Y-120608702D01*
X287162611Y-120651000D01*
X286837389Y-120651000D01*
X286624744Y-120608702D01*
X286518421Y-120587553D01*
X286217958Y-120463097D01*
X285947549Y-120282415D01*
X285717585Y-120052451D01*
X285536903Y-119782042D01*
X285412447Y-119481579D01*
X285349000Y-119162609D01*
X285349000Y-118837391D01*
X285412447Y-118518421D01*
X285536903Y-118217958D01*
X285717585Y-117947549D01*
X285947549Y-117717585D01*
X286217958Y-117536903D01*
X286518421Y-117412447D01*
X286624744Y-117391298D01*
X286837389Y-117349000D01*
X287162611Y-117349000D01*
X287375256Y-117391298D01*
G37*
G36*
X262375256Y-117391298D02*
G01*
X262481579Y-117412447D01*
X262782042Y-117536903D01*
X263052451Y-117717585D01*
X263282415Y-117947549D01*
X263463097Y-118217958D01*
X263587553Y-118518421D01*
X263651000Y-118837391D01*
X263651000Y-119162609D01*
X263587553Y-119481579D01*
X263463097Y-119782042D01*
X263282415Y-120052451D01*
X263052451Y-120282415D01*
X262782042Y-120463097D01*
X262481579Y-120587553D01*
X262375256Y-120608702D01*
X262162611Y-120651000D01*
X261837389Y-120651000D01*
X261624744Y-120608702D01*
X261518421Y-120587553D01*
X261217958Y-120463097D01*
X260947549Y-120282415D01*
X260717585Y-120052451D01*
X260536903Y-119782042D01*
X260412447Y-119481579D01*
X260349000Y-119162609D01*
X260349000Y-118837391D01*
X260412447Y-118518421D01*
X260536903Y-118217958D01*
X260717585Y-117947549D01*
X260947549Y-117717585D01*
X261217958Y-117536903D01*
X261518421Y-117412447D01*
X261624744Y-117391298D01*
X261837389Y-117349000D01*
X262162611Y-117349000D01*
X262375256Y-117391298D01*
G37*
G36*
X308375256Y-50391298D02*
G01*
X308481579Y-50412447D01*
X308782042Y-50536903D01*
X309052451Y-50717585D01*
X309282415Y-50947549D01*
X309463097Y-51217958D01*
X309587553Y-51518421D01*
X309651000Y-51837391D01*
X309651000Y-52162609D01*
X309587553Y-52481579D01*
X309463097Y-52782042D01*
X309282415Y-53052451D01*
X309052451Y-53282415D01*
X308782042Y-53463097D01*
X308481579Y-53587553D01*
X308375256Y-53608702D01*
X308162611Y-53651000D01*
X307837389Y-53651000D01*
X307624744Y-53608702D01*
X307518421Y-53587553D01*
X307217958Y-53463097D01*
X306947549Y-53282415D01*
X306717585Y-53052451D01*
X306536903Y-52782042D01*
X306412447Y-52481579D01*
X306349000Y-52162609D01*
X306349000Y-51837391D01*
X306412447Y-51518421D01*
X306536903Y-51217958D01*
X306717585Y-50947549D01*
X306947549Y-50717585D01*
X307217958Y-50536903D01*
X307518421Y-50412447D01*
X307624744Y-50391298D01*
X307837389Y-50349000D01*
X308162611Y-50349000D01*
X308375256Y-50391298D01*
G37*
G36*
X225375256Y-50391298D02*
G01*
X225481579Y-50412447D01*
X225782042Y-50536903D01*
X226052451Y-50717585D01*
X226282415Y-50947549D01*
X226463097Y-51217958D01*
X226587553Y-51518421D01*
X226651000Y-51837391D01*
X226651000Y-52162609D01*
X226587553Y-52481579D01*
X226463097Y-52782042D01*
X226282415Y-53052451D01*
X226052451Y-53282415D01*
X225782042Y-53463097D01*
X225481579Y-53587553D01*
X225375256Y-53608702D01*
X225162611Y-53651000D01*
X224837389Y-53651000D01*
X224624744Y-53608702D01*
X224518421Y-53587553D01*
X224217958Y-53463097D01*
X223947549Y-53282415D01*
X223717585Y-53052451D01*
X223536903Y-52782042D01*
X223412447Y-52481579D01*
X223349000Y-52162609D01*
X223349000Y-51837391D01*
X223412447Y-51518421D01*
X223536903Y-51217958D01*
X223717585Y-50947549D01*
X223947549Y-50717585D01*
X224217958Y-50536903D01*
X224518421Y-50412447D01*
X224624744Y-50391298D01*
X224837389Y-50349000D01*
X225162611Y-50349000D01*
X225375256Y-50391298D01*
G37*
M02*
