G04 #@! TF.GenerationSoftware,KiCad,Pcbnew,(5.1.5)-3*
G04 #@! TF.CreationDate,2020-02-27T12:36:48+00:00*
G04 #@! TF.ProjectId,midi fader alps 100mm,6d696469-2066-4616-9465-7220616c7073,rev?*
G04 #@! TF.SameCoordinates,Original*
G04 #@! TF.FileFunction,Copper,L1,Top*
G04 #@! TF.FilePolarity,Positive*
%FSLAX46Y46*%
G04 Gerber Fmt 4.6, Leading zero omitted, Abs format (unit mm)*
G04 Created by KiCad (PCBNEW (5.1.5)-3) date 2020-02-27 12:36:48*
%MOMM*%
%LPD*%
G04 APERTURE LIST*
%ADD10C,0.254000*%
G04 APERTURE END LIST*
D10*
G36*
X307873000Y-49765000D02*
G01*
X307779872Y-49765000D01*
X307348075Y-49850890D01*
X306941331Y-50019369D01*
X306575271Y-50263962D01*
X306263962Y-50575271D01*
X306019369Y-50941331D01*
X305850890Y-51348075D01*
X305765000Y-51779872D01*
X305765000Y-52220128D01*
X305850890Y-52651925D01*
X306019369Y-53058669D01*
X306263962Y-53424729D01*
X306575271Y-53736038D01*
X306941331Y-53980631D01*
X307348075Y-54149110D01*
X307779872Y-54235000D01*
X308220128Y-54235000D01*
X308651925Y-54149110D01*
X309058669Y-53980631D01*
X309424729Y-53736038D01*
X309736038Y-53424729D01*
X309980631Y-53058669D01*
X310149110Y-52651925D01*
X310235000Y-52220128D01*
X310235000Y-52127000D01*
X312340001Y-52127000D01*
X312340000Y-185873000D01*
X310235000Y-185873000D01*
X310235000Y-185779872D01*
X310149110Y-185348075D01*
X309980631Y-184941331D01*
X309736038Y-184575271D01*
X309424729Y-184263962D01*
X309058669Y-184019369D01*
X308651925Y-183850890D01*
X308220128Y-183765000D01*
X307779872Y-183765000D01*
X307348075Y-183850890D01*
X306941331Y-184019369D01*
X306575271Y-184263962D01*
X306263962Y-184575271D01*
X306019369Y-184941331D01*
X305850890Y-185348075D01*
X305765000Y-185779872D01*
X305765000Y-186220128D01*
X305850890Y-186651925D01*
X306019369Y-187058669D01*
X306263962Y-187424729D01*
X306575271Y-187736038D01*
X306941331Y-187980631D01*
X307348075Y-188149110D01*
X307779872Y-188235000D01*
X307873000Y-188235000D01*
X307873000Y-190340000D01*
X225127000Y-190340000D01*
X225127000Y-188235000D01*
X225220128Y-188235000D01*
X225651925Y-188149110D01*
X226058669Y-187980631D01*
X226424729Y-187736038D01*
X226736038Y-187424729D01*
X226980631Y-187058669D01*
X227149110Y-186651925D01*
X227235000Y-186220128D01*
X227235000Y-185779872D01*
X227149110Y-185348075D01*
X226980631Y-184941331D01*
X226736038Y-184575271D01*
X226424729Y-184263962D01*
X226058669Y-184019369D01*
X225651925Y-183850890D01*
X225220128Y-183765000D01*
X224779872Y-183765000D01*
X224348075Y-183850890D01*
X223941331Y-184019369D01*
X223575271Y-184263962D01*
X223263962Y-184575271D01*
X223019369Y-184941331D01*
X222850890Y-185348075D01*
X222765000Y-185779872D01*
X222765000Y-185873000D01*
X220660000Y-185873000D01*
X220660000Y-62490205D01*
X246765000Y-62490205D01*
X246765001Y-175509796D01*
X246797340Y-175838137D01*
X246925139Y-176259436D01*
X247132675Y-176647707D01*
X247411971Y-176988030D01*
X247752294Y-177267326D01*
X248140565Y-177474862D01*
X248561864Y-177602661D01*
X249000000Y-177645814D01*
X249438137Y-177602661D01*
X249859436Y-177474862D01*
X250247707Y-177267326D01*
X250588030Y-176988030D01*
X250867326Y-176647707D01*
X251074862Y-176259436D01*
X251202661Y-175838137D01*
X251235000Y-175509796D01*
X251235000Y-118779872D01*
X259765000Y-118779872D01*
X259765000Y-119220128D01*
X259850890Y-119651925D01*
X260019369Y-120058669D01*
X260263962Y-120424729D01*
X260575271Y-120736038D01*
X260941331Y-120980631D01*
X261348075Y-121149110D01*
X261779872Y-121235000D01*
X262220128Y-121235000D01*
X262651925Y-121149110D01*
X263058669Y-120980631D01*
X263424729Y-120736038D01*
X263736038Y-120424729D01*
X263980631Y-120058669D01*
X264149110Y-119651925D01*
X264235000Y-119220128D01*
X264235000Y-118779872D01*
X264149110Y-118348075D01*
X263980631Y-117941331D01*
X263736038Y-117575271D01*
X263424729Y-117263962D01*
X263058669Y-117019369D01*
X262651925Y-116850890D01*
X262220128Y-116765000D01*
X261779872Y-116765000D01*
X261348075Y-116850890D01*
X260941331Y-117019369D01*
X260575271Y-117263962D01*
X260263962Y-117575271D01*
X260019369Y-117941331D01*
X259850890Y-118348075D01*
X259765000Y-118779872D01*
X251235000Y-118779872D01*
X251235000Y-62490205D01*
X271765000Y-62490205D01*
X271765001Y-175509796D01*
X271797340Y-175838137D01*
X271925139Y-176259436D01*
X272132675Y-176647707D01*
X272411971Y-176988030D01*
X272752294Y-177267326D01*
X273140565Y-177474862D01*
X273561864Y-177602661D01*
X274000000Y-177645814D01*
X274438137Y-177602661D01*
X274859436Y-177474862D01*
X275247707Y-177267326D01*
X275588030Y-176988030D01*
X275867326Y-176647707D01*
X276074862Y-176259436D01*
X276202661Y-175838137D01*
X276235000Y-175509796D01*
X276235000Y-118779872D01*
X284765000Y-118779872D01*
X284765000Y-119220128D01*
X284850890Y-119651925D01*
X285019369Y-120058669D01*
X285263962Y-120424729D01*
X285575271Y-120736038D01*
X285941331Y-120980631D01*
X286348075Y-121149110D01*
X286779872Y-121235000D01*
X287220128Y-121235000D01*
X287651925Y-121149110D01*
X288058669Y-120980631D01*
X288424729Y-120736038D01*
X288736038Y-120424729D01*
X288980631Y-120058669D01*
X289149110Y-119651925D01*
X289235000Y-119220128D01*
X289235000Y-118779872D01*
X289149110Y-118348075D01*
X288980631Y-117941331D01*
X288736038Y-117575271D01*
X288424729Y-117263962D01*
X288058669Y-117019369D01*
X287651925Y-116850890D01*
X287220128Y-116765000D01*
X286779872Y-116765000D01*
X286348075Y-116850890D01*
X285941331Y-117019369D01*
X285575271Y-117263962D01*
X285263962Y-117575271D01*
X285019369Y-117941331D01*
X284850890Y-118348075D01*
X284765000Y-118779872D01*
X276235000Y-118779872D01*
X276235000Y-62490205D01*
X296765000Y-62490205D01*
X296765001Y-175509796D01*
X296797340Y-175838137D01*
X296925139Y-176259436D01*
X297132675Y-176647707D01*
X297411971Y-176988030D01*
X297752294Y-177267326D01*
X298140565Y-177474862D01*
X298561864Y-177602661D01*
X299000000Y-177645814D01*
X299438137Y-177602661D01*
X299859436Y-177474862D01*
X300247707Y-177267326D01*
X300588030Y-176988030D01*
X300867326Y-176647707D01*
X301074862Y-176259436D01*
X301202661Y-175838137D01*
X301235000Y-175509796D01*
X301235000Y-62490204D01*
X301202661Y-62161863D01*
X301074862Y-61740564D01*
X300867326Y-61352293D01*
X300588030Y-61011970D01*
X300247707Y-60732674D01*
X299859435Y-60525138D01*
X299438136Y-60397339D01*
X299000000Y-60354186D01*
X298561863Y-60397339D01*
X298140564Y-60525138D01*
X297752293Y-60732674D01*
X297411970Y-61011970D01*
X297132674Y-61352293D01*
X296925138Y-61740565D01*
X296797339Y-62161864D01*
X296765000Y-62490205D01*
X276235000Y-62490205D01*
X276235000Y-62490204D01*
X276202661Y-62161863D01*
X276074862Y-61740564D01*
X275867326Y-61352293D01*
X275588030Y-61011970D01*
X275247707Y-60732674D01*
X274859435Y-60525138D01*
X274438136Y-60397339D01*
X274000000Y-60354186D01*
X273561863Y-60397339D01*
X273140564Y-60525138D01*
X272752293Y-60732674D01*
X272411970Y-61011970D01*
X272132674Y-61352293D01*
X271925138Y-61740565D01*
X271797339Y-62161864D01*
X271765000Y-62490205D01*
X251235000Y-62490205D01*
X251235000Y-62490204D01*
X251202661Y-62161863D01*
X251074862Y-61740564D01*
X250867326Y-61352293D01*
X250588030Y-61011970D01*
X250247707Y-60732674D01*
X249859435Y-60525138D01*
X249438136Y-60397339D01*
X249000000Y-60354186D01*
X248561863Y-60397339D01*
X248140564Y-60525138D01*
X247752293Y-60732674D01*
X247411970Y-61011970D01*
X247132674Y-61352293D01*
X246925138Y-61740565D01*
X246797339Y-62161864D01*
X246765000Y-62490205D01*
X220660000Y-62490205D01*
X220660000Y-52127000D01*
X222765000Y-52127000D01*
X222765000Y-52220128D01*
X222850890Y-52651925D01*
X223019369Y-53058669D01*
X223263962Y-53424729D01*
X223575271Y-53736038D01*
X223941331Y-53980631D01*
X224348075Y-54149110D01*
X224779872Y-54235000D01*
X225220128Y-54235000D01*
X225651925Y-54149110D01*
X226058669Y-53980631D01*
X226424729Y-53736038D01*
X226736038Y-53424729D01*
X226980631Y-53058669D01*
X227149110Y-52651925D01*
X227235000Y-52220128D01*
X227235000Y-51779872D01*
X227149110Y-51348075D01*
X226980631Y-50941331D01*
X226736038Y-50575271D01*
X226424729Y-50263962D01*
X226058669Y-50019369D01*
X225651925Y-49850890D01*
X225220128Y-49765000D01*
X225127000Y-49765000D01*
X225127000Y-47660000D01*
X307873000Y-47660000D01*
X307873000Y-49765000D01*
G37*
X307873000Y-49765000D02*
X307779872Y-49765000D01*
X307348075Y-49850890D01*
X306941331Y-50019369D01*
X306575271Y-50263962D01*
X306263962Y-50575271D01*
X306019369Y-50941331D01*
X305850890Y-51348075D01*
X305765000Y-51779872D01*
X305765000Y-52220128D01*
X305850890Y-52651925D01*
X306019369Y-53058669D01*
X306263962Y-53424729D01*
X306575271Y-53736038D01*
X306941331Y-53980631D01*
X307348075Y-54149110D01*
X307779872Y-54235000D01*
X308220128Y-54235000D01*
X308651925Y-54149110D01*
X309058669Y-53980631D01*
X309424729Y-53736038D01*
X309736038Y-53424729D01*
X309980631Y-53058669D01*
X310149110Y-52651925D01*
X310235000Y-52220128D01*
X310235000Y-52127000D01*
X312340001Y-52127000D01*
X312340000Y-185873000D01*
X310235000Y-185873000D01*
X310235000Y-185779872D01*
X310149110Y-185348075D01*
X309980631Y-184941331D01*
X309736038Y-184575271D01*
X309424729Y-184263962D01*
X309058669Y-184019369D01*
X308651925Y-183850890D01*
X308220128Y-183765000D01*
X307779872Y-183765000D01*
X307348075Y-183850890D01*
X306941331Y-184019369D01*
X306575271Y-184263962D01*
X306263962Y-184575271D01*
X306019369Y-184941331D01*
X305850890Y-185348075D01*
X305765000Y-185779872D01*
X305765000Y-186220128D01*
X305850890Y-186651925D01*
X306019369Y-187058669D01*
X306263962Y-187424729D01*
X306575271Y-187736038D01*
X306941331Y-187980631D01*
X307348075Y-188149110D01*
X307779872Y-188235000D01*
X307873000Y-188235000D01*
X307873000Y-190340000D01*
X225127000Y-190340000D01*
X225127000Y-188235000D01*
X225220128Y-188235000D01*
X225651925Y-188149110D01*
X226058669Y-187980631D01*
X226424729Y-187736038D01*
X226736038Y-187424729D01*
X226980631Y-187058669D01*
X227149110Y-186651925D01*
X227235000Y-186220128D01*
X227235000Y-185779872D01*
X227149110Y-185348075D01*
X226980631Y-184941331D01*
X226736038Y-184575271D01*
X226424729Y-184263962D01*
X226058669Y-184019369D01*
X225651925Y-183850890D01*
X225220128Y-183765000D01*
X224779872Y-183765000D01*
X224348075Y-183850890D01*
X223941331Y-184019369D01*
X223575271Y-184263962D01*
X223263962Y-184575271D01*
X223019369Y-184941331D01*
X222850890Y-185348075D01*
X222765000Y-185779872D01*
X222765000Y-185873000D01*
X220660000Y-185873000D01*
X220660000Y-62490205D01*
X246765000Y-62490205D01*
X246765001Y-175509796D01*
X246797340Y-175838137D01*
X246925139Y-176259436D01*
X247132675Y-176647707D01*
X247411971Y-176988030D01*
X247752294Y-177267326D01*
X248140565Y-177474862D01*
X248561864Y-177602661D01*
X249000000Y-177645814D01*
X249438137Y-177602661D01*
X249859436Y-177474862D01*
X250247707Y-177267326D01*
X250588030Y-176988030D01*
X250867326Y-176647707D01*
X251074862Y-176259436D01*
X251202661Y-175838137D01*
X251235000Y-175509796D01*
X251235000Y-118779872D01*
X259765000Y-118779872D01*
X259765000Y-119220128D01*
X259850890Y-119651925D01*
X260019369Y-120058669D01*
X260263962Y-120424729D01*
X260575271Y-120736038D01*
X260941331Y-120980631D01*
X261348075Y-121149110D01*
X261779872Y-121235000D01*
X262220128Y-121235000D01*
X262651925Y-121149110D01*
X263058669Y-120980631D01*
X263424729Y-120736038D01*
X263736038Y-120424729D01*
X263980631Y-120058669D01*
X264149110Y-119651925D01*
X264235000Y-119220128D01*
X264235000Y-118779872D01*
X264149110Y-118348075D01*
X263980631Y-117941331D01*
X263736038Y-117575271D01*
X263424729Y-117263962D01*
X263058669Y-117019369D01*
X262651925Y-116850890D01*
X262220128Y-116765000D01*
X261779872Y-116765000D01*
X261348075Y-116850890D01*
X260941331Y-117019369D01*
X260575271Y-117263962D01*
X260263962Y-117575271D01*
X260019369Y-117941331D01*
X259850890Y-118348075D01*
X259765000Y-118779872D01*
X251235000Y-118779872D01*
X251235000Y-62490205D01*
X271765000Y-62490205D01*
X271765001Y-175509796D01*
X271797340Y-175838137D01*
X271925139Y-176259436D01*
X272132675Y-176647707D01*
X272411971Y-176988030D01*
X272752294Y-177267326D01*
X273140565Y-177474862D01*
X273561864Y-177602661D01*
X274000000Y-177645814D01*
X274438137Y-177602661D01*
X274859436Y-177474862D01*
X275247707Y-177267326D01*
X275588030Y-176988030D01*
X275867326Y-176647707D01*
X276074862Y-176259436D01*
X276202661Y-175838137D01*
X276235000Y-175509796D01*
X276235000Y-118779872D01*
X284765000Y-118779872D01*
X284765000Y-119220128D01*
X284850890Y-119651925D01*
X285019369Y-120058669D01*
X285263962Y-120424729D01*
X285575271Y-120736038D01*
X285941331Y-120980631D01*
X286348075Y-121149110D01*
X286779872Y-121235000D01*
X287220128Y-121235000D01*
X287651925Y-121149110D01*
X288058669Y-120980631D01*
X288424729Y-120736038D01*
X288736038Y-120424729D01*
X288980631Y-120058669D01*
X289149110Y-119651925D01*
X289235000Y-119220128D01*
X289235000Y-118779872D01*
X289149110Y-118348075D01*
X288980631Y-117941331D01*
X288736038Y-117575271D01*
X288424729Y-117263962D01*
X288058669Y-117019369D01*
X287651925Y-116850890D01*
X287220128Y-116765000D01*
X286779872Y-116765000D01*
X286348075Y-116850890D01*
X285941331Y-117019369D01*
X285575271Y-117263962D01*
X285263962Y-117575271D01*
X285019369Y-117941331D01*
X284850890Y-118348075D01*
X284765000Y-118779872D01*
X276235000Y-118779872D01*
X276235000Y-62490205D01*
X296765000Y-62490205D01*
X296765001Y-175509796D01*
X296797340Y-175838137D01*
X296925139Y-176259436D01*
X297132675Y-176647707D01*
X297411971Y-176988030D01*
X297752294Y-177267326D01*
X298140565Y-177474862D01*
X298561864Y-177602661D01*
X299000000Y-177645814D01*
X299438137Y-177602661D01*
X299859436Y-177474862D01*
X300247707Y-177267326D01*
X300588030Y-176988030D01*
X300867326Y-176647707D01*
X301074862Y-176259436D01*
X301202661Y-175838137D01*
X301235000Y-175509796D01*
X301235000Y-62490204D01*
X301202661Y-62161863D01*
X301074862Y-61740564D01*
X300867326Y-61352293D01*
X300588030Y-61011970D01*
X300247707Y-60732674D01*
X299859435Y-60525138D01*
X299438136Y-60397339D01*
X299000000Y-60354186D01*
X298561863Y-60397339D01*
X298140564Y-60525138D01*
X297752293Y-60732674D01*
X297411970Y-61011970D01*
X297132674Y-61352293D01*
X296925138Y-61740565D01*
X296797339Y-62161864D01*
X296765000Y-62490205D01*
X276235000Y-62490205D01*
X276235000Y-62490204D01*
X276202661Y-62161863D01*
X276074862Y-61740564D01*
X275867326Y-61352293D01*
X275588030Y-61011970D01*
X275247707Y-60732674D01*
X274859435Y-60525138D01*
X274438136Y-60397339D01*
X274000000Y-60354186D01*
X273561863Y-60397339D01*
X273140564Y-60525138D01*
X272752293Y-60732674D01*
X272411970Y-61011970D01*
X272132674Y-61352293D01*
X271925138Y-61740565D01*
X271797339Y-62161864D01*
X271765000Y-62490205D01*
X251235000Y-62490205D01*
X251235000Y-62490204D01*
X251202661Y-62161863D01*
X251074862Y-61740564D01*
X250867326Y-61352293D01*
X250588030Y-61011970D01*
X250247707Y-60732674D01*
X249859435Y-60525138D01*
X249438136Y-60397339D01*
X249000000Y-60354186D01*
X248561863Y-60397339D01*
X248140564Y-60525138D01*
X247752293Y-60732674D01*
X247411970Y-61011970D01*
X247132674Y-61352293D01*
X246925138Y-61740565D01*
X246797339Y-62161864D01*
X246765000Y-62490205D01*
X220660000Y-62490205D01*
X220660000Y-52127000D01*
X222765000Y-52127000D01*
X222765000Y-52220128D01*
X222850890Y-52651925D01*
X223019369Y-53058669D01*
X223263962Y-53424729D01*
X223575271Y-53736038D01*
X223941331Y-53980631D01*
X224348075Y-54149110D01*
X224779872Y-54235000D01*
X225220128Y-54235000D01*
X225651925Y-54149110D01*
X226058669Y-53980631D01*
X226424729Y-53736038D01*
X226736038Y-53424729D01*
X226980631Y-53058669D01*
X227149110Y-52651925D01*
X227235000Y-52220128D01*
X227235000Y-51779872D01*
X227149110Y-51348075D01*
X226980631Y-50941331D01*
X226736038Y-50575271D01*
X226424729Y-50263962D01*
X226058669Y-50019369D01*
X225651925Y-49850890D01*
X225220128Y-49765000D01*
X225127000Y-49765000D01*
X225127000Y-47660000D01*
X307873000Y-47660000D01*
X307873000Y-49765000D01*
M02*
