M48
; DRILL file {KiCad (5.1.5)-3} date 27/02/2020 12:36:19
; FORMAT={-:-/ absolute / inch / decimal}
; #@! TF.CreationDate,2020-02-27T12:36:19+00:00
; #@! TF.GenerationSoftware,Kicad,Pcbnew,(5.1.5)-3
; #@! TF.FileFunction,Plated,1,2,PTH
FMAT,2
INCH
T1C0.0157
T2C0.0197
T3C0.0433
T4C0.0472
T5C0.0528
T6C0.0669
T7C0.0866
%
G90
G05
T1
X5.0787Y-2.4016
X5.1673Y-2.5886
X5.1673Y-2.628
X5.2264Y-2.6476
X4.9978Y-2.5039
X4.9978Y-2.5354
X4.9978Y-2.5669
X4.9978Y-2.6299
X4.9978Y-2.6614
X4.9978Y-2.6929
X5.0254Y-2.4882
X5.0254Y-2.5197
X5.0254Y-2.5512
X5.0254Y-2.5827
X5.0254Y-2.6142
X5.0254Y-2.6457
X5.0254Y-2.6772
X5.0254Y-2.7087
T2
X5.1575Y-4.3638
X5.1575Y-4.5138
T3
X4.8575Y-4.1138
X4.8575Y-4.2138
X4.8575Y-4.3138
X4.8575Y-4.4138
X4.8575Y-4.5138
X4.8575Y-4.6138
X4.8575Y-4.7138
X4.8575Y-4.8138
X4.8575Y-4.9138
X4.8575Y-5.0138
X4.8575Y-5.1138
X4.8575Y-5.2138
X4.8575Y-5.3138
X4.8575Y-5.4138
X4.9575Y-5.4138
X5.0575Y-5.4138
X5.1575Y-5.4138
X5.2575Y-5.4138
X5.3575Y-4.2138
X5.3575Y-4.4138
X5.3575Y-4.5138
X5.3575Y-4.6138
X5.3575Y-5.4138
X5.4575Y-4.1138
X5.4575Y-4.2138
X5.4575Y-4.3138
X5.4575Y-4.4138
X5.4575Y-4.5138
X5.4575Y-4.6138
X5.4575Y-4.7138
X5.4575Y-4.8138
X5.4575Y-4.9138
X5.4575Y-5.0138
X5.4575Y-5.1138
X5.4575Y-5.2138
X5.4575Y-5.3138
X5.4575Y-5.4138
T4
X5.0787Y-3.7303
X5.2287Y-3.7303
T5
X4.7939Y-2.4303
X4.7939Y-2.7665
X4.9801Y-2.4303
X4.9801Y-2.7665
T6
X7.7215Y-2.1752
X7.7215Y-7.1949
X7.8691Y-7.1949
X5.753Y-2.1752
X5.753Y-7.1949
X5.9006Y-7.1949
X6.7372Y-2.1752
X6.7372Y-7.1949
X6.8848Y-7.1949
T7
X7.7953Y-3.1063
X7.7953Y-6.3425
X5.8268Y-3.1063
X5.8268Y-6.3425
X6.811Y-3.1063
X6.811Y-6.3425
T0
M30
