G04 #@! TF.GenerationSoftware,KiCad,Pcbnew,(5.1.5)-3*
G04 #@! TF.CreationDate,2020-02-27T12:36:17+00:00*
G04 #@! TF.ProjectId,midi fader alps 100mm,6d696469-2066-4616-9465-7220616c7073,rev?*
G04 #@! TF.SameCoordinates,Original*
G04 #@! TF.FileFunction,Soldermask,Bot*
G04 #@! TF.FilePolarity,Negative*
%FSLAX46Y46*%
G04 Gerber Fmt 4.6, Leading zero omitted, Abs format (unit mm)*
G04 Created by KiCad (PCBNEW (5.1.5)-3) date 2020-02-27 12:36:17*
%MOMM*%
%LPD*%
G04 APERTURE LIST*
%ADD10C,0.100000*%
G04 APERTURE END LIST*
D10*
G36*
X207375256Y-184391298D02*
G01*
X207481579Y-184412447D01*
X207782042Y-184536903D01*
X208052451Y-184717585D01*
X208282415Y-184947549D01*
X208463097Y-185217958D01*
X208587553Y-185518421D01*
X208651000Y-185837391D01*
X208651000Y-186162609D01*
X208587553Y-186481579D01*
X208463097Y-186782042D01*
X208282415Y-187052451D01*
X208052451Y-187282415D01*
X207782042Y-187463097D01*
X207481579Y-187587553D01*
X207375256Y-187608702D01*
X207162611Y-187651000D01*
X206837389Y-187651000D01*
X206624744Y-187608702D01*
X206518421Y-187587553D01*
X206217958Y-187463097D01*
X205947549Y-187282415D01*
X205717585Y-187052451D01*
X205536903Y-186782042D01*
X205412447Y-186481579D01*
X205349000Y-186162609D01*
X205349000Y-185837391D01*
X205412447Y-185518421D01*
X205536903Y-185217958D01*
X205717585Y-184947549D01*
X205947549Y-184717585D01*
X206217958Y-184536903D01*
X206518421Y-184412447D01*
X206624744Y-184391298D01*
X206837389Y-184349000D01*
X207162611Y-184349000D01*
X207375256Y-184391298D01*
G37*
G36*
X124375256Y-184391298D02*
G01*
X124481579Y-184412447D01*
X124782042Y-184536903D01*
X125052451Y-184717585D01*
X125282415Y-184947549D01*
X125463097Y-185217958D01*
X125587553Y-185518421D01*
X125651000Y-185837391D01*
X125651000Y-186162609D01*
X125587553Y-186481579D01*
X125463097Y-186782042D01*
X125282415Y-187052451D01*
X125052451Y-187282415D01*
X124782042Y-187463097D01*
X124481579Y-187587553D01*
X124375256Y-187608702D01*
X124162611Y-187651000D01*
X123837389Y-187651000D01*
X123624744Y-187608702D01*
X123518421Y-187587553D01*
X123217958Y-187463097D01*
X122947549Y-187282415D01*
X122717585Y-187052451D01*
X122536903Y-186782042D01*
X122412447Y-186481579D01*
X122349000Y-186162609D01*
X122349000Y-185837391D01*
X122412447Y-185518421D01*
X122536903Y-185217958D01*
X122717585Y-184947549D01*
X122947549Y-184717585D01*
X123217958Y-184536903D01*
X123518421Y-184412447D01*
X123624744Y-184391298D01*
X123837389Y-184349000D01*
X124162611Y-184349000D01*
X124375256Y-184391298D01*
G37*
G36*
X200133690Y-181449478D02*
G01*
X200261780Y-181474957D01*
X200503097Y-181574914D01*
X200720276Y-181720029D01*
X200904971Y-181904724D01*
X201050086Y-182121903D01*
X201150043Y-182363220D01*
X201201000Y-182619400D01*
X201201000Y-182880600D01*
X201150043Y-183136780D01*
X201050086Y-183378097D01*
X200904971Y-183595276D01*
X200720276Y-183779971D01*
X200503097Y-183925086D01*
X200261780Y-184025043D01*
X200133690Y-184050521D01*
X200005601Y-184076000D01*
X199744399Y-184076000D01*
X199616310Y-184050522D01*
X199488220Y-184025043D01*
X199246903Y-183925086D01*
X199029724Y-183779971D01*
X198845029Y-183595276D01*
X198699914Y-183378097D01*
X198599957Y-183136780D01*
X198549000Y-182880600D01*
X198549000Y-182619400D01*
X198599957Y-182363220D01*
X198699914Y-182121903D01*
X198845029Y-181904724D01*
X199029724Y-181720029D01*
X199246903Y-181574914D01*
X199488220Y-181474957D01*
X199616310Y-181449478D01*
X199744399Y-181424000D01*
X200005601Y-181424000D01*
X200133690Y-181449478D01*
G37*
G36*
X197451000Y-184076000D02*
G01*
X194799000Y-184076000D01*
X194799000Y-181424000D01*
X197451000Y-181424000D01*
X197451000Y-184076000D01*
G37*
G36*
X175133690Y-181449478D02*
G01*
X175261780Y-181474957D01*
X175503097Y-181574914D01*
X175720276Y-181720029D01*
X175904971Y-181904724D01*
X176050086Y-182121903D01*
X176150043Y-182363220D01*
X176201000Y-182619400D01*
X176201000Y-182880600D01*
X176150043Y-183136780D01*
X176050086Y-183378097D01*
X175904971Y-183595276D01*
X175720276Y-183779971D01*
X175503097Y-183925086D01*
X175261780Y-184025043D01*
X175133690Y-184050521D01*
X175005601Y-184076000D01*
X174744399Y-184076000D01*
X174616310Y-184050522D01*
X174488220Y-184025043D01*
X174246903Y-183925086D01*
X174029724Y-183779971D01*
X173845029Y-183595276D01*
X173699914Y-183378097D01*
X173599957Y-183136780D01*
X173549000Y-182880600D01*
X173549000Y-182619400D01*
X173599957Y-182363220D01*
X173699914Y-182121903D01*
X173845029Y-181904724D01*
X174029724Y-181720029D01*
X174246903Y-181574914D01*
X174488220Y-181474957D01*
X174616310Y-181449478D01*
X174744399Y-181424000D01*
X175005601Y-181424000D01*
X175133690Y-181449478D01*
G37*
G36*
X172451000Y-184076000D02*
G01*
X169799000Y-184076000D01*
X169799000Y-181424000D01*
X172451000Y-181424000D01*
X172451000Y-184076000D01*
G37*
G36*
X150133690Y-181449478D02*
G01*
X150261780Y-181474957D01*
X150503097Y-181574914D01*
X150720276Y-181720029D01*
X150904971Y-181904724D01*
X151050086Y-182121903D01*
X151150043Y-182363220D01*
X151201000Y-182619400D01*
X151201000Y-182880600D01*
X151150043Y-183136780D01*
X151050086Y-183378097D01*
X150904971Y-183595276D01*
X150720276Y-183779971D01*
X150503097Y-183925086D01*
X150261780Y-184025043D01*
X150133690Y-184050521D01*
X150005601Y-184076000D01*
X149744399Y-184076000D01*
X149616310Y-184050522D01*
X149488220Y-184025043D01*
X149246903Y-183925086D01*
X149029724Y-183779971D01*
X148845029Y-183595276D01*
X148699914Y-183378097D01*
X148599957Y-183136780D01*
X148549000Y-182880600D01*
X148549000Y-182619400D01*
X148599957Y-182363220D01*
X148699914Y-182121903D01*
X148845029Y-181904724D01*
X149029724Y-181720029D01*
X149246903Y-181574914D01*
X149488220Y-181474957D01*
X149616310Y-181449478D01*
X149744399Y-181424000D01*
X150005601Y-181424000D01*
X150133690Y-181449478D01*
G37*
G36*
X147451000Y-184076000D02*
G01*
X144799000Y-184076000D01*
X144799000Y-181424000D01*
X147451000Y-181424000D01*
X147451000Y-184076000D01*
G37*
G36*
X148496162Y-159464368D02*
G01*
X148805724Y-159592593D01*
X148805725Y-159592594D01*
X149084324Y-159778747D01*
X149321253Y-160015676D01*
X149445637Y-160201830D01*
X149507407Y-160294276D01*
X149635632Y-160603838D01*
X149701000Y-160932465D01*
X149701000Y-161267535D01*
X149635632Y-161596162D01*
X149507407Y-161905724D01*
X149507406Y-161905725D01*
X149321253Y-162184324D01*
X149084324Y-162421253D01*
X148898170Y-162545637D01*
X148805724Y-162607407D01*
X148496162Y-162735632D01*
X148167535Y-162801000D01*
X147832465Y-162801000D01*
X147503838Y-162735632D01*
X147194276Y-162607407D01*
X147101830Y-162545637D01*
X146915676Y-162421253D01*
X146678747Y-162184324D01*
X146492594Y-161905725D01*
X146492593Y-161905724D01*
X146364368Y-161596162D01*
X146299000Y-161267535D01*
X146299000Y-160932465D01*
X146364368Y-160603838D01*
X146492593Y-160294276D01*
X146554363Y-160201830D01*
X146678747Y-160015676D01*
X146915676Y-159778747D01*
X147194275Y-159592594D01*
X147194276Y-159592593D01*
X147503838Y-159464368D01*
X147832465Y-159399000D01*
X148167535Y-159399000D01*
X148496162Y-159464368D01*
G37*
G36*
X173496162Y-159464368D02*
G01*
X173805724Y-159592593D01*
X173805725Y-159592594D01*
X174084324Y-159778747D01*
X174321253Y-160015676D01*
X174445637Y-160201830D01*
X174507407Y-160294276D01*
X174635632Y-160603838D01*
X174701000Y-160932465D01*
X174701000Y-161267535D01*
X174635632Y-161596162D01*
X174507407Y-161905724D01*
X174507406Y-161905725D01*
X174321253Y-162184324D01*
X174084324Y-162421253D01*
X173898170Y-162545637D01*
X173805724Y-162607407D01*
X173496162Y-162735632D01*
X173167535Y-162801000D01*
X172832465Y-162801000D01*
X172503838Y-162735632D01*
X172194276Y-162607407D01*
X172101830Y-162545637D01*
X171915676Y-162421253D01*
X171678747Y-162184324D01*
X171492594Y-161905725D01*
X171492593Y-161905724D01*
X171364368Y-161596162D01*
X171299000Y-161267535D01*
X171299000Y-160932465D01*
X171364368Y-160603838D01*
X171492593Y-160294276D01*
X171554363Y-160201830D01*
X171678747Y-160015676D01*
X171915676Y-159778747D01*
X172194275Y-159592594D01*
X172194276Y-159592593D01*
X172503838Y-159464368D01*
X172832465Y-159399000D01*
X173167535Y-159399000D01*
X173496162Y-159464368D01*
G37*
G36*
X198496162Y-159464368D02*
G01*
X198805724Y-159592593D01*
X198805725Y-159592594D01*
X199084324Y-159778747D01*
X199321253Y-160015676D01*
X199445637Y-160201830D01*
X199507407Y-160294276D01*
X199635632Y-160603838D01*
X199701000Y-160932465D01*
X199701000Y-161267535D01*
X199635632Y-161596162D01*
X199507407Y-161905724D01*
X199507406Y-161905725D01*
X199321253Y-162184324D01*
X199084324Y-162421253D01*
X198898170Y-162545637D01*
X198805724Y-162607407D01*
X198496162Y-162735632D01*
X198167535Y-162801000D01*
X197832465Y-162801000D01*
X197503838Y-162735632D01*
X197194276Y-162607407D01*
X197101830Y-162545637D01*
X196915676Y-162421253D01*
X196678747Y-162184324D01*
X196492594Y-161905725D01*
X196492593Y-161905724D01*
X196364368Y-161596162D01*
X196299000Y-161267535D01*
X196299000Y-160932465D01*
X196364368Y-160603838D01*
X196492593Y-160294276D01*
X196554363Y-160201830D01*
X196678747Y-160015676D01*
X196915676Y-159778747D01*
X197194275Y-159592594D01*
X197194276Y-159592593D01*
X197503838Y-159464368D01*
X197832465Y-159399000D01*
X198167535Y-159399000D01*
X198496162Y-159464368D01*
G37*
G36*
X138868228Y-136691703D02*
G01*
X139023100Y-136755853D01*
X139162481Y-136848985D01*
X139281015Y-136967519D01*
X139374147Y-137106900D01*
X139438297Y-137261772D01*
X139471000Y-137426184D01*
X139471000Y-137593816D01*
X139438297Y-137758228D01*
X139374147Y-137913100D01*
X139281015Y-138052481D01*
X139162481Y-138171015D01*
X139023100Y-138264147D01*
X138868228Y-138328297D01*
X138703816Y-138361000D01*
X138536184Y-138361000D01*
X138371772Y-138328297D01*
X138216900Y-138264147D01*
X138077519Y-138171015D01*
X137958985Y-138052481D01*
X137865853Y-137913100D01*
X137801703Y-137758228D01*
X137769000Y-137593816D01*
X137769000Y-137426184D01*
X137801703Y-137261772D01*
X137865853Y-137106900D01*
X137958985Y-136967519D01*
X138077519Y-136848985D01*
X138216900Y-136755853D01*
X138371772Y-136691703D01*
X138536184Y-136659000D01*
X138703816Y-136659000D01*
X138868228Y-136691703D01*
G37*
G36*
X131248228Y-136691703D02*
G01*
X131403100Y-136755853D01*
X131542481Y-136848985D01*
X131661015Y-136967519D01*
X131754147Y-137106900D01*
X131818297Y-137261772D01*
X131851000Y-137426184D01*
X131851000Y-137593816D01*
X131818297Y-137758228D01*
X131754147Y-137913100D01*
X131661015Y-138052481D01*
X131542481Y-138171015D01*
X131403100Y-138264147D01*
X131248228Y-138328297D01*
X131083816Y-138361000D01*
X130916184Y-138361000D01*
X130751772Y-138328297D01*
X130596900Y-138264147D01*
X130457519Y-138171015D01*
X130338985Y-138052481D01*
X130245853Y-137913100D01*
X130181703Y-137758228D01*
X130149000Y-137593816D01*
X130149000Y-137426184D01*
X130181703Y-137261772D01*
X130245853Y-137106900D01*
X130338985Y-136967519D01*
X130457519Y-136848985D01*
X130596900Y-136755853D01*
X130751772Y-136691703D01*
X130916184Y-136659000D01*
X131083816Y-136659000D01*
X131248228Y-136691703D01*
G37*
G36*
X133788228Y-136691703D02*
G01*
X133943100Y-136755853D01*
X134082481Y-136848985D01*
X134201015Y-136967519D01*
X134294147Y-137106900D01*
X134358297Y-137261772D01*
X134391000Y-137426184D01*
X134391000Y-137593816D01*
X134358297Y-137758228D01*
X134294147Y-137913100D01*
X134201015Y-138052481D01*
X134082481Y-138171015D01*
X133943100Y-138264147D01*
X133788228Y-138328297D01*
X133623816Y-138361000D01*
X133456184Y-138361000D01*
X133291772Y-138328297D01*
X133136900Y-138264147D01*
X132997519Y-138171015D01*
X132878985Y-138052481D01*
X132785853Y-137913100D01*
X132721703Y-137758228D01*
X132689000Y-137593816D01*
X132689000Y-137426184D01*
X132721703Y-137261772D01*
X132785853Y-137106900D01*
X132878985Y-136967519D01*
X132997519Y-136848985D01*
X133136900Y-136755853D01*
X133291772Y-136691703D01*
X133456184Y-136659000D01*
X133623816Y-136659000D01*
X133788228Y-136691703D01*
G37*
G36*
X136328228Y-136691703D02*
G01*
X136483100Y-136755853D01*
X136622481Y-136848985D01*
X136741015Y-136967519D01*
X136834147Y-137106900D01*
X136898297Y-137261772D01*
X136931000Y-137426184D01*
X136931000Y-137593816D01*
X136898297Y-137758228D01*
X136834147Y-137913100D01*
X136741015Y-138052481D01*
X136622481Y-138171015D01*
X136483100Y-138264147D01*
X136328228Y-138328297D01*
X136163816Y-138361000D01*
X135996184Y-138361000D01*
X135831772Y-138328297D01*
X135676900Y-138264147D01*
X135537519Y-138171015D01*
X135418985Y-138052481D01*
X135325853Y-137913100D01*
X135261703Y-137758228D01*
X135229000Y-137593816D01*
X135229000Y-137426184D01*
X135261703Y-137261772D01*
X135325853Y-137106900D01*
X135418985Y-136967519D01*
X135537519Y-136848985D01*
X135676900Y-136755853D01*
X135831772Y-136691703D01*
X135996184Y-136659000D01*
X136163816Y-136659000D01*
X136328228Y-136691703D01*
G37*
G36*
X128708228Y-136691703D02*
G01*
X128863100Y-136755853D01*
X129002481Y-136848985D01*
X129121015Y-136967519D01*
X129214147Y-137106900D01*
X129278297Y-137261772D01*
X129311000Y-137426184D01*
X129311000Y-137593816D01*
X129278297Y-137758228D01*
X129214147Y-137913100D01*
X129121015Y-138052481D01*
X129002481Y-138171015D01*
X128863100Y-138264147D01*
X128708228Y-138328297D01*
X128543816Y-138361000D01*
X128376184Y-138361000D01*
X128211772Y-138328297D01*
X128056900Y-138264147D01*
X127917519Y-138171015D01*
X127798985Y-138052481D01*
X127705853Y-137913100D01*
X127641703Y-137758228D01*
X127609000Y-137593816D01*
X127609000Y-137426184D01*
X127641703Y-137261772D01*
X127705853Y-137106900D01*
X127798985Y-136967519D01*
X127917519Y-136848985D01*
X128056900Y-136755853D01*
X128211772Y-136691703D01*
X128376184Y-136659000D01*
X128543816Y-136659000D01*
X128708228Y-136691703D01*
G37*
G36*
X126168228Y-136691703D02*
G01*
X126323100Y-136755853D01*
X126462481Y-136848985D01*
X126581015Y-136967519D01*
X126674147Y-137106900D01*
X126738297Y-137261772D01*
X126771000Y-137426184D01*
X126771000Y-137593816D01*
X126738297Y-137758228D01*
X126674147Y-137913100D01*
X126581015Y-138052481D01*
X126462481Y-138171015D01*
X126323100Y-138264147D01*
X126168228Y-138328297D01*
X126003816Y-138361000D01*
X125836184Y-138361000D01*
X125671772Y-138328297D01*
X125516900Y-138264147D01*
X125377519Y-138171015D01*
X125258985Y-138052481D01*
X125165853Y-137913100D01*
X125101703Y-137758228D01*
X125069000Y-137593816D01*
X125069000Y-137426184D01*
X125101703Y-137261772D01*
X125165853Y-137106900D01*
X125258985Y-136967519D01*
X125377519Y-136848985D01*
X125516900Y-136755853D01*
X125671772Y-136691703D01*
X125836184Y-136659000D01*
X126003816Y-136659000D01*
X126168228Y-136691703D01*
G37*
G36*
X123628228Y-136691703D02*
G01*
X123783100Y-136755853D01*
X123922481Y-136848985D01*
X124041015Y-136967519D01*
X124134147Y-137106900D01*
X124198297Y-137261772D01*
X124231000Y-137426184D01*
X124231000Y-137593816D01*
X124198297Y-137758228D01*
X124134147Y-137913100D01*
X124041015Y-138052481D01*
X123922481Y-138171015D01*
X123783100Y-138264147D01*
X123628228Y-138328297D01*
X123463816Y-138361000D01*
X123296184Y-138361000D01*
X123131772Y-138328297D01*
X122976900Y-138264147D01*
X122837519Y-138171015D01*
X122718985Y-138052481D01*
X122625853Y-137913100D01*
X122561703Y-137758228D01*
X122529000Y-137593816D01*
X122529000Y-137426184D01*
X122561703Y-137261772D01*
X122625853Y-137106900D01*
X122718985Y-136967519D01*
X122837519Y-136848985D01*
X122976900Y-136755853D01*
X123131772Y-136691703D01*
X123296184Y-136659000D01*
X123463816Y-136659000D01*
X123628228Y-136691703D01*
G37*
G36*
X123628228Y-134151703D02*
G01*
X123783100Y-134215853D01*
X123922481Y-134308985D01*
X124041015Y-134427519D01*
X124134147Y-134566900D01*
X124198297Y-134721772D01*
X124231000Y-134886184D01*
X124231000Y-135053816D01*
X124198297Y-135218228D01*
X124134147Y-135373100D01*
X124041015Y-135512481D01*
X123922481Y-135631015D01*
X123783100Y-135724147D01*
X123628228Y-135788297D01*
X123463816Y-135821000D01*
X123296184Y-135821000D01*
X123131772Y-135788297D01*
X122976900Y-135724147D01*
X122837519Y-135631015D01*
X122718985Y-135512481D01*
X122625853Y-135373100D01*
X122561703Y-135218228D01*
X122529000Y-135053816D01*
X122529000Y-134886184D01*
X122561703Y-134721772D01*
X122625853Y-134566900D01*
X122718985Y-134427519D01*
X122837519Y-134308985D01*
X122976900Y-134215853D01*
X123131772Y-134151703D01*
X123296184Y-134119000D01*
X123463816Y-134119000D01*
X123628228Y-134151703D01*
G37*
G36*
X138868228Y-134151703D02*
G01*
X139023100Y-134215853D01*
X139162481Y-134308985D01*
X139281015Y-134427519D01*
X139374147Y-134566900D01*
X139438297Y-134721772D01*
X139471000Y-134886184D01*
X139471000Y-135053816D01*
X139438297Y-135218228D01*
X139374147Y-135373100D01*
X139281015Y-135512481D01*
X139162481Y-135631015D01*
X139023100Y-135724147D01*
X138868228Y-135788297D01*
X138703816Y-135821000D01*
X138536184Y-135821000D01*
X138371772Y-135788297D01*
X138216900Y-135724147D01*
X138077519Y-135631015D01*
X137958985Y-135512481D01*
X137865853Y-135373100D01*
X137801703Y-135218228D01*
X137769000Y-135053816D01*
X137769000Y-134886184D01*
X137801703Y-134721772D01*
X137865853Y-134566900D01*
X137958985Y-134427519D01*
X138077519Y-134308985D01*
X138216900Y-134215853D01*
X138371772Y-134151703D01*
X138536184Y-134119000D01*
X138703816Y-134119000D01*
X138868228Y-134151703D01*
G37*
G36*
X138868228Y-131611703D02*
G01*
X139023100Y-131675853D01*
X139162481Y-131768985D01*
X139281015Y-131887519D01*
X139374147Y-132026900D01*
X139438297Y-132181772D01*
X139471000Y-132346184D01*
X139471000Y-132513816D01*
X139438297Y-132678228D01*
X139374147Y-132833100D01*
X139281015Y-132972481D01*
X139162481Y-133091015D01*
X139023100Y-133184147D01*
X138868228Y-133248297D01*
X138703816Y-133281000D01*
X138536184Y-133281000D01*
X138371772Y-133248297D01*
X138216900Y-133184147D01*
X138077519Y-133091015D01*
X137958985Y-132972481D01*
X137865853Y-132833100D01*
X137801703Y-132678228D01*
X137769000Y-132513816D01*
X137769000Y-132346184D01*
X137801703Y-132181772D01*
X137865853Y-132026900D01*
X137958985Y-131887519D01*
X138077519Y-131768985D01*
X138216900Y-131675853D01*
X138371772Y-131611703D01*
X138536184Y-131579000D01*
X138703816Y-131579000D01*
X138868228Y-131611703D01*
G37*
G36*
X123628228Y-131611703D02*
G01*
X123783100Y-131675853D01*
X123922481Y-131768985D01*
X124041015Y-131887519D01*
X124134147Y-132026900D01*
X124198297Y-132181772D01*
X124231000Y-132346184D01*
X124231000Y-132513816D01*
X124198297Y-132678228D01*
X124134147Y-132833100D01*
X124041015Y-132972481D01*
X123922481Y-133091015D01*
X123783100Y-133184147D01*
X123628228Y-133248297D01*
X123463816Y-133281000D01*
X123296184Y-133281000D01*
X123131772Y-133248297D01*
X122976900Y-133184147D01*
X122837519Y-133091015D01*
X122718985Y-132972481D01*
X122625853Y-132833100D01*
X122561703Y-132678228D01*
X122529000Y-132513816D01*
X122529000Y-132346184D01*
X122561703Y-132181772D01*
X122625853Y-132026900D01*
X122718985Y-131887519D01*
X122837519Y-131768985D01*
X122976900Y-131675853D01*
X123131772Y-131611703D01*
X123296184Y-131579000D01*
X123463816Y-131579000D01*
X123628228Y-131611703D01*
G37*
G36*
X138868228Y-129071703D02*
G01*
X139023100Y-129135853D01*
X139162481Y-129228985D01*
X139281015Y-129347519D01*
X139374147Y-129486900D01*
X139438297Y-129641772D01*
X139471000Y-129806184D01*
X139471000Y-129973816D01*
X139438297Y-130138228D01*
X139374147Y-130293100D01*
X139281015Y-130432481D01*
X139162481Y-130551015D01*
X139023100Y-130644147D01*
X138868228Y-130708297D01*
X138703816Y-130741000D01*
X138536184Y-130741000D01*
X138371772Y-130708297D01*
X138216900Y-130644147D01*
X138077519Y-130551015D01*
X137958985Y-130432481D01*
X137865853Y-130293100D01*
X137801703Y-130138228D01*
X137769000Y-129973816D01*
X137769000Y-129806184D01*
X137801703Y-129641772D01*
X137865853Y-129486900D01*
X137958985Y-129347519D01*
X138077519Y-129228985D01*
X138216900Y-129135853D01*
X138371772Y-129071703D01*
X138536184Y-129039000D01*
X138703816Y-129039000D01*
X138868228Y-129071703D01*
G37*
G36*
X123628228Y-129071703D02*
G01*
X123783100Y-129135853D01*
X123922481Y-129228985D01*
X124041015Y-129347519D01*
X124134147Y-129486900D01*
X124198297Y-129641772D01*
X124231000Y-129806184D01*
X124231000Y-129973816D01*
X124198297Y-130138228D01*
X124134147Y-130293100D01*
X124041015Y-130432481D01*
X123922481Y-130551015D01*
X123783100Y-130644147D01*
X123628228Y-130708297D01*
X123463816Y-130741000D01*
X123296184Y-130741000D01*
X123131772Y-130708297D01*
X122976900Y-130644147D01*
X122837519Y-130551015D01*
X122718985Y-130432481D01*
X122625853Y-130293100D01*
X122561703Y-130138228D01*
X122529000Y-129973816D01*
X122529000Y-129806184D01*
X122561703Y-129641772D01*
X122625853Y-129486900D01*
X122718985Y-129347519D01*
X122837519Y-129228985D01*
X122976900Y-129135853D01*
X123131772Y-129071703D01*
X123296184Y-129039000D01*
X123463816Y-129039000D01*
X123628228Y-129071703D01*
G37*
G36*
X123628228Y-126531703D02*
G01*
X123783100Y-126595853D01*
X123922481Y-126688985D01*
X124041015Y-126807519D01*
X124134147Y-126946900D01*
X124198297Y-127101772D01*
X124231000Y-127266184D01*
X124231000Y-127433816D01*
X124198297Y-127598228D01*
X124134147Y-127753100D01*
X124041015Y-127892481D01*
X123922481Y-128011015D01*
X123783100Y-128104147D01*
X123628228Y-128168297D01*
X123463816Y-128201000D01*
X123296184Y-128201000D01*
X123131772Y-128168297D01*
X122976900Y-128104147D01*
X122837519Y-128011015D01*
X122718985Y-127892481D01*
X122625853Y-127753100D01*
X122561703Y-127598228D01*
X122529000Y-127433816D01*
X122529000Y-127266184D01*
X122561703Y-127101772D01*
X122625853Y-126946900D01*
X122718985Y-126807519D01*
X122837519Y-126688985D01*
X122976900Y-126595853D01*
X123131772Y-126531703D01*
X123296184Y-126499000D01*
X123463816Y-126499000D01*
X123628228Y-126531703D01*
G37*
G36*
X138868228Y-126531703D02*
G01*
X139023100Y-126595853D01*
X139162481Y-126688985D01*
X139281015Y-126807519D01*
X139374147Y-126946900D01*
X139438297Y-127101772D01*
X139471000Y-127266184D01*
X139471000Y-127433816D01*
X139438297Y-127598228D01*
X139374147Y-127753100D01*
X139281015Y-127892481D01*
X139162481Y-128011015D01*
X139023100Y-128104147D01*
X138868228Y-128168297D01*
X138703816Y-128201000D01*
X138536184Y-128201000D01*
X138371772Y-128168297D01*
X138216900Y-128104147D01*
X138077519Y-128011015D01*
X137958985Y-127892481D01*
X137865853Y-127753100D01*
X137801703Y-127598228D01*
X137769000Y-127433816D01*
X137769000Y-127266184D01*
X137801703Y-127101772D01*
X137865853Y-126946900D01*
X137958985Y-126807519D01*
X138077519Y-126688985D01*
X138216900Y-126595853D01*
X138371772Y-126531703D01*
X138536184Y-126499000D01*
X138703816Y-126499000D01*
X138868228Y-126531703D01*
G37*
G36*
X138868228Y-123991703D02*
G01*
X139023100Y-124055853D01*
X139162481Y-124148985D01*
X139281015Y-124267519D01*
X139374147Y-124406900D01*
X139438297Y-124561772D01*
X139471000Y-124726184D01*
X139471000Y-124893816D01*
X139438297Y-125058228D01*
X139374147Y-125213100D01*
X139281015Y-125352481D01*
X139162481Y-125471015D01*
X139023100Y-125564147D01*
X138868228Y-125628297D01*
X138703816Y-125661000D01*
X138536184Y-125661000D01*
X138371772Y-125628297D01*
X138216900Y-125564147D01*
X138077519Y-125471015D01*
X137958985Y-125352481D01*
X137865853Y-125213100D01*
X137801703Y-125058228D01*
X137769000Y-124893816D01*
X137769000Y-124726184D01*
X137801703Y-124561772D01*
X137865853Y-124406900D01*
X137958985Y-124267519D01*
X138077519Y-124148985D01*
X138216900Y-124055853D01*
X138371772Y-123991703D01*
X138536184Y-123959000D01*
X138703816Y-123959000D01*
X138868228Y-123991703D01*
G37*
G36*
X123628228Y-123991703D02*
G01*
X123783100Y-124055853D01*
X123922481Y-124148985D01*
X124041015Y-124267519D01*
X124134147Y-124406900D01*
X124198297Y-124561772D01*
X124231000Y-124726184D01*
X124231000Y-124893816D01*
X124198297Y-125058228D01*
X124134147Y-125213100D01*
X124041015Y-125352481D01*
X123922481Y-125471015D01*
X123783100Y-125564147D01*
X123628228Y-125628297D01*
X123463816Y-125661000D01*
X123296184Y-125661000D01*
X123131772Y-125628297D01*
X122976900Y-125564147D01*
X122837519Y-125471015D01*
X122718985Y-125352481D01*
X122625853Y-125213100D01*
X122561703Y-125058228D01*
X122529000Y-124893816D01*
X122529000Y-124726184D01*
X122561703Y-124561772D01*
X122625853Y-124406900D01*
X122718985Y-124267519D01*
X122837519Y-124148985D01*
X122976900Y-124055853D01*
X123131772Y-123991703D01*
X123296184Y-123959000D01*
X123463816Y-123959000D01*
X123628228Y-123991703D01*
G37*
G36*
X123628228Y-121451703D02*
G01*
X123783100Y-121515853D01*
X123922481Y-121608985D01*
X124041015Y-121727519D01*
X124134147Y-121866900D01*
X124198297Y-122021772D01*
X124231000Y-122186184D01*
X124231000Y-122353816D01*
X124198297Y-122518228D01*
X124134147Y-122673100D01*
X124041015Y-122812481D01*
X123922481Y-122931015D01*
X123783100Y-123024147D01*
X123628228Y-123088297D01*
X123463816Y-123121000D01*
X123296184Y-123121000D01*
X123131772Y-123088297D01*
X122976900Y-123024147D01*
X122837519Y-122931015D01*
X122718985Y-122812481D01*
X122625853Y-122673100D01*
X122561703Y-122518228D01*
X122529000Y-122353816D01*
X122529000Y-122186184D01*
X122561703Y-122021772D01*
X122625853Y-121866900D01*
X122718985Y-121727519D01*
X122837519Y-121608985D01*
X122976900Y-121515853D01*
X123131772Y-121451703D01*
X123296184Y-121419000D01*
X123463816Y-121419000D01*
X123628228Y-121451703D01*
G37*
G36*
X138868228Y-121451703D02*
G01*
X139023100Y-121515853D01*
X139162481Y-121608985D01*
X139281015Y-121727519D01*
X139374147Y-121866900D01*
X139438297Y-122021772D01*
X139471000Y-122186184D01*
X139471000Y-122353816D01*
X139438297Y-122518228D01*
X139374147Y-122673100D01*
X139281015Y-122812481D01*
X139162481Y-122931015D01*
X139023100Y-123024147D01*
X138868228Y-123088297D01*
X138703816Y-123121000D01*
X138536184Y-123121000D01*
X138371772Y-123088297D01*
X138216900Y-123024147D01*
X138077519Y-122931015D01*
X137958985Y-122812481D01*
X137865853Y-122673100D01*
X137801703Y-122518228D01*
X137769000Y-122353816D01*
X137769000Y-122186184D01*
X137801703Y-122021772D01*
X137865853Y-121866900D01*
X137958985Y-121727519D01*
X138077519Y-121608985D01*
X138216900Y-121515853D01*
X138371772Y-121451703D01*
X138536184Y-121419000D01*
X138703816Y-121419000D01*
X138868228Y-121451703D01*
G37*
G36*
X161375256Y-117391298D02*
G01*
X161481579Y-117412447D01*
X161782042Y-117536903D01*
X162052451Y-117717585D01*
X162282415Y-117947549D01*
X162463097Y-118217958D01*
X162587553Y-118518421D01*
X162651000Y-118837391D01*
X162651000Y-119162609D01*
X162587553Y-119481579D01*
X162463097Y-119782042D01*
X162282415Y-120052451D01*
X162052451Y-120282415D01*
X161782042Y-120463097D01*
X161782041Y-120463098D01*
X161782040Y-120463098D01*
X161694037Y-120499550D01*
X161481579Y-120587553D01*
X161375256Y-120608702D01*
X161162611Y-120651000D01*
X160837389Y-120651000D01*
X160624744Y-120608702D01*
X160518421Y-120587553D01*
X160305963Y-120499550D01*
X160217960Y-120463098D01*
X160217959Y-120463098D01*
X160217958Y-120463097D01*
X159947549Y-120282415D01*
X159717585Y-120052451D01*
X159536903Y-119782042D01*
X159412447Y-119481579D01*
X159349000Y-119162609D01*
X159349000Y-118837391D01*
X159412447Y-118518421D01*
X159536903Y-118217958D01*
X159717585Y-117947549D01*
X159947549Y-117717585D01*
X160217958Y-117536903D01*
X160518421Y-117412447D01*
X160624744Y-117391298D01*
X160837389Y-117349000D01*
X161162611Y-117349000D01*
X161375256Y-117391298D01*
G37*
G36*
X186375256Y-117391298D02*
G01*
X186481579Y-117412447D01*
X186782042Y-117536903D01*
X187052451Y-117717585D01*
X187282415Y-117947549D01*
X187463097Y-118217958D01*
X187587553Y-118518421D01*
X187651000Y-118837391D01*
X187651000Y-119162609D01*
X187587553Y-119481579D01*
X187463097Y-119782042D01*
X187282415Y-120052451D01*
X187052451Y-120282415D01*
X186782042Y-120463097D01*
X186782041Y-120463098D01*
X186782040Y-120463098D01*
X186694037Y-120499550D01*
X186481579Y-120587553D01*
X186375256Y-120608702D01*
X186162611Y-120651000D01*
X185837389Y-120651000D01*
X185624744Y-120608702D01*
X185518421Y-120587553D01*
X185305963Y-120499550D01*
X185217960Y-120463098D01*
X185217959Y-120463098D01*
X185217958Y-120463097D01*
X184947549Y-120282415D01*
X184717585Y-120052451D01*
X184536903Y-119782042D01*
X184412447Y-119481579D01*
X184349000Y-119162609D01*
X184349000Y-118837391D01*
X184412447Y-118518421D01*
X184536903Y-118217958D01*
X184717585Y-117947549D01*
X184947549Y-117717585D01*
X185217958Y-117536903D01*
X185518421Y-117412447D01*
X185624744Y-117391298D01*
X185837389Y-117349000D01*
X186162611Y-117349000D01*
X186375256Y-117391298D01*
G37*
G36*
X138868228Y-118911703D02*
G01*
X139023100Y-118975853D01*
X139162481Y-119068985D01*
X139281015Y-119187519D01*
X139374147Y-119326900D01*
X139438297Y-119481772D01*
X139471000Y-119646184D01*
X139471000Y-119813816D01*
X139438297Y-119978228D01*
X139374147Y-120133100D01*
X139281015Y-120272481D01*
X139162481Y-120391015D01*
X139023100Y-120484147D01*
X138868228Y-120548297D01*
X138703816Y-120581000D01*
X138536184Y-120581000D01*
X138371772Y-120548297D01*
X138216900Y-120484147D01*
X138077519Y-120391015D01*
X137958985Y-120272481D01*
X137865853Y-120133100D01*
X137801703Y-119978228D01*
X137769000Y-119813816D01*
X137769000Y-119646184D01*
X137801703Y-119481772D01*
X137865853Y-119326900D01*
X137958985Y-119187519D01*
X138077519Y-119068985D01*
X138216900Y-118975853D01*
X138371772Y-118911703D01*
X138536184Y-118879000D01*
X138703816Y-118879000D01*
X138868228Y-118911703D01*
G37*
G36*
X123628228Y-118911703D02*
G01*
X123783100Y-118975853D01*
X123922481Y-119068985D01*
X124041015Y-119187519D01*
X124134147Y-119326900D01*
X124198297Y-119481772D01*
X124231000Y-119646184D01*
X124231000Y-119813816D01*
X124198297Y-119978228D01*
X124134147Y-120133100D01*
X124041015Y-120272481D01*
X123922481Y-120391015D01*
X123783100Y-120484147D01*
X123628228Y-120548297D01*
X123463816Y-120581000D01*
X123296184Y-120581000D01*
X123131772Y-120548297D01*
X122976900Y-120484147D01*
X122837519Y-120391015D01*
X122718985Y-120272481D01*
X122625853Y-120133100D01*
X122561703Y-119978228D01*
X122529000Y-119813816D01*
X122529000Y-119646184D01*
X122561703Y-119481772D01*
X122625853Y-119326900D01*
X122718985Y-119187519D01*
X122837519Y-119068985D01*
X122976900Y-118975853D01*
X123131772Y-118911703D01*
X123296184Y-118879000D01*
X123463816Y-118879000D01*
X123628228Y-118911703D01*
G37*
G36*
X123628228Y-116371703D02*
G01*
X123783100Y-116435853D01*
X123922481Y-116528985D01*
X124041015Y-116647519D01*
X124134147Y-116786900D01*
X124198297Y-116941772D01*
X124231000Y-117106184D01*
X124231000Y-117273816D01*
X124198297Y-117438228D01*
X124134147Y-117593100D01*
X124041015Y-117732481D01*
X123922481Y-117851015D01*
X123783100Y-117944147D01*
X123628228Y-118008297D01*
X123463816Y-118041000D01*
X123296184Y-118041000D01*
X123131772Y-118008297D01*
X122976900Y-117944147D01*
X122837519Y-117851015D01*
X122718985Y-117732481D01*
X122625853Y-117593100D01*
X122561703Y-117438228D01*
X122529000Y-117273816D01*
X122529000Y-117106184D01*
X122561703Y-116941772D01*
X122625853Y-116786900D01*
X122718985Y-116647519D01*
X122837519Y-116528985D01*
X122976900Y-116435853D01*
X123131772Y-116371703D01*
X123296184Y-116339000D01*
X123463816Y-116339000D01*
X123628228Y-116371703D01*
G37*
G36*
X136328228Y-116371703D02*
G01*
X136483100Y-116435853D01*
X136622481Y-116528985D01*
X136741015Y-116647519D01*
X136834147Y-116786900D01*
X136898297Y-116941772D01*
X136931000Y-117106184D01*
X136931000Y-117273816D01*
X136898297Y-117438228D01*
X136834147Y-117593100D01*
X136741015Y-117732481D01*
X136622481Y-117851015D01*
X136483100Y-117944147D01*
X136328228Y-118008297D01*
X136163816Y-118041000D01*
X135996184Y-118041000D01*
X135831772Y-118008297D01*
X135676900Y-117944147D01*
X135537519Y-117851015D01*
X135418985Y-117732481D01*
X135325853Y-117593100D01*
X135261703Y-117438228D01*
X135229000Y-117273816D01*
X135229000Y-117106184D01*
X135261703Y-116941772D01*
X135325853Y-116786900D01*
X135418985Y-116647519D01*
X135537519Y-116528985D01*
X135676900Y-116435853D01*
X135831772Y-116371703D01*
X135996184Y-116339000D01*
X136163816Y-116339000D01*
X136328228Y-116371703D01*
G37*
G36*
X138868228Y-116371703D02*
G01*
X139023100Y-116435853D01*
X139162481Y-116528985D01*
X139281015Y-116647519D01*
X139374147Y-116786900D01*
X139438297Y-116941772D01*
X139471000Y-117106184D01*
X139471000Y-117273816D01*
X139438297Y-117438228D01*
X139374147Y-117593100D01*
X139281015Y-117732481D01*
X139162481Y-117851015D01*
X139023100Y-117944147D01*
X138868228Y-118008297D01*
X138703816Y-118041000D01*
X138536184Y-118041000D01*
X138371772Y-118008297D01*
X138216900Y-117944147D01*
X138077519Y-117851015D01*
X137958985Y-117732481D01*
X137865853Y-117593100D01*
X137801703Y-117438228D01*
X137769000Y-117273816D01*
X137769000Y-117106184D01*
X137801703Y-116941772D01*
X137865853Y-116786900D01*
X137958985Y-116647519D01*
X138077519Y-116528985D01*
X138216900Y-116435853D01*
X138371772Y-116371703D01*
X138536184Y-116339000D01*
X138703816Y-116339000D01*
X138868228Y-116371703D01*
G37*
G36*
X131195285Y-113668234D02*
G01*
X131291981Y-113687468D01*
X131474151Y-113762926D01*
X131638100Y-113872473D01*
X131777527Y-114011900D01*
X131887074Y-114175849D01*
X131962532Y-114358019D01*
X132001000Y-114551410D01*
X132001000Y-114748590D01*
X131962532Y-114941981D01*
X131887074Y-115124151D01*
X131777527Y-115288100D01*
X131638100Y-115427527D01*
X131474151Y-115537074D01*
X131291981Y-115612532D01*
X131195285Y-115631766D01*
X131098591Y-115651000D01*
X130901409Y-115651000D01*
X130804715Y-115631766D01*
X130708019Y-115612532D01*
X130525849Y-115537074D01*
X130361900Y-115427527D01*
X130222473Y-115288100D01*
X130112926Y-115124151D01*
X130037468Y-114941981D01*
X129999000Y-114748590D01*
X129999000Y-114551410D01*
X130037468Y-114358019D01*
X130112926Y-114175849D01*
X130222473Y-114011900D01*
X130361900Y-113872473D01*
X130525849Y-113762926D01*
X130708019Y-113687468D01*
X130804715Y-113668234D01*
X130901409Y-113649000D01*
X131098591Y-113649000D01*
X131195285Y-113668234D01*
G37*
G36*
X123628228Y-113831703D02*
G01*
X123783100Y-113895853D01*
X123922481Y-113988985D01*
X124041015Y-114107519D01*
X124134147Y-114246900D01*
X124198297Y-114401772D01*
X124231000Y-114566184D01*
X124231000Y-114733816D01*
X124198297Y-114898228D01*
X124134147Y-115053100D01*
X124041015Y-115192481D01*
X123922481Y-115311015D01*
X123783100Y-115404147D01*
X123628228Y-115468297D01*
X123463816Y-115501000D01*
X123296184Y-115501000D01*
X123131772Y-115468297D01*
X122976900Y-115404147D01*
X122837519Y-115311015D01*
X122718985Y-115192481D01*
X122625853Y-115053100D01*
X122561703Y-114898228D01*
X122529000Y-114733816D01*
X122529000Y-114566184D01*
X122561703Y-114401772D01*
X122625853Y-114246900D01*
X122718985Y-114107519D01*
X122837519Y-113988985D01*
X122976900Y-113895853D01*
X123131772Y-113831703D01*
X123296184Y-113799000D01*
X123463816Y-113799000D01*
X123628228Y-113831703D01*
G37*
G36*
X138868228Y-113831703D02*
G01*
X139023100Y-113895853D01*
X139162481Y-113988985D01*
X139281015Y-114107519D01*
X139374147Y-114246900D01*
X139438297Y-114401772D01*
X139471000Y-114566184D01*
X139471000Y-114733816D01*
X139438297Y-114898228D01*
X139374147Y-115053100D01*
X139281015Y-115192481D01*
X139162481Y-115311015D01*
X139023100Y-115404147D01*
X138868228Y-115468297D01*
X138703816Y-115501000D01*
X138536184Y-115501000D01*
X138371772Y-115468297D01*
X138216900Y-115404147D01*
X138077519Y-115311015D01*
X137958985Y-115192481D01*
X137865853Y-115053100D01*
X137801703Y-114898228D01*
X137769000Y-114733816D01*
X137769000Y-114566184D01*
X137801703Y-114401772D01*
X137865853Y-114246900D01*
X137958985Y-114107519D01*
X138077519Y-113988985D01*
X138216900Y-113895853D01*
X138371772Y-113831703D01*
X138536184Y-113799000D01*
X138703816Y-113799000D01*
X138868228Y-113831703D01*
G37*
G36*
X136328228Y-113831703D02*
G01*
X136483100Y-113895853D01*
X136622481Y-113988985D01*
X136741015Y-114107519D01*
X136834147Y-114246900D01*
X136898297Y-114401772D01*
X136931000Y-114566184D01*
X136931000Y-114733816D01*
X136898297Y-114898228D01*
X136834147Y-115053100D01*
X136741015Y-115192481D01*
X136622481Y-115311015D01*
X136483100Y-115404147D01*
X136328228Y-115468297D01*
X136163816Y-115501000D01*
X135996184Y-115501000D01*
X135831772Y-115468297D01*
X135676900Y-115404147D01*
X135537519Y-115311015D01*
X135418985Y-115192481D01*
X135325853Y-115053100D01*
X135261703Y-114898228D01*
X135229000Y-114733816D01*
X135229000Y-114566184D01*
X135261703Y-114401772D01*
X135325853Y-114246900D01*
X135418985Y-114107519D01*
X135537519Y-113988985D01*
X135676900Y-113895853D01*
X135831772Y-113831703D01*
X135996184Y-113799000D01*
X136163816Y-113799000D01*
X136328228Y-113831703D01*
G37*
G36*
X138868228Y-111291703D02*
G01*
X139023100Y-111355853D01*
X139162481Y-111448985D01*
X139281015Y-111567519D01*
X139374147Y-111706900D01*
X139438297Y-111861772D01*
X139471000Y-112026184D01*
X139471000Y-112193816D01*
X139438297Y-112358228D01*
X139374147Y-112513100D01*
X139281015Y-112652481D01*
X139162481Y-112771015D01*
X139023100Y-112864147D01*
X138868228Y-112928297D01*
X138703816Y-112961000D01*
X138536184Y-112961000D01*
X138371772Y-112928297D01*
X138216900Y-112864147D01*
X138077519Y-112771015D01*
X137958985Y-112652481D01*
X137865853Y-112513100D01*
X137801703Y-112358228D01*
X137769000Y-112193816D01*
X137769000Y-112026184D01*
X137801703Y-111861772D01*
X137865853Y-111706900D01*
X137958985Y-111567519D01*
X138077519Y-111448985D01*
X138216900Y-111355853D01*
X138371772Y-111291703D01*
X138536184Y-111259000D01*
X138703816Y-111259000D01*
X138868228Y-111291703D01*
G37*
G36*
X136328228Y-111291703D02*
G01*
X136483100Y-111355853D01*
X136622481Y-111448985D01*
X136741015Y-111567519D01*
X136834147Y-111706900D01*
X136898297Y-111861772D01*
X136931000Y-112026184D01*
X136931000Y-112193816D01*
X136898297Y-112358228D01*
X136834147Y-112513100D01*
X136741015Y-112652481D01*
X136622481Y-112771015D01*
X136483100Y-112864147D01*
X136328228Y-112928297D01*
X136163816Y-112961000D01*
X135996184Y-112961000D01*
X135831772Y-112928297D01*
X135676900Y-112864147D01*
X135537519Y-112771015D01*
X135418985Y-112652481D01*
X135325853Y-112513100D01*
X135261703Y-112358228D01*
X135229000Y-112193816D01*
X135229000Y-112026184D01*
X135261703Y-111861772D01*
X135325853Y-111706900D01*
X135418985Y-111567519D01*
X135537519Y-111448985D01*
X135676900Y-111355853D01*
X135831772Y-111291703D01*
X135996184Y-111259000D01*
X136163816Y-111259000D01*
X136328228Y-111291703D01*
G37*
G36*
X123628228Y-111291703D02*
G01*
X123783100Y-111355853D01*
X123922481Y-111448985D01*
X124041015Y-111567519D01*
X124134147Y-111706900D01*
X124198297Y-111861772D01*
X124231000Y-112026184D01*
X124231000Y-112193816D01*
X124198297Y-112358228D01*
X124134147Y-112513100D01*
X124041015Y-112652481D01*
X123922481Y-112771015D01*
X123783100Y-112864147D01*
X123628228Y-112928297D01*
X123463816Y-112961000D01*
X123296184Y-112961000D01*
X123131772Y-112928297D01*
X122976900Y-112864147D01*
X122837519Y-112771015D01*
X122718985Y-112652481D01*
X122625853Y-112513100D01*
X122561703Y-112358228D01*
X122529000Y-112193816D01*
X122529000Y-112026184D01*
X122561703Y-111861772D01*
X122625853Y-111706900D01*
X122718985Y-111567519D01*
X122837519Y-111448985D01*
X122976900Y-111355853D01*
X123131772Y-111291703D01*
X123296184Y-111259000D01*
X123463816Y-111259000D01*
X123628228Y-111291703D01*
G37*
G36*
X131291981Y-109877468D02*
G01*
X131474151Y-109952926D01*
X131638100Y-110062473D01*
X131777527Y-110201900D01*
X131887074Y-110365849D01*
X131962532Y-110548019D01*
X132001000Y-110741410D01*
X132001000Y-110938590D01*
X131962532Y-111131981D01*
X131887074Y-111314151D01*
X131777527Y-111478100D01*
X131638100Y-111617527D01*
X131474151Y-111727074D01*
X131291981Y-111802532D01*
X131195285Y-111821766D01*
X131098591Y-111841000D01*
X130901409Y-111841000D01*
X130804715Y-111821766D01*
X130708019Y-111802532D01*
X130525849Y-111727074D01*
X130361900Y-111617527D01*
X130222473Y-111478100D01*
X130112926Y-111314151D01*
X130037468Y-111131981D01*
X129999000Y-110938590D01*
X129999000Y-110741410D01*
X130037468Y-110548019D01*
X130112926Y-110365849D01*
X130222473Y-110201900D01*
X130361900Y-110062473D01*
X130525849Y-109952926D01*
X130708019Y-109877468D01*
X130901409Y-109839000D01*
X131098591Y-109839000D01*
X131291981Y-109877468D01*
G37*
G36*
X123628228Y-108751703D02*
G01*
X123783100Y-108815853D01*
X123922481Y-108908985D01*
X124041015Y-109027519D01*
X124134147Y-109166900D01*
X124198297Y-109321772D01*
X124231000Y-109486184D01*
X124231000Y-109653816D01*
X124198297Y-109818228D01*
X124134147Y-109973100D01*
X124041015Y-110112481D01*
X123922481Y-110231015D01*
X123783100Y-110324147D01*
X123628228Y-110388297D01*
X123463816Y-110421000D01*
X123296184Y-110421000D01*
X123131772Y-110388297D01*
X122976900Y-110324147D01*
X122837519Y-110231015D01*
X122718985Y-110112481D01*
X122625853Y-109973100D01*
X122561703Y-109818228D01*
X122529000Y-109653816D01*
X122529000Y-109486184D01*
X122561703Y-109321772D01*
X122625853Y-109166900D01*
X122718985Y-109027519D01*
X122837519Y-108908985D01*
X122976900Y-108815853D01*
X123131772Y-108751703D01*
X123296184Y-108719000D01*
X123463816Y-108719000D01*
X123628228Y-108751703D01*
G37*
G36*
X138868228Y-108751703D02*
G01*
X139023100Y-108815853D01*
X139162481Y-108908985D01*
X139281015Y-109027519D01*
X139374147Y-109166900D01*
X139438297Y-109321772D01*
X139471000Y-109486184D01*
X139471000Y-109653816D01*
X139438297Y-109818228D01*
X139374147Y-109973100D01*
X139281015Y-110112481D01*
X139162481Y-110231015D01*
X139023100Y-110324147D01*
X138868228Y-110388297D01*
X138703816Y-110421000D01*
X138536184Y-110421000D01*
X138371772Y-110388297D01*
X138216900Y-110324147D01*
X138077519Y-110231015D01*
X137958985Y-110112481D01*
X137865853Y-109973100D01*
X137801703Y-109818228D01*
X137769000Y-109653816D01*
X137769000Y-109486184D01*
X137801703Y-109321772D01*
X137865853Y-109166900D01*
X137958985Y-109027519D01*
X138077519Y-108908985D01*
X138216900Y-108815853D01*
X138371772Y-108751703D01*
X138536184Y-108719000D01*
X138703816Y-108719000D01*
X138868228Y-108751703D01*
G37*
G36*
X123628228Y-106211703D02*
G01*
X123783100Y-106275853D01*
X123922481Y-106368985D01*
X124041015Y-106487519D01*
X124134147Y-106626900D01*
X124198297Y-106781772D01*
X124231000Y-106946184D01*
X124231000Y-107113816D01*
X124198297Y-107278228D01*
X124134147Y-107433100D01*
X124041015Y-107572481D01*
X123922481Y-107691015D01*
X123783100Y-107784147D01*
X123628228Y-107848297D01*
X123463816Y-107881000D01*
X123296184Y-107881000D01*
X123131772Y-107848297D01*
X122976900Y-107784147D01*
X122837519Y-107691015D01*
X122718985Y-107572481D01*
X122625853Y-107433100D01*
X122561703Y-107278228D01*
X122529000Y-107113816D01*
X122529000Y-106946184D01*
X122561703Y-106781772D01*
X122625853Y-106626900D01*
X122718985Y-106487519D01*
X122837519Y-106368985D01*
X122976900Y-106275853D01*
X123131772Y-106211703D01*
X123296184Y-106179000D01*
X123463816Y-106179000D01*
X123628228Y-106211703D01*
G37*
G36*
X138868228Y-106211703D02*
G01*
X139023100Y-106275853D01*
X139162481Y-106368985D01*
X139281015Y-106487519D01*
X139374147Y-106626900D01*
X139438297Y-106781772D01*
X139471000Y-106946184D01*
X139471000Y-107113816D01*
X139438297Y-107278228D01*
X139374147Y-107433100D01*
X139281015Y-107572481D01*
X139162481Y-107691015D01*
X139023100Y-107784147D01*
X138868228Y-107848297D01*
X138703816Y-107881000D01*
X138536184Y-107881000D01*
X138371772Y-107848297D01*
X138216900Y-107784147D01*
X138077519Y-107691015D01*
X137958985Y-107572481D01*
X137865853Y-107433100D01*
X137801703Y-107278228D01*
X137769000Y-107113816D01*
X137769000Y-106946184D01*
X137801703Y-106781772D01*
X137865853Y-106626900D01*
X137958985Y-106487519D01*
X138077519Y-106368985D01*
X138216900Y-106275853D01*
X138371772Y-106211703D01*
X138536184Y-106179000D01*
X138703816Y-106179000D01*
X138868228Y-106211703D01*
G37*
G36*
X136328228Y-106211703D02*
G01*
X136483100Y-106275853D01*
X136622481Y-106368985D01*
X136741015Y-106487519D01*
X136834147Y-106626900D01*
X136898297Y-106781772D01*
X136931000Y-106946184D01*
X136931000Y-107113816D01*
X136898297Y-107278228D01*
X136834147Y-107433100D01*
X136741015Y-107572481D01*
X136622481Y-107691015D01*
X136483100Y-107784147D01*
X136328228Y-107848297D01*
X136163816Y-107881000D01*
X135996184Y-107881000D01*
X135831772Y-107848297D01*
X135676900Y-107784147D01*
X135537519Y-107691015D01*
X135418985Y-107572481D01*
X135325853Y-107433100D01*
X135261703Y-107278228D01*
X135229000Y-107113816D01*
X135229000Y-106946184D01*
X135261703Y-106781772D01*
X135325853Y-106626900D01*
X135418985Y-106487519D01*
X135537519Y-106368985D01*
X135676900Y-106275853D01*
X135831772Y-106211703D01*
X135996184Y-106179000D01*
X136163816Y-106179000D01*
X136328228Y-106211703D01*
G37*
G36*
X124231000Y-105341000D02*
G01*
X122529000Y-105341000D01*
X122529000Y-103639000D01*
X124231000Y-103639000D01*
X124231000Y-105341000D01*
G37*
G36*
X138868228Y-103671703D02*
G01*
X139023100Y-103735853D01*
X139162481Y-103828985D01*
X139281015Y-103947519D01*
X139374147Y-104086900D01*
X139438297Y-104241772D01*
X139471000Y-104406184D01*
X139471000Y-104573816D01*
X139438297Y-104738228D01*
X139374147Y-104893100D01*
X139281015Y-105032481D01*
X139162481Y-105151015D01*
X139023100Y-105244147D01*
X138868228Y-105308297D01*
X138703816Y-105341000D01*
X138536184Y-105341000D01*
X138371772Y-105308297D01*
X138216900Y-105244147D01*
X138077519Y-105151015D01*
X137958985Y-105032481D01*
X137865853Y-104893100D01*
X137801703Y-104738228D01*
X137769000Y-104573816D01*
X137769000Y-104406184D01*
X137801703Y-104241772D01*
X137865853Y-104086900D01*
X137958985Y-103947519D01*
X138077519Y-103828985D01*
X138216900Y-103735853D01*
X138371772Y-103671703D01*
X138536184Y-103639000D01*
X138703816Y-103639000D01*
X138868228Y-103671703D01*
G37*
G36*
X133162497Y-93238863D02*
G01*
X133262372Y-93258729D01*
X133379279Y-93307154D01*
X133544611Y-93375636D01*
X133798621Y-93545360D01*
X134014640Y-93761379D01*
X134184364Y-94015389D01*
X134301271Y-94297629D01*
X134360870Y-94597251D01*
X134360870Y-94902749D01*
X134301271Y-95202371D01*
X134184364Y-95484611D01*
X134014640Y-95738621D01*
X133798621Y-95954640D01*
X133544611Y-96124364D01*
X133379279Y-96192846D01*
X133262372Y-96241271D01*
X133162497Y-96261137D01*
X132962749Y-96300870D01*
X132657251Y-96300870D01*
X132457503Y-96261137D01*
X132357628Y-96241271D01*
X132240721Y-96192846D01*
X132075389Y-96124364D01*
X131821379Y-95954640D01*
X131605360Y-95738621D01*
X131435636Y-95484611D01*
X131318729Y-95202371D01*
X131259130Y-94902749D01*
X131259130Y-94597251D01*
X131318729Y-94297629D01*
X131435636Y-94015389D01*
X131605360Y-93761379D01*
X131821379Y-93545360D01*
X132075389Y-93375636D01*
X132240721Y-93307154D01*
X132357628Y-93258729D01*
X132457503Y-93238863D01*
X132657251Y-93199130D01*
X132962749Y-93199130D01*
X133162497Y-93238863D01*
G37*
G36*
X130550870Y-96300870D02*
G01*
X127449130Y-96300870D01*
X127449130Y-93199130D01*
X130550870Y-93199130D01*
X130550870Y-96300870D01*
G37*
G36*
X198496162Y-77264368D02*
G01*
X198805724Y-77392593D01*
X198805725Y-77392594D01*
X199084324Y-77578747D01*
X199321253Y-77815676D01*
X199445637Y-78001830D01*
X199507407Y-78094276D01*
X199635632Y-78403838D01*
X199701000Y-78732465D01*
X199701000Y-79067535D01*
X199635632Y-79396162D01*
X199507407Y-79705724D01*
X199507406Y-79705725D01*
X199321253Y-79984324D01*
X199084324Y-80221253D01*
X198898170Y-80345637D01*
X198805724Y-80407407D01*
X198496162Y-80535632D01*
X198167535Y-80601000D01*
X197832465Y-80601000D01*
X197503838Y-80535632D01*
X197194276Y-80407407D01*
X197101830Y-80345637D01*
X196915676Y-80221253D01*
X196678747Y-79984324D01*
X196492594Y-79705725D01*
X196492593Y-79705724D01*
X196364368Y-79396162D01*
X196299000Y-79067535D01*
X196299000Y-78732465D01*
X196364368Y-78403838D01*
X196492593Y-78094276D01*
X196554363Y-78001830D01*
X196678747Y-77815676D01*
X196915676Y-77578747D01*
X197194275Y-77392594D01*
X197194276Y-77392593D01*
X197503838Y-77264368D01*
X197832465Y-77199000D01*
X198167535Y-77199000D01*
X198496162Y-77264368D01*
G37*
G36*
X148496162Y-77264368D02*
G01*
X148805724Y-77392593D01*
X148805725Y-77392594D01*
X149084324Y-77578747D01*
X149321253Y-77815676D01*
X149445637Y-78001830D01*
X149507407Y-78094276D01*
X149635632Y-78403838D01*
X149701000Y-78732465D01*
X149701000Y-79067535D01*
X149635632Y-79396162D01*
X149507407Y-79705724D01*
X149507406Y-79705725D01*
X149321253Y-79984324D01*
X149084324Y-80221253D01*
X148898170Y-80345637D01*
X148805724Y-80407407D01*
X148496162Y-80535632D01*
X148167535Y-80601000D01*
X147832465Y-80601000D01*
X147503838Y-80535632D01*
X147194276Y-80407407D01*
X147101830Y-80345637D01*
X146915676Y-80221253D01*
X146678747Y-79984324D01*
X146492594Y-79705725D01*
X146492593Y-79705724D01*
X146364368Y-79396162D01*
X146299000Y-79067535D01*
X146299000Y-78732465D01*
X146364368Y-78403838D01*
X146492593Y-78094276D01*
X146554363Y-78001830D01*
X146678747Y-77815676D01*
X146915676Y-77578747D01*
X147194275Y-77392594D01*
X147194276Y-77392593D01*
X147503838Y-77264368D01*
X147832465Y-77199000D01*
X148167535Y-77199000D01*
X148496162Y-77264368D01*
G37*
G36*
X173496162Y-77264368D02*
G01*
X173805724Y-77392593D01*
X173805725Y-77392594D01*
X174084324Y-77578747D01*
X174321253Y-77815676D01*
X174445637Y-78001830D01*
X174507407Y-78094276D01*
X174635632Y-78403838D01*
X174701000Y-78732465D01*
X174701000Y-79067535D01*
X174635632Y-79396162D01*
X174507407Y-79705724D01*
X174507406Y-79705725D01*
X174321253Y-79984324D01*
X174084324Y-80221253D01*
X173898170Y-80345637D01*
X173805724Y-80407407D01*
X173496162Y-80535632D01*
X173167535Y-80601000D01*
X172832465Y-80601000D01*
X172503838Y-80535632D01*
X172194276Y-80407407D01*
X172101830Y-80345637D01*
X171915676Y-80221253D01*
X171678747Y-79984324D01*
X171492594Y-79705725D01*
X171492593Y-79705724D01*
X171364368Y-79396162D01*
X171299000Y-79067535D01*
X171299000Y-78732465D01*
X171364368Y-78403838D01*
X171492593Y-78094276D01*
X171554363Y-78001830D01*
X171678747Y-77815676D01*
X171915676Y-77578747D01*
X172194275Y-77392594D01*
X172194276Y-77392593D01*
X172503838Y-77264368D01*
X172832465Y-77199000D01*
X173167535Y-77199000D01*
X173496162Y-77264368D01*
G37*
G36*
X126735245Y-69240080D02*
G01*
X126803315Y-69253620D01*
X126995677Y-69333299D01*
X127168798Y-69448975D01*
X127316025Y-69596202D01*
X127431701Y-69769323D01*
X127511380Y-69961685D01*
X127552000Y-70165895D01*
X127552000Y-70374105D01*
X127511380Y-70578315D01*
X127431701Y-70770677D01*
X127316025Y-70943798D01*
X127168798Y-71091025D01*
X126995677Y-71206701D01*
X126803315Y-71286380D01*
X126735245Y-71299920D01*
X126599107Y-71327000D01*
X126390893Y-71327000D01*
X126254755Y-71299920D01*
X126186685Y-71286380D01*
X125994323Y-71206701D01*
X125821202Y-71091025D01*
X125673975Y-70943798D01*
X125558299Y-70770677D01*
X125478620Y-70578315D01*
X125438000Y-70374105D01*
X125438000Y-70165895D01*
X125478620Y-69961685D01*
X125558299Y-69769323D01*
X125673975Y-69596202D01*
X125821202Y-69448975D01*
X125994323Y-69333299D01*
X126186685Y-69253620D01*
X126254755Y-69240080D01*
X126390893Y-69213000D01*
X126599107Y-69213000D01*
X126735245Y-69240080D01*
G37*
G36*
X122005245Y-69240080D02*
G01*
X122073315Y-69253620D01*
X122265677Y-69333299D01*
X122438798Y-69448975D01*
X122586025Y-69596202D01*
X122701701Y-69769323D01*
X122781380Y-69961685D01*
X122822000Y-70165895D01*
X122822000Y-70374105D01*
X122781380Y-70578315D01*
X122701701Y-70770677D01*
X122586025Y-70943798D01*
X122438798Y-71091025D01*
X122265677Y-71206701D01*
X122073315Y-71286380D01*
X122005245Y-71299920D01*
X121869107Y-71327000D01*
X121660893Y-71327000D01*
X121524755Y-71299920D01*
X121456685Y-71286380D01*
X121264323Y-71206701D01*
X121091202Y-71091025D01*
X120943975Y-70943798D01*
X120828299Y-70770677D01*
X120748620Y-70578315D01*
X120708000Y-70374105D01*
X120708000Y-70165895D01*
X120748620Y-69961685D01*
X120828299Y-69769323D01*
X120943975Y-69596202D01*
X121091202Y-69448975D01*
X121264323Y-69333299D01*
X121456685Y-69253620D01*
X121524755Y-69240080D01*
X121660893Y-69213000D01*
X121869107Y-69213000D01*
X122005245Y-69240080D01*
G37*
G36*
X127754672Y-62838449D02*
G01*
X127754674Y-62838450D01*
X127754675Y-62838450D01*
X127823103Y-62866793D01*
X127884686Y-62907942D01*
X127937058Y-62960314D01*
X127978207Y-63021897D01*
X128006550Y-63090325D01*
X128006551Y-63090328D01*
X128021000Y-63162966D01*
X128021000Y-63237034D01*
X128020719Y-63238449D01*
X128006550Y-63309675D01*
X127978207Y-63378103D01*
X127937058Y-63439686D01*
X127884686Y-63492058D01*
X127878679Y-63496072D01*
X127859744Y-63511612D01*
X127844199Y-63530553D01*
X127832647Y-63552164D01*
X127825534Y-63575613D01*
X127823132Y-63599999D01*
X127825534Y-63624385D01*
X127832647Y-63647834D01*
X127844197Y-63669445D01*
X127859743Y-63688387D01*
X127878679Y-63703928D01*
X127884686Y-63707942D01*
X127937058Y-63760314D01*
X127978207Y-63821897D01*
X128006550Y-63890325D01*
X128006551Y-63890328D01*
X128021000Y-63962966D01*
X128021000Y-64037034D01*
X128010785Y-64088388D01*
X128006550Y-64109675D01*
X127978207Y-64178103D01*
X127937058Y-64239686D01*
X127884686Y-64292058D01*
X127878679Y-64296072D01*
X127859744Y-64311612D01*
X127844199Y-64330553D01*
X127832647Y-64352164D01*
X127825534Y-64375613D01*
X127823132Y-64399999D01*
X127825534Y-64424385D01*
X127832647Y-64447834D01*
X127844197Y-64469445D01*
X127859743Y-64488387D01*
X127878679Y-64503928D01*
X127884686Y-64507942D01*
X127937058Y-64560314D01*
X127978207Y-64621897D01*
X128006550Y-64690325D01*
X128006551Y-64690328D01*
X128021000Y-64762966D01*
X128021000Y-64837034D01*
X128010785Y-64888388D01*
X128006550Y-64909675D01*
X127978207Y-64978103D01*
X127937058Y-65039686D01*
X127884686Y-65092058D01*
X127878679Y-65096072D01*
X127859744Y-65111612D01*
X127844199Y-65130553D01*
X127832647Y-65152164D01*
X127825534Y-65175613D01*
X127823132Y-65199999D01*
X127825534Y-65224385D01*
X127832647Y-65247834D01*
X127844197Y-65269445D01*
X127859743Y-65288387D01*
X127878679Y-65303928D01*
X127884686Y-65307942D01*
X127937058Y-65360314D01*
X127978207Y-65421897D01*
X128006550Y-65490325D01*
X128006551Y-65490328D01*
X128021000Y-65562966D01*
X128021000Y-65637034D01*
X128006551Y-65709672D01*
X128006550Y-65709674D01*
X128006550Y-65709675D01*
X127978207Y-65778103D01*
X127937058Y-65839686D01*
X127884686Y-65892058D01*
X127878679Y-65896072D01*
X127859744Y-65911612D01*
X127844199Y-65930553D01*
X127832647Y-65952164D01*
X127825534Y-65975613D01*
X127823132Y-65999999D01*
X127825534Y-66024385D01*
X127832647Y-66047834D01*
X127844197Y-66069445D01*
X127859743Y-66088387D01*
X127878679Y-66103928D01*
X127884686Y-66107942D01*
X127937058Y-66160314D01*
X127978207Y-66221897D01*
X128006550Y-66290325D01*
X128006551Y-66290328D01*
X128021000Y-66362966D01*
X128021000Y-66437034D01*
X128020719Y-66438449D01*
X128006550Y-66509675D01*
X127978207Y-66578103D01*
X127937058Y-66639686D01*
X127884686Y-66692058D01*
X127878679Y-66696072D01*
X127859744Y-66711612D01*
X127844199Y-66730553D01*
X127832647Y-66752164D01*
X127825534Y-66775613D01*
X127823132Y-66799999D01*
X127825534Y-66824385D01*
X127832647Y-66847834D01*
X127844197Y-66869445D01*
X127859743Y-66888387D01*
X127878679Y-66903928D01*
X127884686Y-66907942D01*
X127937058Y-66960314D01*
X127978207Y-67021897D01*
X128006550Y-67090325D01*
X128006551Y-67090328D01*
X128021000Y-67162966D01*
X128021000Y-67237034D01*
X128010785Y-67288388D01*
X128006550Y-67309675D01*
X127978207Y-67378103D01*
X127937058Y-67439686D01*
X127884686Y-67492058D01*
X127878679Y-67496072D01*
X127859744Y-67511612D01*
X127844199Y-67530553D01*
X127832647Y-67552164D01*
X127825534Y-67575613D01*
X127823132Y-67599999D01*
X127825534Y-67624385D01*
X127832647Y-67647834D01*
X127844197Y-67669445D01*
X127859743Y-67688387D01*
X127878679Y-67703928D01*
X127884686Y-67707942D01*
X127937058Y-67760314D01*
X127978207Y-67821897D01*
X128006550Y-67890325D01*
X128006551Y-67890328D01*
X128021000Y-67962966D01*
X128021000Y-68037034D01*
X128010785Y-68088388D01*
X128006550Y-68109675D01*
X127978207Y-68178103D01*
X127937058Y-68239686D01*
X127884686Y-68292058D01*
X127878679Y-68296072D01*
X127859744Y-68311612D01*
X127844199Y-68330553D01*
X127832647Y-68352164D01*
X127825534Y-68375613D01*
X127823132Y-68399999D01*
X127825534Y-68424385D01*
X127832647Y-68447834D01*
X127844197Y-68469445D01*
X127859743Y-68488387D01*
X127878679Y-68503928D01*
X127884686Y-68507942D01*
X127937058Y-68560314D01*
X127978207Y-68621897D01*
X128006550Y-68690325D01*
X128006551Y-68690328D01*
X128021000Y-68762966D01*
X128021000Y-68837034D01*
X128006551Y-68909672D01*
X128006550Y-68909674D01*
X128006550Y-68909675D01*
X127978207Y-68978103D01*
X127937058Y-69039686D01*
X127884686Y-69092058D01*
X127823103Y-69133207D01*
X127754675Y-69161550D01*
X127754674Y-69161550D01*
X127754672Y-69161551D01*
X127682034Y-69176000D01*
X127607966Y-69176000D01*
X127535328Y-69161551D01*
X127535326Y-69161550D01*
X127535325Y-69161550D01*
X127466897Y-69133207D01*
X127405314Y-69092058D01*
X127352942Y-69039686D01*
X127311793Y-68978103D01*
X127283450Y-68909675D01*
X127283449Y-68909673D01*
X127268528Y-68834662D01*
X127261415Y-68811214D01*
X127249864Y-68789603D01*
X127234318Y-68770661D01*
X127215376Y-68755116D01*
X127193766Y-68743565D01*
X127170317Y-68736452D01*
X127145931Y-68734050D01*
X127121544Y-68736452D01*
X127098096Y-68743565D01*
X127054674Y-68761551D01*
X126982034Y-68776000D01*
X126907966Y-68776000D01*
X126835328Y-68761551D01*
X126835326Y-68761550D01*
X126835325Y-68761550D01*
X126766897Y-68733207D01*
X126705314Y-68692058D01*
X126652942Y-68639686D01*
X126611793Y-68578103D01*
X126583450Y-68509675D01*
X126571149Y-68447834D01*
X126569000Y-68437034D01*
X126569000Y-68362966D01*
X126583449Y-68290328D01*
X126583450Y-68290325D01*
X126611793Y-68221897D01*
X126652942Y-68160314D01*
X126705314Y-68107942D01*
X126711321Y-68103928D01*
X126730256Y-68088388D01*
X126745801Y-68069447D01*
X126757353Y-68047836D01*
X126764466Y-68024387D01*
X126766868Y-68000001D01*
X126764466Y-67975615D01*
X126757353Y-67952166D01*
X126745803Y-67930555D01*
X126730257Y-67911613D01*
X126711321Y-67896072D01*
X126705314Y-67892058D01*
X126652942Y-67839686D01*
X126611793Y-67778103D01*
X126583450Y-67709675D01*
X126571149Y-67647834D01*
X126569000Y-67637034D01*
X126569000Y-67562966D01*
X126583449Y-67490328D01*
X126583450Y-67490325D01*
X126611793Y-67421897D01*
X126652942Y-67360314D01*
X126705314Y-67307942D01*
X126711321Y-67303928D01*
X126730256Y-67288388D01*
X126745801Y-67269447D01*
X126757353Y-67247836D01*
X126764466Y-67224387D01*
X126766868Y-67200001D01*
X126764466Y-67175615D01*
X126757353Y-67152166D01*
X126745803Y-67130555D01*
X126730257Y-67111613D01*
X126711321Y-67096072D01*
X126705314Y-67092058D01*
X126652942Y-67039686D01*
X126611793Y-66978103D01*
X126583450Y-66909675D01*
X126571149Y-66847834D01*
X126569000Y-66837034D01*
X126569000Y-66762966D01*
X126583449Y-66690328D01*
X126583450Y-66690325D01*
X126611793Y-66621897D01*
X126652942Y-66560314D01*
X126705314Y-66507942D01*
X126766897Y-66466793D01*
X126835325Y-66438450D01*
X126835326Y-66438450D01*
X126835328Y-66438449D01*
X126907966Y-66424000D01*
X126982034Y-66424000D01*
X127054674Y-66438449D01*
X127098096Y-66456435D01*
X127121545Y-66463548D01*
X127145931Y-66465950D01*
X127170317Y-66463548D01*
X127193766Y-66456435D01*
X127215376Y-66444884D01*
X127234318Y-66429339D01*
X127249864Y-66410397D01*
X127261415Y-66388786D01*
X127268528Y-66365338D01*
X127283449Y-66290327D01*
X127287601Y-66280304D01*
X127311793Y-66221897D01*
X127352942Y-66160314D01*
X127405314Y-66107942D01*
X127411321Y-66103928D01*
X127430256Y-66088388D01*
X127445801Y-66069447D01*
X127457353Y-66047836D01*
X127464466Y-66024387D01*
X127466868Y-66000001D01*
X127464466Y-65975615D01*
X127457353Y-65952166D01*
X127445803Y-65930555D01*
X127430257Y-65911613D01*
X127411321Y-65896072D01*
X127405314Y-65892058D01*
X127352942Y-65839686D01*
X127311793Y-65778103D01*
X127283450Y-65709675D01*
X127283449Y-65709673D01*
X127268528Y-65634662D01*
X127261415Y-65611214D01*
X127249864Y-65589603D01*
X127234318Y-65570661D01*
X127215376Y-65555116D01*
X127193766Y-65543565D01*
X127170317Y-65536452D01*
X127145931Y-65534050D01*
X127121544Y-65536452D01*
X127098096Y-65543565D01*
X127054674Y-65561551D01*
X126982034Y-65576000D01*
X126907966Y-65576000D01*
X126835328Y-65561551D01*
X126835326Y-65561550D01*
X126835325Y-65561550D01*
X126766897Y-65533207D01*
X126705314Y-65492058D01*
X126652942Y-65439686D01*
X126611793Y-65378103D01*
X126583450Y-65309675D01*
X126571149Y-65247834D01*
X126569000Y-65237034D01*
X126569000Y-65162966D01*
X126583449Y-65090328D01*
X126583450Y-65090325D01*
X126611793Y-65021897D01*
X126652942Y-64960314D01*
X126705314Y-64907942D01*
X126711321Y-64903928D01*
X126730256Y-64888388D01*
X126745801Y-64869447D01*
X126757353Y-64847836D01*
X126764466Y-64824387D01*
X126766868Y-64800001D01*
X126764466Y-64775615D01*
X126757353Y-64752166D01*
X126745803Y-64730555D01*
X126730257Y-64711613D01*
X126711321Y-64696072D01*
X126705314Y-64692058D01*
X126652942Y-64639686D01*
X126611793Y-64578103D01*
X126583450Y-64509675D01*
X126571149Y-64447834D01*
X126569000Y-64437034D01*
X126569000Y-64362966D01*
X126583449Y-64290328D01*
X126583450Y-64290325D01*
X126611793Y-64221897D01*
X126652942Y-64160314D01*
X126705314Y-64107942D01*
X126711321Y-64103928D01*
X126730256Y-64088388D01*
X126745801Y-64069447D01*
X126757353Y-64047836D01*
X126764466Y-64024387D01*
X126766868Y-64000001D01*
X126764466Y-63975615D01*
X126757353Y-63952166D01*
X126745803Y-63930555D01*
X126730257Y-63911613D01*
X126711321Y-63896072D01*
X126705314Y-63892058D01*
X126652942Y-63839686D01*
X126611793Y-63778103D01*
X126583450Y-63709675D01*
X126571149Y-63647834D01*
X126569000Y-63637034D01*
X126569000Y-63562966D01*
X126583449Y-63490328D01*
X126583450Y-63490325D01*
X126611793Y-63421897D01*
X126652942Y-63360314D01*
X126705314Y-63307942D01*
X126766897Y-63266793D01*
X126835325Y-63238450D01*
X126835326Y-63238450D01*
X126835328Y-63238449D01*
X126907966Y-63224000D01*
X126982034Y-63224000D01*
X127054674Y-63238449D01*
X127098096Y-63256435D01*
X127121545Y-63263548D01*
X127145931Y-63265950D01*
X127170317Y-63263548D01*
X127193766Y-63256435D01*
X127215376Y-63244884D01*
X127234318Y-63229339D01*
X127249864Y-63210397D01*
X127261415Y-63188786D01*
X127268528Y-63165338D01*
X127283449Y-63090327D01*
X127287601Y-63080304D01*
X127311793Y-63021897D01*
X127352942Y-62960314D01*
X127405314Y-62907942D01*
X127466897Y-62866793D01*
X127535325Y-62838450D01*
X127535326Y-62838450D01*
X127535328Y-62838449D01*
X127607966Y-62824000D01*
X127682034Y-62824000D01*
X127754672Y-62838449D01*
G37*
G36*
X122005245Y-60700080D02*
G01*
X122073315Y-60713620D01*
X122265677Y-60793299D01*
X122438798Y-60908975D01*
X122586025Y-61056202D01*
X122701701Y-61229323D01*
X122781380Y-61421685D01*
X122822000Y-61625895D01*
X122822000Y-61834105D01*
X122781380Y-62038315D01*
X122701701Y-62230677D01*
X122586025Y-62403798D01*
X122438798Y-62551025D01*
X122265677Y-62666701D01*
X122073315Y-62746380D01*
X122005245Y-62759920D01*
X121869107Y-62787000D01*
X121660893Y-62787000D01*
X121524755Y-62759920D01*
X121456685Y-62746380D01*
X121264323Y-62666701D01*
X121091202Y-62551025D01*
X120943975Y-62403798D01*
X120828299Y-62230677D01*
X120748620Y-62038315D01*
X120708000Y-61834105D01*
X120708000Y-61625895D01*
X120748620Y-61421685D01*
X120828299Y-61229323D01*
X120943975Y-61056202D01*
X121091202Y-60908975D01*
X121264323Y-60793299D01*
X121456685Y-60713620D01*
X121524755Y-60700080D01*
X121660893Y-60673000D01*
X121869107Y-60673000D01*
X122005245Y-60700080D01*
G37*
G36*
X126735245Y-60700080D02*
G01*
X126803315Y-60713620D01*
X126995677Y-60793299D01*
X127168798Y-60908975D01*
X127316025Y-61056202D01*
X127431701Y-61229323D01*
X127511380Y-61421685D01*
X127552000Y-61625895D01*
X127552000Y-61834105D01*
X127511380Y-62038315D01*
X127431701Y-62230677D01*
X127316025Y-62403798D01*
X127168798Y-62551025D01*
X126995677Y-62666701D01*
X126803315Y-62746380D01*
X126735245Y-62759920D01*
X126599107Y-62787000D01*
X126390893Y-62787000D01*
X126254755Y-62759920D01*
X126186685Y-62746380D01*
X125994323Y-62666701D01*
X125821202Y-62551025D01*
X125673975Y-62403798D01*
X125558299Y-62230677D01*
X125478620Y-62038315D01*
X125438000Y-61834105D01*
X125438000Y-61625895D01*
X125478620Y-61421685D01*
X125558299Y-61229323D01*
X125673975Y-61056202D01*
X125821202Y-60908975D01*
X125994323Y-60793299D01*
X126186685Y-60713620D01*
X126254755Y-60700080D01*
X126390893Y-60673000D01*
X126599107Y-60673000D01*
X126735245Y-60700080D01*
G37*
G36*
X146383690Y-53949479D02*
G01*
X146511780Y-53974957D01*
X146753097Y-54074914D01*
X146970276Y-54220029D01*
X147154971Y-54404724D01*
X147300086Y-54621903D01*
X147400043Y-54863220D01*
X147451000Y-55119400D01*
X147451000Y-55380600D01*
X147400043Y-55636780D01*
X147300086Y-55878097D01*
X147154971Y-56095276D01*
X146970276Y-56279971D01*
X146753097Y-56425086D01*
X146511780Y-56525043D01*
X146383690Y-56550521D01*
X146255601Y-56576000D01*
X145994399Y-56576000D01*
X145866310Y-56550521D01*
X145738220Y-56525043D01*
X145496903Y-56425086D01*
X145279724Y-56279971D01*
X145095029Y-56095276D01*
X144949914Y-55878097D01*
X144849957Y-55636780D01*
X144799000Y-55380600D01*
X144799000Y-55119400D01*
X144849957Y-54863220D01*
X144949914Y-54621903D01*
X145095029Y-54404724D01*
X145279724Y-54220029D01*
X145496903Y-54074914D01*
X145738220Y-53974957D01*
X145866310Y-53949479D01*
X145994399Y-53924000D01*
X146255601Y-53924000D01*
X146383690Y-53949479D01*
G37*
G36*
X171383690Y-53949479D02*
G01*
X171511780Y-53974957D01*
X171753097Y-54074914D01*
X171970276Y-54220029D01*
X172154971Y-54404724D01*
X172300086Y-54621903D01*
X172400043Y-54863220D01*
X172451000Y-55119400D01*
X172451000Y-55380600D01*
X172400043Y-55636780D01*
X172300086Y-55878097D01*
X172154971Y-56095276D01*
X171970276Y-56279971D01*
X171753097Y-56425086D01*
X171511780Y-56525043D01*
X171383690Y-56550521D01*
X171255601Y-56576000D01*
X170994399Y-56576000D01*
X170866310Y-56550521D01*
X170738220Y-56525043D01*
X170496903Y-56425086D01*
X170279724Y-56279971D01*
X170095029Y-56095276D01*
X169949914Y-55878097D01*
X169849957Y-55636780D01*
X169799000Y-55380600D01*
X169799000Y-55119400D01*
X169849957Y-54863220D01*
X169949914Y-54621903D01*
X170095029Y-54404724D01*
X170279724Y-54220029D01*
X170496903Y-54074914D01*
X170738220Y-53974957D01*
X170866310Y-53949479D01*
X170994399Y-53924000D01*
X171255601Y-53924000D01*
X171383690Y-53949479D01*
G37*
G36*
X196383690Y-53949479D02*
G01*
X196511780Y-53974957D01*
X196753097Y-54074914D01*
X196970276Y-54220029D01*
X197154971Y-54404724D01*
X197300086Y-54621903D01*
X197400043Y-54863220D01*
X197451000Y-55119400D01*
X197451000Y-55380600D01*
X197400043Y-55636780D01*
X197300086Y-55878097D01*
X197154971Y-56095276D01*
X196970276Y-56279971D01*
X196753097Y-56425086D01*
X196511780Y-56525043D01*
X196383690Y-56550521D01*
X196255601Y-56576000D01*
X195994399Y-56576000D01*
X195866310Y-56550521D01*
X195738220Y-56525043D01*
X195496903Y-56425086D01*
X195279724Y-56279971D01*
X195095029Y-56095276D01*
X194949914Y-55878097D01*
X194849957Y-55636780D01*
X194799000Y-55380600D01*
X194799000Y-55119400D01*
X194849957Y-54863220D01*
X194949914Y-54621903D01*
X195095029Y-54404724D01*
X195279724Y-54220029D01*
X195496903Y-54074914D01*
X195738220Y-53974957D01*
X195866310Y-53949479D01*
X195994399Y-53924000D01*
X196255601Y-53924000D01*
X196383690Y-53949479D01*
G37*
G36*
X124375256Y-50391298D02*
G01*
X124481579Y-50412447D01*
X124782042Y-50536903D01*
X125052451Y-50717585D01*
X125282415Y-50947549D01*
X125463097Y-51217958D01*
X125587553Y-51518421D01*
X125651000Y-51837391D01*
X125651000Y-52162609D01*
X125587553Y-52481579D01*
X125463097Y-52782042D01*
X125282415Y-53052451D01*
X125052451Y-53282415D01*
X124782042Y-53463097D01*
X124481579Y-53587553D01*
X124375256Y-53608702D01*
X124162611Y-53651000D01*
X123837389Y-53651000D01*
X123624744Y-53608702D01*
X123518421Y-53587553D01*
X123217958Y-53463097D01*
X122947549Y-53282415D01*
X122717585Y-53052451D01*
X122536903Y-52782042D01*
X122412447Y-52481579D01*
X122349000Y-52162609D01*
X122349000Y-51837391D01*
X122412447Y-51518421D01*
X122536903Y-51217958D01*
X122717585Y-50947549D01*
X122947549Y-50717585D01*
X123217958Y-50536903D01*
X123518421Y-50412447D01*
X123624744Y-50391298D01*
X123837389Y-50349000D01*
X124162611Y-50349000D01*
X124375256Y-50391298D01*
G37*
G36*
X207375256Y-50391298D02*
G01*
X207481579Y-50412447D01*
X207782042Y-50536903D01*
X208052451Y-50717585D01*
X208282415Y-50947549D01*
X208463097Y-51217958D01*
X208587553Y-51518421D01*
X208651000Y-51837391D01*
X208651000Y-52162609D01*
X208587553Y-52481579D01*
X208463097Y-52782042D01*
X208282415Y-53052451D01*
X208052451Y-53282415D01*
X207782042Y-53463097D01*
X207481579Y-53587553D01*
X207375256Y-53608702D01*
X207162611Y-53651000D01*
X206837389Y-53651000D01*
X206624744Y-53608702D01*
X206518421Y-53587553D01*
X206217958Y-53463097D01*
X205947549Y-53282415D01*
X205717585Y-53052451D01*
X205536903Y-52782042D01*
X205412447Y-52481579D01*
X205349000Y-52162609D01*
X205349000Y-51837391D01*
X205412447Y-51518421D01*
X205536903Y-51217958D01*
X205717585Y-50947549D01*
X205947549Y-50717585D01*
X206217958Y-50536903D01*
X206518421Y-50412447D01*
X206624744Y-50391298D01*
X206837389Y-50349000D01*
X207162611Y-50349000D01*
X207375256Y-50391298D01*
G37*
M02*
