G04 #@! TF.GenerationSoftware,KiCad,Pcbnew,(5.1.5)-3*
G04 #@! TF.CreationDate,2020-02-27T12:36:17+00:00*
G04 #@! TF.ProjectId,midi fader alps 100mm,6d696469-2066-4616-9465-7220616c7073,rev?*
G04 #@! TF.SameCoordinates,Original*
G04 #@! TF.FileFunction,Copper,L1,Top*
G04 #@! TF.FilePolarity,Positive*
%FSLAX46Y46*%
G04 Gerber Fmt 4.6, Leading zero omitted, Abs format (unit mm)*
G04 Created by KiCad (PCBNEW (5.1.5)-3) date 2020-02-27 12:36:17*
%MOMM*%
%LPD*%
G04 APERTURE LIST*
%ADD10C,1.900000*%
%ADD11R,1.600000X1.600000*%
%ADD12C,1.600000*%
%ADD13C,2.999740*%
%ADD14R,2.999740X2.999740*%
%ADD15C,0.650000*%
%ADD16R,1.200000X0.300000*%
%ADD17R,1.000000X0.200000*%
%ADD18C,2.012000*%
%ADD19C,3.300000*%
%ADD20C,2.550000*%
%ADD21R,2.550000X2.550000*%
%ADD22C,0.800000*%
%ADD23C,0.250000*%
%ADD24C,0.750000*%
%ADD25C,0.254000*%
G04 APERTURE END LIST*
D10*
X131000000Y-110840000D03*
X131000000Y-114650000D03*
D11*
X123380000Y-104490000D03*
D12*
X123380000Y-107030000D03*
X123380000Y-109570000D03*
X123380000Y-112110000D03*
X123380000Y-114650000D03*
X123380000Y-117190000D03*
X123380000Y-119730000D03*
X123380000Y-122270000D03*
X123380000Y-124810000D03*
X123380000Y-127350000D03*
X123380000Y-129890000D03*
X123380000Y-132430000D03*
X123380000Y-134970000D03*
X136080000Y-117190000D03*
X136080000Y-114650000D03*
X136080000Y-112110000D03*
X136080000Y-107030000D03*
X138620000Y-104490000D03*
X138620000Y-107030000D03*
X138620000Y-109570000D03*
X138620000Y-112110000D03*
X138620000Y-114650000D03*
X138620000Y-117190000D03*
X138620000Y-119730000D03*
X138620000Y-122270000D03*
X138620000Y-124810000D03*
X138620000Y-127350000D03*
X138620000Y-129890000D03*
X138620000Y-132430000D03*
X138620000Y-134970000D03*
X123380000Y-137510000D03*
X125920000Y-137510000D03*
X128460000Y-137510000D03*
X138620000Y-137510000D03*
X136080000Y-137510000D03*
X133540000Y-137510000D03*
X131000000Y-137510000D03*
D13*
X132810000Y-94750000D03*
D14*
X129000000Y-94750000D03*
D15*
X127645000Y-63200000D03*
X126945000Y-63600000D03*
X126945000Y-64400000D03*
X127645000Y-64800000D03*
X126945000Y-65200000D03*
X127645000Y-65600000D03*
X127645000Y-66400000D03*
X126945000Y-66800000D03*
X127645000Y-67200000D03*
X126945000Y-67600000D03*
X126945000Y-68400000D03*
X127645000Y-68800000D03*
D16*
X128895000Y-68750000D03*
X128895000Y-68250000D03*
X128895000Y-67750000D03*
X128895000Y-67250000D03*
X128895000Y-66750000D03*
X128895000Y-66250000D03*
X128895000Y-65750000D03*
X128895000Y-65250000D03*
X128895000Y-64750000D03*
X128895000Y-64250000D03*
X128895000Y-63750000D03*
X128895000Y-63250000D03*
D17*
X121215000Y-66000000D03*
X124315000Y-66000000D03*
D18*
X121765000Y-61730000D03*
X121765000Y-70270000D03*
X126495000Y-61730000D03*
X126495000Y-70270000D03*
D15*
X127645000Y-64000000D03*
X127645000Y-68000000D03*
D19*
X173000000Y-78900000D03*
X173000000Y-161100000D03*
D20*
X171125000Y-55250000D03*
X174875000Y-182750000D03*
D21*
X171125000Y-182750000D03*
D19*
X148000000Y-78900000D03*
X148000000Y-161100000D03*
D20*
X146125000Y-55250000D03*
X149875000Y-182750000D03*
D21*
X146125000Y-182750000D03*
D19*
X198000000Y-78900000D03*
X198000000Y-161100000D03*
D20*
X196125000Y-55250000D03*
X199875000Y-182750000D03*
D21*
X196125000Y-182750000D03*
D22*
X129000000Y-61000000D03*
X131250000Y-65750000D03*
X132750000Y-67250000D03*
X131250000Y-66750000D03*
D23*
X127645000Y-68800000D02*
X128845000Y-68800000D01*
X128845000Y-68800000D02*
X128895000Y-68750000D01*
X127645000Y-68000000D02*
X127645000Y-68800000D01*
X128845000Y-63200000D02*
X128895000Y-63250000D01*
X127645000Y-63200000D02*
X128845000Y-63200000D01*
X127645000Y-63200000D02*
X127645000Y-64000000D01*
X127645000Y-67200000D02*
X127695000Y-67250000D01*
X127695000Y-67250000D02*
X128895000Y-67250000D01*
X127695000Y-64750000D02*
X128895000Y-64750000D01*
X127645000Y-64800000D02*
X127695000Y-64750000D01*
D24*
X134750000Y-55250000D02*
X129000000Y-61000000D01*
X146125000Y-55250000D02*
X134750000Y-55250000D01*
X169321878Y-55250000D02*
X146125000Y-55250000D01*
X171125000Y-55250000D02*
X169321878Y-55250000D01*
X194321878Y-55250000D02*
X171125000Y-55250000D01*
X196125000Y-55250000D02*
X194321878Y-55250000D01*
X151149999Y-147499999D02*
X151149999Y-181475001D01*
X151149999Y-181475001D02*
X149875000Y-182750000D01*
X138620000Y-134970000D02*
X151149999Y-147499999D01*
X174875000Y-168685000D02*
X174875000Y-182750000D01*
X138620000Y-132430000D02*
X174875000Y-168685000D01*
X148818122Y-129890000D02*
X139751370Y-129890000D01*
X139751370Y-129890000D02*
X138620000Y-129890000D01*
X199875000Y-180946878D02*
X148818122Y-129890000D01*
X199875000Y-182750000D02*
X199875000Y-180946878D01*
D23*
X131250000Y-65750000D02*
X128895000Y-65750000D01*
D24*
X132750000Y-66684315D02*
X132750000Y-67250000D01*
X131250000Y-65750000D02*
X131815685Y-65750000D01*
X131815685Y-65750000D02*
X132750000Y-66684315D01*
D23*
X129745000Y-66250000D02*
X128895000Y-66250000D01*
X130684315Y-66750000D02*
X130184315Y-66250000D01*
X131250000Y-66750000D02*
X130684315Y-66750000D01*
X130184315Y-66250000D02*
X129745000Y-66250000D01*
D24*
X131250000Y-93190000D02*
X132810000Y-94750000D01*
X131250000Y-66750000D02*
X131250000Y-93190000D01*
D25*
G36*
X206873000Y-49765000D02*
G01*
X206779872Y-49765000D01*
X206348075Y-49850890D01*
X205941331Y-50019369D01*
X205575271Y-50263962D01*
X205263962Y-50575271D01*
X205019369Y-50941331D01*
X204850890Y-51348075D01*
X204765000Y-51779872D01*
X204765000Y-52220128D01*
X204850890Y-52651925D01*
X205019369Y-53058669D01*
X205263962Y-53424729D01*
X205575271Y-53736038D01*
X205941331Y-53980631D01*
X206348075Y-54149110D01*
X206779872Y-54235000D01*
X207220128Y-54235000D01*
X207651925Y-54149110D01*
X208058669Y-53980631D01*
X208424729Y-53736038D01*
X208736038Y-53424729D01*
X208980631Y-53058669D01*
X209149110Y-52651925D01*
X209235000Y-52220128D01*
X209235000Y-52127000D01*
X211340001Y-52127000D01*
X211340000Y-185873000D01*
X209235000Y-185873000D01*
X209235000Y-185779872D01*
X209149110Y-185348075D01*
X208980631Y-184941331D01*
X208736038Y-184575271D01*
X208424729Y-184263962D01*
X208058669Y-184019369D01*
X207651925Y-183850890D01*
X207220128Y-183765000D01*
X206779872Y-183765000D01*
X206348075Y-183850890D01*
X205941331Y-184019369D01*
X205575271Y-184263962D01*
X205263962Y-184575271D01*
X205019369Y-184941331D01*
X204850890Y-185348075D01*
X204765000Y-185779872D01*
X204765000Y-186220128D01*
X204850890Y-186651925D01*
X205019369Y-187058669D01*
X205263962Y-187424729D01*
X205575271Y-187736038D01*
X205941331Y-187980631D01*
X206348075Y-188149110D01*
X206779872Y-188235000D01*
X206873000Y-188235000D01*
X206873000Y-190340000D01*
X124127000Y-190340000D01*
X124127000Y-188235000D01*
X124220128Y-188235000D01*
X124651925Y-188149110D01*
X125058669Y-187980631D01*
X125424729Y-187736038D01*
X125736038Y-187424729D01*
X125980631Y-187058669D01*
X126149110Y-186651925D01*
X126235000Y-186220128D01*
X126235000Y-185779872D01*
X126149110Y-185348075D01*
X125980631Y-184941331D01*
X125736038Y-184575271D01*
X125424729Y-184263962D01*
X125067097Y-184025000D01*
X144211928Y-184025000D01*
X144224188Y-184149482D01*
X144260498Y-184269180D01*
X144319463Y-184379494D01*
X144398815Y-184476185D01*
X144495506Y-184555537D01*
X144605820Y-184614502D01*
X144725518Y-184650812D01*
X144850000Y-184663072D01*
X145839250Y-184660000D01*
X145998000Y-184501250D01*
X145998000Y-182877000D01*
X144373750Y-182877000D01*
X144215000Y-183035750D01*
X144211928Y-184025000D01*
X125067097Y-184025000D01*
X125058669Y-184019369D01*
X124651925Y-183850890D01*
X124220128Y-183765000D01*
X123779872Y-183765000D01*
X123348075Y-183850890D01*
X122941331Y-184019369D01*
X122575271Y-184263962D01*
X122263962Y-184575271D01*
X122019369Y-184941331D01*
X121850890Y-185348075D01*
X121765000Y-185779872D01*
X121765000Y-185873000D01*
X119660000Y-185873000D01*
X119660000Y-181475000D01*
X144211928Y-181475000D01*
X144215000Y-182464250D01*
X144373750Y-182623000D01*
X145998000Y-182623000D01*
X145998000Y-180998750D01*
X145839250Y-180840000D01*
X144850000Y-180836928D01*
X144725518Y-180849188D01*
X144605820Y-180885498D01*
X144495506Y-180944463D01*
X144398815Y-181023815D01*
X144319463Y-181120506D01*
X144260498Y-181230820D01*
X144224188Y-181350518D01*
X144211928Y-181475000D01*
X119660000Y-181475000D01*
X119660000Y-105290000D01*
X121941928Y-105290000D01*
X121954188Y-105414482D01*
X121990498Y-105534180D01*
X122049463Y-105644494D01*
X122128815Y-105741185D01*
X122225506Y-105820537D01*
X122335820Y-105879502D01*
X122455518Y-105915812D01*
X122463961Y-105916643D01*
X122265363Y-106115241D01*
X122108320Y-106350273D01*
X122000147Y-106611426D01*
X121945000Y-106888665D01*
X121945000Y-107171335D01*
X122000147Y-107448574D01*
X122108320Y-107709727D01*
X122265363Y-107944759D01*
X122465241Y-108144637D01*
X122697759Y-108300000D01*
X122465241Y-108455363D01*
X122265363Y-108655241D01*
X122108320Y-108890273D01*
X122000147Y-109151426D01*
X121945000Y-109428665D01*
X121945000Y-109711335D01*
X122000147Y-109988574D01*
X122108320Y-110249727D01*
X122265363Y-110484759D01*
X122465241Y-110684637D01*
X122697759Y-110840000D01*
X122465241Y-110995363D01*
X122265363Y-111195241D01*
X122108320Y-111430273D01*
X122000147Y-111691426D01*
X121945000Y-111968665D01*
X121945000Y-112251335D01*
X122000147Y-112528574D01*
X122108320Y-112789727D01*
X122265363Y-113024759D01*
X122465241Y-113224637D01*
X122697759Y-113380000D01*
X122465241Y-113535363D01*
X122265363Y-113735241D01*
X122108320Y-113970273D01*
X122000147Y-114231426D01*
X121945000Y-114508665D01*
X121945000Y-114791335D01*
X122000147Y-115068574D01*
X122108320Y-115329727D01*
X122265363Y-115564759D01*
X122465241Y-115764637D01*
X122697759Y-115920000D01*
X122465241Y-116075363D01*
X122265363Y-116275241D01*
X122108320Y-116510273D01*
X122000147Y-116771426D01*
X121945000Y-117048665D01*
X121945000Y-117331335D01*
X122000147Y-117608574D01*
X122108320Y-117869727D01*
X122265363Y-118104759D01*
X122465241Y-118304637D01*
X122697759Y-118460000D01*
X122465241Y-118615363D01*
X122265363Y-118815241D01*
X122108320Y-119050273D01*
X122000147Y-119311426D01*
X121945000Y-119588665D01*
X121945000Y-119871335D01*
X122000147Y-120148574D01*
X122108320Y-120409727D01*
X122265363Y-120644759D01*
X122465241Y-120844637D01*
X122697759Y-121000000D01*
X122465241Y-121155363D01*
X122265363Y-121355241D01*
X122108320Y-121590273D01*
X122000147Y-121851426D01*
X121945000Y-122128665D01*
X121945000Y-122411335D01*
X122000147Y-122688574D01*
X122108320Y-122949727D01*
X122265363Y-123184759D01*
X122465241Y-123384637D01*
X122697759Y-123540000D01*
X122465241Y-123695363D01*
X122265363Y-123895241D01*
X122108320Y-124130273D01*
X122000147Y-124391426D01*
X121945000Y-124668665D01*
X121945000Y-124951335D01*
X122000147Y-125228574D01*
X122108320Y-125489727D01*
X122265363Y-125724759D01*
X122465241Y-125924637D01*
X122697759Y-126080000D01*
X122465241Y-126235363D01*
X122265363Y-126435241D01*
X122108320Y-126670273D01*
X122000147Y-126931426D01*
X121945000Y-127208665D01*
X121945000Y-127491335D01*
X122000147Y-127768574D01*
X122108320Y-128029727D01*
X122265363Y-128264759D01*
X122465241Y-128464637D01*
X122697759Y-128620000D01*
X122465241Y-128775363D01*
X122265363Y-128975241D01*
X122108320Y-129210273D01*
X122000147Y-129471426D01*
X121945000Y-129748665D01*
X121945000Y-130031335D01*
X122000147Y-130308574D01*
X122108320Y-130569727D01*
X122265363Y-130804759D01*
X122465241Y-131004637D01*
X122697759Y-131160000D01*
X122465241Y-131315363D01*
X122265363Y-131515241D01*
X122108320Y-131750273D01*
X122000147Y-132011426D01*
X121945000Y-132288665D01*
X121945000Y-132571335D01*
X122000147Y-132848574D01*
X122108320Y-133109727D01*
X122265363Y-133344759D01*
X122465241Y-133544637D01*
X122697759Y-133700000D01*
X122465241Y-133855363D01*
X122265363Y-134055241D01*
X122108320Y-134290273D01*
X122000147Y-134551426D01*
X121945000Y-134828665D01*
X121945000Y-135111335D01*
X122000147Y-135388574D01*
X122108320Y-135649727D01*
X122265363Y-135884759D01*
X122465241Y-136084637D01*
X122697759Y-136240000D01*
X122465241Y-136395363D01*
X122265363Y-136595241D01*
X122108320Y-136830273D01*
X122000147Y-137091426D01*
X121945000Y-137368665D01*
X121945000Y-137651335D01*
X122000147Y-137928574D01*
X122108320Y-138189727D01*
X122265363Y-138424759D01*
X122465241Y-138624637D01*
X122700273Y-138781680D01*
X122961426Y-138889853D01*
X123238665Y-138945000D01*
X123521335Y-138945000D01*
X123798574Y-138889853D01*
X124059727Y-138781680D01*
X124294759Y-138624637D01*
X124494637Y-138424759D01*
X124650000Y-138192241D01*
X124805363Y-138424759D01*
X125005241Y-138624637D01*
X125240273Y-138781680D01*
X125501426Y-138889853D01*
X125778665Y-138945000D01*
X126061335Y-138945000D01*
X126338574Y-138889853D01*
X126599727Y-138781680D01*
X126834759Y-138624637D01*
X127034637Y-138424759D01*
X127190000Y-138192241D01*
X127345363Y-138424759D01*
X127545241Y-138624637D01*
X127780273Y-138781680D01*
X128041426Y-138889853D01*
X128318665Y-138945000D01*
X128601335Y-138945000D01*
X128878574Y-138889853D01*
X129139727Y-138781680D01*
X129374759Y-138624637D01*
X129496694Y-138502702D01*
X130186903Y-138502702D01*
X130258486Y-138746671D01*
X130513996Y-138867571D01*
X130788184Y-138936300D01*
X131070512Y-138950217D01*
X131350130Y-138908787D01*
X131616292Y-138813603D01*
X131741514Y-138746671D01*
X131813097Y-138502702D01*
X131000000Y-137689605D01*
X130186903Y-138502702D01*
X129496694Y-138502702D01*
X129574637Y-138424759D01*
X129730915Y-138190872D01*
X129763329Y-138251514D01*
X130007298Y-138323097D01*
X130820395Y-137510000D01*
X131179605Y-137510000D01*
X131992702Y-138323097D01*
X132236671Y-138251514D01*
X132267194Y-138187008D01*
X132268320Y-138189727D01*
X132425363Y-138424759D01*
X132625241Y-138624637D01*
X132860273Y-138781680D01*
X133121426Y-138889853D01*
X133398665Y-138945000D01*
X133681335Y-138945000D01*
X133958574Y-138889853D01*
X134219727Y-138781680D01*
X134454759Y-138624637D01*
X134654637Y-138424759D01*
X134810000Y-138192241D01*
X134965363Y-138424759D01*
X135165241Y-138624637D01*
X135400273Y-138781680D01*
X135661426Y-138889853D01*
X135938665Y-138945000D01*
X136221335Y-138945000D01*
X136498574Y-138889853D01*
X136759727Y-138781680D01*
X136994759Y-138624637D01*
X137194637Y-138424759D01*
X137350000Y-138192241D01*
X137505363Y-138424759D01*
X137705241Y-138624637D01*
X137940273Y-138781680D01*
X138201426Y-138889853D01*
X138478665Y-138945000D01*
X138761335Y-138945000D01*
X139038574Y-138889853D01*
X139299727Y-138781680D01*
X139534759Y-138624637D01*
X139734637Y-138424759D01*
X139891680Y-138189727D01*
X139999853Y-137928574D01*
X140024801Y-137803156D01*
X150139999Y-147918355D01*
X150139999Y-160295422D01*
X150024941Y-160017647D01*
X149774875Y-159643397D01*
X149456603Y-159325125D01*
X149082353Y-159075059D01*
X148666510Y-158902811D01*
X148225053Y-158815000D01*
X147774947Y-158815000D01*
X147333490Y-158902811D01*
X146917647Y-159075059D01*
X146543397Y-159325125D01*
X146225125Y-159643397D01*
X145975059Y-160017647D01*
X145802811Y-160433490D01*
X145715000Y-160874947D01*
X145715000Y-161325053D01*
X145802811Y-161766510D01*
X145975059Y-162182353D01*
X146225125Y-162556603D01*
X146543397Y-162874875D01*
X146917647Y-163124941D01*
X147333490Y-163297189D01*
X147774947Y-163385000D01*
X148225053Y-163385000D01*
X148666510Y-163297189D01*
X149082353Y-163124941D01*
X149456603Y-162874875D01*
X149774875Y-162556603D01*
X150024941Y-162182353D01*
X150139999Y-161904578D01*
X150140000Y-180855293D01*
X150063119Y-180840000D01*
X149686881Y-180840000D01*
X149317873Y-180913400D01*
X148970276Y-181057380D01*
X148657446Y-181266406D01*
X148391406Y-181532446D01*
X148182380Y-181845276D01*
X148038400Y-182192873D01*
X148035802Y-182205933D01*
X148038072Y-181475000D01*
X148025812Y-181350518D01*
X147989502Y-181230820D01*
X147930537Y-181120506D01*
X147851185Y-181023815D01*
X147754494Y-180944463D01*
X147644180Y-180885498D01*
X147524482Y-180849188D01*
X147400000Y-180836928D01*
X146410750Y-180840000D01*
X146252000Y-180998750D01*
X146252000Y-182623000D01*
X146272000Y-182623000D01*
X146272000Y-182877000D01*
X146252000Y-182877000D01*
X146252000Y-184501250D01*
X146410750Y-184660000D01*
X147400000Y-184663072D01*
X147524482Y-184650812D01*
X147644180Y-184614502D01*
X147754494Y-184555537D01*
X147851185Y-184476185D01*
X147930537Y-184379494D01*
X147989502Y-184269180D01*
X148025812Y-184149482D01*
X148038072Y-184025000D01*
X148035802Y-183294067D01*
X148038400Y-183307127D01*
X148182380Y-183654724D01*
X148391406Y-183967554D01*
X148657446Y-184233594D01*
X148970276Y-184442620D01*
X149317873Y-184586600D01*
X149686881Y-184660000D01*
X150063119Y-184660000D01*
X150432127Y-184586600D01*
X150779724Y-184442620D01*
X151092554Y-184233594D01*
X151301148Y-184025000D01*
X169211928Y-184025000D01*
X169224188Y-184149482D01*
X169260498Y-184269180D01*
X169319463Y-184379494D01*
X169398815Y-184476185D01*
X169495506Y-184555537D01*
X169605820Y-184614502D01*
X169725518Y-184650812D01*
X169850000Y-184663072D01*
X170839250Y-184660000D01*
X170998000Y-184501250D01*
X170998000Y-182877000D01*
X169373750Y-182877000D01*
X169215000Y-183035750D01*
X169211928Y-184025000D01*
X151301148Y-184025000D01*
X151358594Y-183967554D01*
X151567620Y-183654724D01*
X151711600Y-183307127D01*
X151785000Y-182938119D01*
X151785000Y-182561881D01*
X151736301Y-182317055D01*
X151829098Y-182224258D01*
X151867632Y-182192634D01*
X151993846Y-182038841D01*
X152087631Y-181863381D01*
X152145384Y-181672995D01*
X152159999Y-181524609D01*
X152164885Y-181475001D01*
X152164885Y-181475000D01*
X169211928Y-181475000D01*
X169215000Y-182464250D01*
X169373750Y-182623000D01*
X170998000Y-182623000D01*
X170998000Y-180998750D01*
X170839250Y-180840000D01*
X169850000Y-180836928D01*
X169725518Y-180849188D01*
X169605820Y-180885498D01*
X169495506Y-180944463D01*
X169398815Y-181023815D01*
X169319463Y-181120506D01*
X169260498Y-181230820D01*
X169224188Y-181350518D01*
X169211928Y-181475000D01*
X152164885Y-181475000D01*
X152159999Y-181425393D01*
X152159999Y-147549607D01*
X152164885Y-147499999D01*
X152154314Y-147392669D01*
X173865000Y-169103356D01*
X173865001Y-181127722D01*
X173657446Y-181266406D01*
X173391406Y-181532446D01*
X173182380Y-181845276D01*
X173038400Y-182192873D01*
X173035802Y-182205933D01*
X173038072Y-181475000D01*
X173025812Y-181350518D01*
X172989502Y-181230820D01*
X172930537Y-181120506D01*
X172851185Y-181023815D01*
X172754494Y-180944463D01*
X172644180Y-180885498D01*
X172524482Y-180849188D01*
X172400000Y-180836928D01*
X171410750Y-180840000D01*
X171252000Y-180998750D01*
X171252000Y-182623000D01*
X171272000Y-182623000D01*
X171272000Y-182877000D01*
X171252000Y-182877000D01*
X171252000Y-184501250D01*
X171410750Y-184660000D01*
X172400000Y-184663072D01*
X172524482Y-184650812D01*
X172644180Y-184614502D01*
X172754494Y-184555537D01*
X172851185Y-184476185D01*
X172930537Y-184379494D01*
X172989502Y-184269180D01*
X173025812Y-184149482D01*
X173038072Y-184025000D01*
X173035802Y-183294067D01*
X173038400Y-183307127D01*
X173182380Y-183654724D01*
X173391406Y-183967554D01*
X173657446Y-184233594D01*
X173970276Y-184442620D01*
X174317873Y-184586600D01*
X174686881Y-184660000D01*
X175063119Y-184660000D01*
X175432127Y-184586600D01*
X175779724Y-184442620D01*
X176092554Y-184233594D01*
X176301148Y-184025000D01*
X194211928Y-184025000D01*
X194224188Y-184149482D01*
X194260498Y-184269180D01*
X194319463Y-184379494D01*
X194398815Y-184476185D01*
X194495506Y-184555537D01*
X194605820Y-184614502D01*
X194725518Y-184650812D01*
X194850000Y-184663072D01*
X195839250Y-184660000D01*
X195998000Y-184501250D01*
X195998000Y-182877000D01*
X194373750Y-182877000D01*
X194215000Y-183035750D01*
X194211928Y-184025000D01*
X176301148Y-184025000D01*
X176358594Y-183967554D01*
X176567620Y-183654724D01*
X176711600Y-183307127D01*
X176785000Y-182938119D01*
X176785000Y-182561881D01*
X176711600Y-182192873D01*
X176567620Y-181845276D01*
X176358594Y-181532446D01*
X176301148Y-181475000D01*
X194211928Y-181475000D01*
X194215000Y-182464250D01*
X194373750Y-182623000D01*
X195998000Y-182623000D01*
X195998000Y-180998750D01*
X195839250Y-180840000D01*
X194850000Y-180836928D01*
X194725518Y-180849188D01*
X194605820Y-180885498D01*
X194495506Y-180944463D01*
X194398815Y-181023815D01*
X194319463Y-181120506D01*
X194260498Y-181230820D01*
X194224188Y-181350518D01*
X194211928Y-181475000D01*
X176301148Y-181475000D01*
X176092554Y-181266406D01*
X175885000Y-181127723D01*
X175885000Y-168734608D01*
X175889886Y-168685000D01*
X175870385Y-168487005D01*
X175812632Y-168296620D01*
X175718846Y-168121159D01*
X175624256Y-168005900D01*
X175592633Y-167967367D01*
X175554100Y-167935744D01*
X168493303Y-160874947D01*
X170715000Y-160874947D01*
X170715000Y-161325053D01*
X170802811Y-161766510D01*
X170975059Y-162182353D01*
X171225125Y-162556603D01*
X171543397Y-162874875D01*
X171917647Y-163124941D01*
X172333490Y-163297189D01*
X172774947Y-163385000D01*
X173225053Y-163385000D01*
X173666510Y-163297189D01*
X174082353Y-163124941D01*
X174456603Y-162874875D01*
X174774875Y-162556603D01*
X175024941Y-162182353D01*
X175197189Y-161766510D01*
X175285000Y-161325053D01*
X175285000Y-160874947D01*
X175197189Y-160433490D01*
X175024941Y-160017647D01*
X174774875Y-159643397D01*
X174456603Y-159325125D01*
X174082353Y-159075059D01*
X173666510Y-158902811D01*
X173225053Y-158815000D01*
X172774947Y-158815000D01*
X172333490Y-158902811D01*
X171917647Y-159075059D01*
X171543397Y-159325125D01*
X171225125Y-159643397D01*
X170975059Y-160017647D01*
X170802811Y-160433490D01*
X170715000Y-160874947D01*
X168493303Y-160874947D01*
X140055000Y-132436645D01*
X140055000Y-132288665D01*
X139999853Y-132011426D01*
X139891680Y-131750273D01*
X139734637Y-131515241D01*
X139534759Y-131315363D01*
X139302241Y-131160000D01*
X139534759Y-131004637D01*
X139639396Y-130900000D01*
X148399767Y-130900000D01*
X198722623Y-181222856D01*
X198657446Y-181266406D01*
X198391406Y-181532446D01*
X198182380Y-181845276D01*
X198038400Y-182192873D01*
X198035802Y-182205933D01*
X198038072Y-181475000D01*
X198025812Y-181350518D01*
X197989502Y-181230820D01*
X197930537Y-181120506D01*
X197851185Y-181023815D01*
X197754494Y-180944463D01*
X197644180Y-180885498D01*
X197524482Y-180849188D01*
X197400000Y-180836928D01*
X196410750Y-180840000D01*
X196252000Y-180998750D01*
X196252000Y-182623000D01*
X196272000Y-182623000D01*
X196272000Y-182877000D01*
X196252000Y-182877000D01*
X196252000Y-184501250D01*
X196410750Y-184660000D01*
X197400000Y-184663072D01*
X197524482Y-184650812D01*
X197644180Y-184614502D01*
X197754494Y-184555537D01*
X197851185Y-184476185D01*
X197930537Y-184379494D01*
X197989502Y-184269180D01*
X198025812Y-184149482D01*
X198038072Y-184025000D01*
X198035802Y-183294067D01*
X198038400Y-183307127D01*
X198182380Y-183654724D01*
X198391406Y-183967554D01*
X198657446Y-184233594D01*
X198970276Y-184442620D01*
X199317873Y-184586600D01*
X199686881Y-184660000D01*
X200063119Y-184660000D01*
X200432127Y-184586600D01*
X200779724Y-184442620D01*
X201092554Y-184233594D01*
X201358594Y-183967554D01*
X201567620Y-183654724D01*
X201711600Y-183307127D01*
X201785000Y-182938119D01*
X201785000Y-182561881D01*
X201711600Y-182192873D01*
X201567620Y-181845276D01*
X201358594Y-181532446D01*
X201092554Y-181266406D01*
X200885000Y-181127723D01*
X200885000Y-180996482D01*
X200889886Y-180946877D01*
X200885000Y-180897270D01*
X200870385Y-180748884D01*
X200812632Y-180558498D01*
X200718847Y-180383038D01*
X200592633Y-180229245D01*
X200554094Y-180197617D01*
X181231424Y-160874947D01*
X195715000Y-160874947D01*
X195715000Y-161325053D01*
X195802811Y-161766510D01*
X195975059Y-162182353D01*
X196225125Y-162556603D01*
X196543397Y-162874875D01*
X196917647Y-163124941D01*
X197333490Y-163297189D01*
X197774947Y-163385000D01*
X198225053Y-163385000D01*
X198666510Y-163297189D01*
X199082353Y-163124941D01*
X199456603Y-162874875D01*
X199774875Y-162556603D01*
X200024941Y-162182353D01*
X200197189Y-161766510D01*
X200285000Y-161325053D01*
X200285000Y-160874947D01*
X200197189Y-160433490D01*
X200024941Y-160017647D01*
X199774875Y-159643397D01*
X199456603Y-159325125D01*
X199082353Y-159075059D01*
X198666510Y-158902811D01*
X198225053Y-158815000D01*
X197774947Y-158815000D01*
X197333490Y-158902811D01*
X196917647Y-159075059D01*
X196543397Y-159325125D01*
X196225125Y-159643397D01*
X195975059Y-160017647D01*
X195802811Y-160433490D01*
X195715000Y-160874947D01*
X181231424Y-160874947D01*
X149567383Y-129210906D01*
X149535755Y-129172367D01*
X149381962Y-129046153D01*
X149206502Y-128952368D01*
X149016116Y-128894615D01*
X148867730Y-128880000D01*
X148818122Y-128875114D01*
X148768514Y-128880000D01*
X139639396Y-128880000D01*
X139534759Y-128775363D01*
X139302241Y-128620000D01*
X139534759Y-128464637D01*
X139734637Y-128264759D01*
X139891680Y-128029727D01*
X139999853Y-127768574D01*
X140055000Y-127491335D01*
X140055000Y-127208665D01*
X139999853Y-126931426D01*
X139891680Y-126670273D01*
X139734637Y-126435241D01*
X139534759Y-126235363D01*
X139302241Y-126080000D01*
X139534759Y-125924637D01*
X139734637Y-125724759D01*
X139891680Y-125489727D01*
X139999853Y-125228574D01*
X140055000Y-124951335D01*
X140055000Y-124668665D01*
X139999853Y-124391426D01*
X139891680Y-124130273D01*
X139734637Y-123895241D01*
X139534759Y-123695363D01*
X139302241Y-123540000D01*
X139534759Y-123384637D01*
X139734637Y-123184759D01*
X139891680Y-122949727D01*
X139999853Y-122688574D01*
X140055000Y-122411335D01*
X140055000Y-122128665D01*
X139999853Y-121851426D01*
X139891680Y-121590273D01*
X139734637Y-121355241D01*
X139534759Y-121155363D01*
X139302241Y-121000000D01*
X139534759Y-120844637D01*
X139734637Y-120644759D01*
X139891680Y-120409727D01*
X139999853Y-120148574D01*
X140055000Y-119871335D01*
X140055000Y-119588665D01*
X139999853Y-119311426D01*
X139891680Y-119050273D01*
X139734637Y-118815241D01*
X139699268Y-118779872D01*
X158765000Y-118779872D01*
X158765000Y-119220128D01*
X158850890Y-119651925D01*
X159019369Y-120058669D01*
X159263962Y-120424729D01*
X159575271Y-120736038D01*
X159941331Y-120980631D01*
X160348075Y-121149110D01*
X160779872Y-121235000D01*
X161220128Y-121235000D01*
X161651925Y-121149110D01*
X162058669Y-120980631D01*
X162424729Y-120736038D01*
X162736038Y-120424729D01*
X162980631Y-120058669D01*
X163149110Y-119651925D01*
X163235000Y-119220128D01*
X163235000Y-118779872D01*
X183765000Y-118779872D01*
X183765000Y-119220128D01*
X183850890Y-119651925D01*
X184019369Y-120058669D01*
X184263962Y-120424729D01*
X184575271Y-120736038D01*
X184941331Y-120980631D01*
X185348075Y-121149110D01*
X185779872Y-121235000D01*
X186220128Y-121235000D01*
X186651925Y-121149110D01*
X187058669Y-120980631D01*
X187424729Y-120736038D01*
X187736038Y-120424729D01*
X187980631Y-120058669D01*
X188149110Y-119651925D01*
X188235000Y-119220128D01*
X188235000Y-118779872D01*
X188149110Y-118348075D01*
X187980631Y-117941331D01*
X187736038Y-117575271D01*
X187424729Y-117263962D01*
X187058669Y-117019369D01*
X186651925Y-116850890D01*
X186220128Y-116765000D01*
X185779872Y-116765000D01*
X185348075Y-116850890D01*
X184941331Y-117019369D01*
X184575271Y-117263962D01*
X184263962Y-117575271D01*
X184019369Y-117941331D01*
X183850890Y-118348075D01*
X183765000Y-118779872D01*
X163235000Y-118779872D01*
X163149110Y-118348075D01*
X162980631Y-117941331D01*
X162736038Y-117575271D01*
X162424729Y-117263962D01*
X162058669Y-117019369D01*
X161651925Y-116850890D01*
X161220128Y-116765000D01*
X160779872Y-116765000D01*
X160348075Y-116850890D01*
X159941331Y-117019369D01*
X159575271Y-117263962D01*
X159263962Y-117575271D01*
X159019369Y-117941331D01*
X158850890Y-118348075D01*
X158765000Y-118779872D01*
X139699268Y-118779872D01*
X139534759Y-118615363D01*
X139302241Y-118460000D01*
X139534759Y-118304637D01*
X139734637Y-118104759D01*
X139891680Y-117869727D01*
X139999853Y-117608574D01*
X140055000Y-117331335D01*
X140055000Y-117048665D01*
X139999853Y-116771426D01*
X139891680Y-116510273D01*
X139734637Y-116275241D01*
X139534759Y-116075363D01*
X139302241Y-115920000D01*
X139534759Y-115764637D01*
X139734637Y-115564759D01*
X139891680Y-115329727D01*
X139999853Y-115068574D01*
X140055000Y-114791335D01*
X140055000Y-114508665D01*
X139999853Y-114231426D01*
X139891680Y-113970273D01*
X139734637Y-113735241D01*
X139534759Y-113535363D01*
X139302241Y-113380000D01*
X139534759Y-113224637D01*
X139734637Y-113024759D01*
X139891680Y-112789727D01*
X139999853Y-112528574D01*
X140055000Y-112251335D01*
X140055000Y-111968665D01*
X139999853Y-111691426D01*
X139891680Y-111430273D01*
X139734637Y-111195241D01*
X139534759Y-110995363D01*
X139302241Y-110840000D01*
X139534759Y-110684637D01*
X139734637Y-110484759D01*
X139891680Y-110249727D01*
X139999853Y-109988574D01*
X140055000Y-109711335D01*
X140055000Y-109428665D01*
X139999853Y-109151426D01*
X139891680Y-108890273D01*
X139734637Y-108655241D01*
X139534759Y-108455363D01*
X139300872Y-108299085D01*
X139361514Y-108266671D01*
X139433097Y-108022702D01*
X138620000Y-107209605D01*
X137806903Y-108022702D01*
X137878486Y-108266671D01*
X137942992Y-108297194D01*
X137940273Y-108298320D01*
X137705241Y-108455363D01*
X137505363Y-108655241D01*
X137348320Y-108890273D01*
X137240147Y-109151426D01*
X137185000Y-109428665D01*
X137185000Y-109711335D01*
X137240147Y-109988574D01*
X137348320Y-110249727D01*
X137505363Y-110484759D01*
X137705241Y-110684637D01*
X137937759Y-110840000D01*
X137705241Y-110995363D01*
X137505363Y-111195241D01*
X137350000Y-111427759D01*
X137194637Y-111195241D01*
X136994759Y-110995363D01*
X136759727Y-110838320D01*
X136498574Y-110730147D01*
X136221335Y-110675000D01*
X135938665Y-110675000D01*
X135661426Y-110730147D01*
X135400273Y-110838320D01*
X135165241Y-110995363D01*
X134965363Y-111195241D01*
X134808320Y-111430273D01*
X134700147Y-111691426D01*
X134645000Y-111968665D01*
X134645000Y-112251335D01*
X134700147Y-112528574D01*
X134808320Y-112789727D01*
X134965363Y-113024759D01*
X135165241Y-113224637D01*
X135397759Y-113380000D01*
X135165241Y-113535363D01*
X134965363Y-113735241D01*
X134808320Y-113970273D01*
X134700147Y-114231426D01*
X134645000Y-114508665D01*
X134645000Y-114791335D01*
X134700147Y-115068574D01*
X134808320Y-115329727D01*
X134965363Y-115564759D01*
X135165241Y-115764637D01*
X135397759Y-115920000D01*
X135165241Y-116075363D01*
X134965363Y-116275241D01*
X134808320Y-116510273D01*
X134700147Y-116771426D01*
X134645000Y-117048665D01*
X134645000Y-117331335D01*
X134700147Y-117608574D01*
X134808320Y-117869727D01*
X134965363Y-118104759D01*
X135165241Y-118304637D01*
X135400273Y-118461680D01*
X135661426Y-118569853D01*
X135938665Y-118625000D01*
X136221335Y-118625000D01*
X136498574Y-118569853D01*
X136759727Y-118461680D01*
X136994759Y-118304637D01*
X137194637Y-118104759D01*
X137350000Y-117872241D01*
X137505363Y-118104759D01*
X137705241Y-118304637D01*
X137937759Y-118460000D01*
X137705241Y-118615363D01*
X137505363Y-118815241D01*
X137348320Y-119050273D01*
X137240147Y-119311426D01*
X137185000Y-119588665D01*
X137185000Y-119871335D01*
X137240147Y-120148574D01*
X137348320Y-120409727D01*
X137505363Y-120644759D01*
X137705241Y-120844637D01*
X137937759Y-121000000D01*
X137705241Y-121155363D01*
X137505363Y-121355241D01*
X137348320Y-121590273D01*
X137240147Y-121851426D01*
X137185000Y-122128665D01*
X137185000Y-122411335D01*
X137240147Y-122688574D01*
X137348320Y-122949727D01*
X137505363Y-123184759D01*
X137705241Y-123384637D01*
X137937759Y-123540000D01*
X137705241Y-123695363D01*
X137505363Y-123895241D01*
X137348320Y-124130273D01*
X137240147Y-124391426D01*
X137185000Y-124668665D01*
X137185000Y-124951335D01*
X137240147Y-125228574D01*
X137348320Y-125489727D01*
X137505363Y-125724759D01*
X137705241Y-125924637D01*
X137937759Y-126080000D01*
X137705241Y-126235363D01*
X137505363Y-126435241D01*
X137348320Y-126670273D01*
X137240147Y-126931426D01*
X137185000Y-127208665D01*
X137185000Y-127491335D01*
X137240147Y-127768574D01*
X137348320Y-128029727D01*
X137505363Y-128264759D01*
X137705241Y-128464637D01*
X137937759Y-128620000D01*
X137705241Y-128775363D01*
X137505363Y-128975241D01*
X137348320Y-129210273D01*
X137240147Y-129471426D01*
X137185000Y-129748665D01*
X137185000Y-130031335D01*
X137240147Y-130308574D01*
X137348320Y-130569727D01*
X137505363Y-130804759D01*
X137705241Y-131004637D01*
X137937759Y-131160000D01*
X137705241Y-131315363D01*
X137505363Y-131515241D01*
X137348320Y-131750273D01*
X137240147Y-132011426D01*
X137185000Y-132288665D01*
X137185000Y-132571335D01*
X137240147Y-132848574D01*
X137348320Y-133109727D01*
X137505363Y-133344759D01*
X137705241Y-133544637D01*
X137937759Y-133700000D01*
X137705241Y-133855363D01*
X137505363Y-134055241D01*
X137348320Y-134290273D01*
X137240147Y-134551426D01*
X137185000Y-134828665D01*
X137185000Y-135111335D01*
X137240147Y-135388574D01*
X137348320Y-135649727D01*
X137505363Y-135884759D01*
X137705241Y-136084637D01*
X137937759Y-136240000D01*
X137705241Y-136395363D01*
X137505363Y-136595241D01*
X137350000Y-136827759D01*
X137194637Y-136595241D01*
X136994759Y-136395363D01*
X136759727Y-136238320D01*
X136498574Y-136130147D01*
X136221335Y-136075000D01*
X135938665Y-136075000D01*
X135661426Y-136130147D01*
X135400273Y-136238320D01*
X135165241Y-136395363D01*
X134965363Y-136595241D01*
X134810000Y-136827759D01*
X134654637Y-136595241D01*
X134454759Y-136395363D01*
X134219727Y-136238320D01*
X133958574Y-136130147D01*
X133681335Y-136075000D01*
X133398665Y-136075000D01*
X133121426Y-136130147D01*
X132860273Y-136238320D01*
X132625241Y-136395363D01*
X132425363Y-136595241D01*
X132269085Y-136829128D01*
X132236671Y-136768486D01*
X131992702Y-136696903D01*
X131179605Y-137510000D01*
X130820395Y-137510000D01*
X130007298Y-136696903D01*
X129763329Y-136768486D01*
X129732806Y-136832992D01*
X129731680Y-136830273D01*
X129574637Y-136595241D01*
X129496694Y-136517298D01*
X130186903Y-136517298D01*
X131000000Y-137330395D01*
X131813097Y-136517298D01*
X131741514Y-136273329D01*
X131486004Y-136152429D01*
X131211816Y-136083700D01*
X130929488Y-136069783D01*
X130649870Y-136111213D01*
X130383708Y-136206397D01*
X130258486Y-136273329D01*
X130186903Y-136517298D01*
X129496694Y-136517298D01*
X129374759Y-136395363D01*
X129139727Y-136238320D01*
X128878574Y-136130147D01*
X128601335Y-136075000D01*
X128318665Y-136075000D01*
X128041426Y-136130147D01*
X127780273Y-136238320D01*
X127545241Y-136395363D01*
X127345363Y-136595241D01*
X127190000Y-136827759D01*
X127034637Y-136595241D01*
X126834759Y-136395363D01*
X126599727Y-136238320D01*
X126338574Y-136130147D01*
X126061335Y-136075000D01*
X125778665Y-136075000D01*
X125501426Y-136130147D01*
X125240273Y-136238320D01*
X125005241Y-136395363D01*
X124805363Y-136595241D01*
X124650000Y-136827759D01*
X124494637Y-136595241D01*
X124294759Y-136395363D01*
X124062241Y-136240000D01*
X124294759Y-136084637D01*
X124494637Y-135884759D01*
X124651680Y-135649727D01*
X124759853Y-135388574D01*
X124815000Y-135111335D01*
X124815000Y-134828665D01*
X124759853Y-134551426D01*
X124651680Y-134290273D01*
X124494637Y-134055241D01*
X124294759Y-133855363D01*
X124062241Y-133700000D01*
X124294759Y-133544637D01*
X124494637Y-133344759D01*
X124651680Y-133109727D01*
X124759853Y-132848574D01*
X124815000Y-132571335D01*
X124815000Y-132288665D01*
X124759853Y-132011426D01*
X124651680Y-131750273D01*
X124494637Y-131515241D01*
X124294759Y-131315363D01*
X124062241Y-131160000D01*
X124294759Y-131004637D01*
X124494637Y-130804759D01*
X124651680Y-130569727D01*
X124759853Y-130308574D01*
X124815000Y-130031335D01*
X124815000Y-129748665D01*
X124759853Y-129471426D01*
X124651680Y-129210273D01*
X124494637Y-128975241D01*
X124294759Y-128775363D01*
X124062241Y-128620000D01*
X124294759Y-128464637D01*
X124494637Y-128264759D01*
X124651680Y-128029727D01*
X124759853Y-127768574D01*
X124815000Y-127491335D01*
X124815000Y-127208665D01*
X124759853Y-126931426D01*
X124651680Y-126670273D01*
X124494637Y-126435241D01*
X124294759Y-126235363D01*
X124062241Y-126080000D01*
X124294759Y-125924637D01*
X124494637Y-125724759D01*
X124651680Y-125489727D01*
X124759853Y-125228574D01*
X124815000Y-124951335D01*
X124815000Y-124668665D01*
X124759853Y-124391426D01*
X124651680Y-124130273D01*
X124494637Y-123895241D01*
X124294759Y-123695363D01*
X124062241Y-123540000D01*
X124294759Y-123384637D01*
X124494637Y-123184759D01*
X124651680Y-122949727D01*
X124759853Y-122688574D01*
X124815000Y-122411335D01*
X124815000Y-122128665D01*
X124759853Y-121851426D01*
X124651680Y-121590273D01*
X124494637Y-121355241D01*
X124294759Y-121155363D01*
X124062241Y-121000000D01*
X124294759Y-120844637D01*
X124494637Y-120644759D01*
X124651680Y-120409727D01*
X124759853Y-120148574D01*
X124815000Y-119871335D01*
X124815000Y-119588665D01*
X124759853Y-119311426D01*
X124651680Y-119050273D01*
X124494637Y-118815241D01*
X124294759Y-118615363D01*
X124062241Y-118460000D01*
X124294759Y-118304637D01*
X124494637Y-118104759D01*
X124651680Y-117869727D01*
X124759853Y-117608574D01*
X124815000Y-117331335D01*
X124815000Y-117048665D01*
X124759853Y-116771426D01*
X124651680Y-116510273D01*
X124494637Y-116275241D01*
X124294759Y-116075363D01*
X124062241Y-115920000D01*
X124294759Y-115764637D01*
X124494637Y-115564759D01*
X124651680Y-115329727D01*
X124759853Y-115068574D01*
X124815000Y-114791335D01*
X124815000Y-114508665D01*
X124812062Y-114493891D01*
X129415000Y-114493891D01*
X129415000Y-114806109D01*
X129475911Y-115112327D01*
X129595391Y-115400779D01*
X129768850Y-115660379D01*
X129989621Y-115881150D01*
X130249221Y-116054609D01*
X130537673Y-116174089D01*
X130843891Y-116235000D01*
X131156109Y-116235000D01*
X131462327Y-116174089D01*
X131750779Y-116054609D01*
X132010379Y-115881150D01*
X132231150Y-115660379D01*
X132404609Y-115400779D01*
X132524089Y-115112327D01*
X132585000Y-114806109D01*
X132585000Y-114493891D01*
X132524089Y-114187673D01*
X132404609Y-113899221D01*
X132231150Y-113639621D01*
X132010379Y-113418850D01*
X131750779Y-113245391D01*
X131462327Y-113125911D01*
X131156109Y-113065000D01*
X130843891Y-113065000D01*
X130537673Y-113125911D01*
X130249221Y-113245391D01*
X129989621Y-113418850D01*
X129768850Y-113639621D01*
X129595391Y-113899221D01*
X129475911Y-114187673D01*
X129415000Y-114493891D01*
X124812062Y-114493891D01*
X124759853Y-114231426D01*
X124651680Y-113970273D01*
X124494637Y-113735241D01*
X124294759Y-113535363D01*
X124062241Y-113380000D01*
X124294759Y-113224637D01*
X124494637Y-113024759D01*
X124651680Y-112789727D01*
X124759853Y-112528574D01*
X124815000Y-112251335D01*
X124815000Y-111968665D01*
X124759853Y-111691426D01*
X124651680Y-111430273D01*
X124494637Y-111195241D01*
X124294759Y-110995363D01*
X124062241Y-110840000D01*
X124294759Y-110684637D01*
X124295505Y-110683891D01*
X129415000Y-110683891D01*
X129415000Y-110996109D01*
X129475911Y-111302327D01*
X129595391Y-111590779D01*
X129768850Y-111850379D01*
X129989621Y-112071150D01*
X130249221Y-112244609D01*
X130537673Y-112364089D01*
X130843891Y-112425000D01*
X131156109Y-112425000D01*
X131462327Y-112364089D01*
X131750779Y-112244609D01*
X132010379Y-112071150D01*
X132231150Y-111850379D01*
X132404609Y-111590779D01*
X132524089Y-111302327D01*
X132585000Y-110996109D01*
X132585000Y-110683891D01*
X132524089Y-110377673D01*
X132404609Y-110089221D01*
X132231150Y-109829621D01*
X132010379Y-109608850D01*
X131750779Y-109435391D01*
X131462327Y-109315911D01*
X131156109Y-109255000D01*
X130843891Y-109255000D01*
X130537673Y-109315911D01*
X130249221Y-109435391D01*
X129989621Y-109608850D01*
X129768850Y-109829621D01*
X129595391Y-110089221D01*
X129475911Y-110377673D01*
X129415000Y-110683891D01*
X124295505Y-110683891D01*
X124494637Y-110484759D01*
X124651680Y-110249727D01*
X124759853Y-109988574D01*
X124815000Y-109711335D01*
X124815000Y-109428665D01*
X124759853Y-109151426D01*
X124651680Y-108890273D01*
X124494637Y-108655241D01*
X124294759Y-108455363D01*
X124062241Y-108300000D01*
X124294759Y-108144637D01*
X124494637Y-107944759D01*
X124651680Y-107709727D01*
X124759853Y-107448574D01*
X124815000Y-107171335D01*
X124815000Y-106888665D01*
X134645000Y-106888665D01*
X134645000Y-107171335D01*
X134700147Y-107448574D01*
X134808320Y-107709727D01*
X134965363Y-107944759D01*
X135165241Y-108144637D01*
X135400273Y-108301680D01*
X135661426Y-108409853D01*
X135938665Y-108465000D01*
X136221335Y-108465000D01*
X136498574Y-108409853D01*
X136759727Y-108301680D01*
X136994759Y-108144637D01*
X137194637Y-107944759D01*
X137350915Y-107710872D01*
X137383329Y-107771514D01*
X137627298Y-107843097D01*
X138440395Y-107030000D01*
X138799605Y-107030000D01*
X139612702Y-107843097D01*
X139856671Y-107771514D01*
X139977571Y-107516004D01*
X140046300Y-107241816D01*
X140060217Y-106959488D01*
X140018787Y-106679870D01*
X139923603Y-106413708D01*
X139856671Y-106288486D01*
X139612702Y-106216903D01*
X138799605Y-107030000D01*
X138440395Y-107030000D01*
X137627298Y-106216903D01*
X137383329Y-106288486D01*
X137352806Y-106352992D01*
X137351680Y-106350273D01*
X137194637Y-106115241D01*
X136994759Y-105915363D01*
X136759727Y-105758320D01*
X136498574Y-105650147D01*
X136221335Y-105595000D01*
X135938665Y-105595000D01*
X135661426Y-105650147D01*
X135400273Y-105758320D01*
X135165241Y-105915363D01*
X134965363Y-106115241D01*
X134808320Y-106350273D01*
X134700147Y-106611426D01*
X134645000Y-106888665D01*
X124815000Y-106888665D01*
X124759853Y-106611426D01*
X124651680Y-106350273D01*
X124494637Y-106115241D01*
X124296039Y-105916643D01*
X124304482Y-105915812D01*
X124424180Y-105879502D01*
X124534494Y-105820537D01*
X124631185Y-105741185D01*
X124710537Y-105644494D01*
X124769502Y-105534180D01*
X124805812Y-105414482D01*
X124818072Y-105290000D01*
X124815000Y-104775750D01*
X124656250Y-104617000D01*
X123507000Y-104617000D01*
X123507000Y-104637000D01*
X123253000Y-104637000D01*
X123253000Y-104617000D01*
X122103750Y-104617000D01*
X121945000Y-104775750D01*
X121941928Y-105290000D01*
X119660000Y-105290000D01*
X119660000Y-103690000D01*
X121941928Y-103690000D01*
X121945000Y-104204250D01*
X122103750Y-104363000D01*
X123253000Y-104363000D01*
X123253000Y-103213750D01*
X123507000Y-103213750D01*
X123507000Y-104363000D01*
X124656250Y-104363000D01*
X124670585Y-104348665D01*
X137185000Y-104348665D01*
X137185000Y-104631335D01*
X137240147Y-104908574D01*
X137348320Y-105169727D01*
X137505363Y-105404759D01*
X137705241Y-105604637D01*
X137939128Y-105760915D01*
X137878486Y-105793329D01*
X137806903Y-106037298D01*
X138620000Y-106850395D01*
X139433097Y-106037298D01*
X139361514Y-105793329D01*
X139297008Y-105762806D01*
X139299727Y-105761680D01*
X139534759Y-105604637D01*
X139734637Y-105404759D01*
X139891680Y-105169727D01*
X139999853Y-104908574D01*
X140055000Y-104631335D01*
X140055000Y-104348665D01*
X139999853Y-104071426D01*
X139891680Y-103810273D01*
X139734637Y-103575241D01*
X139534759Y-103375363D01*
X139299727Y-103218320D01*
X139038574Y-103110147D01*
X138761335Y-103055000D01*
X138478665Y-103055000D01*
X138201426Y-103110147D01*
X137940273Y-103218320D01*
X137705241Y-103375363D01*
X137505363Y-103575241D01*
X137348320Y-103810273D01*
X137240147Y-104071426D01*
X137185000Y-104348665D01*
X124670585Y-104348665D01*
X124815000Y-104204250D01*
X124818072Y-103690000D01*
X124805812Y-103565518D01*
X124769502Y-103445820D01*
X124710537Y-103335506D01*
X124631185Y-103238815D01*
X124534494Y-103159463D01*
X124424180Y-103100498D01*
X124304482Y-103064188D01*
X124180000Y-103051928D01*
X123665750Y-103055000D01*
X123507000Y-103213750D01*
X123253000Y-103213750D01*
X123094250Y-103055000D01*
X122580000Y-103051928D01*
X122455518Y-103064188D01*
X122335820Y-103100498D01*
X122225506Y-103159463D01*
X122128815Y-103238815D01*
X122049463Y-103335506D01*
X121990498Y-103445820D01*
X121954188Y-103565518D01*
X121941928Y-103690000D01*
X119660000Y-103690000D01*
X119660000Y-70108376D01*
X120124000Y-70108376D01*
X120124000Y-70431624D01*
X120187063Y-70748662D01*
X120310765Y-71047305D01*
X120490352Y-71316076D01*
X120718924Y-71544648D01*
X120987695Y-71724235D01*
X121286338Y-71847937D01*
X121603376Y-71911000D01*
X121926624Y-71911000D01*
X122243662Y-71847937D01*
X122542305Y-71724235D01*
X122811076Y-71544648D01*
X123039648Y-71316076D01*
X123219235Y-71047305D01*
X123342937Y-70748662D01*
X123406000Y-70431624D01*
X123406000Y-70108376D01*
X123342937Y-69791338D01*
X123219235Y-69492695D01*
X123039648Y-69223924D01*
X122811076Y-68995352D01*
X122542305Y-68815765D01*
X122243662Y-68692063D01*
X121926624Y-68629000D01*
X121603376Y-68629000D01*
X121286338Y-68692063D01*
X120987695Y-68815765D01*
X120718924Y-68995352D01*
X120490352Y-69223924D01*
X120310765Y-69492695D01*
X120187063Y-69791338D01*
X120124000Y-70108376D01*
X119660000Y-70108376D01*
X119660000Y-65900000D01*
X120076928Y-65900000D01*
X120076928Y-66100000D01*
X120089188Y-66224482D01*
X120125498Y-66344180D01*
X120184463Y-66454494D01*
X120263815Y-66551185D01*
X120360506Y-66630537D01*
X120470820Y-66689502D01*
X120590518Y-66725812D01*
X120715000Y-66738072D01*
X121715000Y-66738072D01*
X121839482Y-66725812D01*
X121959180Y-66689502D01*
X122069494Y-66630537D01*
X122166185Y-66551185D01*
X122245537Y-66454494D01*
X122304502Y-66344180D01*
X122340812Y-66224482D01*
X122353072Y-66100000D01*
X122353072Y-65900000D01*
X123176928Y-65900000D01*
X123176928Y-66100000D01*
X123189188Y-66224482D01*
X123225498Y-66344180D01*
X123284463Y-66454494D01*
X123363815Y-66551185D01*
X123460506Y-66630537D01*
X123570820Y-66689502D01*
X123690518Y-66725812D01*
X123815000Y-66738072D01*
X124815000Y-66738072D01*
X124939482Y-66725812D01*
X125059180Y-66689502D01*
X125169494Y-66630537D01*
X125266185Y-66551185D01*
X125345537Y-66454494D01*
X125404502Y-66344180D01*
X125440812Y-66224482D01*
X125453072Y-66100000D01*
X125453072Y-65900000D01*
X125440812Y-65775518D01*
X125404502Y-65655820D01*
X125345537Y-65545506D01*
X125266185Y-65448815D01*
X125169494Y-65369463D01*
X125059180Y-65310498D01*
X124939482Y-65274188D01*
X124815000Y-65261928D01*
X123815000Y-65261928D01*
X123690518Y-65274188D01*
X123570820Y-65310498D01*
X123460506Y-65369463D01*
X123363815Y-65448815D01*
X123284463Y-65545506D01*
X123225498Y-65655820D01*
X123189188Y-65775518D01*
X123176928Y-65900000D01*
X122353072Y-65900000D01*
X122340812Y-65775518D01*
X122304502Y-65655820D01*
X122245537Y-65545506D01*
X122166185Y-65448815D01*
X122069494Y-65369463D01*
X121959180Y-65310498D01*
X121839482Y-65274188D01*
X121715000Y-65261928D01*
X120715000Y-65261928D01*
X120590518Y-65274188D01*
X120470820Y-65310498D01*
X120360506Y-65369463D01*
X120263815Y-65448815D01*
X120184463Y-65545506D01*
X120125498Y-65655820D01*
X120089188Y-65775518D01*
X120076928Y-65900000D01*
X119660000Y-65900000D01*
X119660000Y-61568376D01*
X120124000Y-61568376D01*
X120124000Y-61891624D01*
X120187063Y-62208662D01*
X120310765Y-62507305D01*
X120490352Y-62776076D01*
X120718924Y-63004648D01*
X120987695Y-63184235D01*
X121286338Y-63307937D01*
X121603376Y-63371000D01*
X121926624Y-63371000D01*
X122243662Y-63307937D01*
X122542305Y-63184235D01*
X122811076Y-63004648D01*
X123039648Y-62776076D01*
X123219235Y-62507305D01*
X123342937Y-62208662D01*
X123406000Y-61891624D01*
X123406000Y-61568376D01*
X124854000Y-61568376D01*
X124854000Y-61891624D01*
X124917063Y-62208662D01*
X125040765Y-62507305D01*
X125220352Y-62776076D01*
X125448924Y-63004648D01*
X125717695Y-63184235D01*
X126016338Y-63307937D01*
X126026077Y-63309874D01*
X126021892Y-63319978D01*
X125985000Y-63505448D01*
X125985000Y-63694552D01*
X126021892Y-63880022D01*
X126071589Y-64000000D01*
X126021892Y-64119978D01*
X125985000Y-64305448D01*
X125985000Y-64494552D01*
X126021892Y-64680022D01*
X126071589Y-64800000D01*
X126021892Y-64919978D01*
X125985000Y-65105448D01*
X125985000Y-65294552D01*
X126021892Y-65480022D01*
X126094259Y-65654731D01*
X126199319Y-65811964D01*
X126333036Y-65945681D01*
X126414330Y-66000000D01*
X126333036Y-66054319D01*
X126199319Y-66188036D01*
X126094259Y-66345269D01*
X126021892Y-66519978D01*
X125985000Y-66705448D01*
X125985000Y-66894552D01*
X126021892Y-67080022D01*
X126071589Y-67200000D01*
X126021892Y-67319978D01*
X125985000Y-67505448D01*
X125985000Y-67694552D01*
X126021892Y-67880022D01*
X126071589Y-68000000D01*
X126021892Y-68119978D01*
X125985000Y-68305448D01*
X125985000Y-68494552D01*
X126021892Y-68680022D01*
X126026077Y-68690126D01*
X126016338Y-68692063D01*
X125717695Y-68815765D01*
X125448924Y-68995352D01*
X125220352Y-69223924D01*
X125040765Y-69492695D01*
X124917063Y-69791338D01*
X124854000Y-70108376D01*
X124854000Y-70431624D01*
X124917063Y-70748662D01*
X125040765Y-71047305D01*
X125220352Y-71316076D01*
X125448924Y-71544648D01*
X125717695Y-71724235D01*
X126016338Y-71847937D01*
X126333376Y-71911000D01*
X126656624Y-71911000D01*
X126973662Y-71847937D01*
X127272305Y-71724235D01*
X127541076Y-71544648D01*
X127769648Y-71316076D01*
X127949235Y-71047305D01*
X128072937Y-70748662D01*
X128136000Y-70431624D01*
X128136000Y-70108376D01*
X128072937Y-69791338D01*
X128027191Y-69680897D01*
X128095126Y-69653187D01*
X128104323Y-69648270D01*
X128114026Y-69508710D01*
X128181363Y-69527871D01*
X128194313Y-69528921D01*
X128236869Y-69571477D01*
X128273044Y-69535302D01*
X128306039Y-69537977D01*
X128609250Y-69535000D01*
X128768000Y-69376250D01*
X128768000Y-69038072D01*
X129022000Y-69038072D01*
X129022000Y-69376250D01*
X129180750Y-69535000D01*
X129483961Y-69537977D01*
X129608637Y-69527871D01*
X129728945Y-69493638D01*
X129840263Y-69436591D01*
X129938312Y-69358923D01*
X130019325Y-69263619D01*
X130080189Y-69154341D01*
X130118564Y-69035289D01*
X130130000Y-68931750D01*
X129992725Y-68794475D01*
X130025537Y-68754494D01*
X130084502Y-68644180D01*
X130097753Y-68600497D01*
X130130000Y-68568250D01*
X130122864Y-68503644D01*
X130133072Y-68400000D01*
X130133072Y-68100000D01*
X130123223Y-68000000D01*
X130133072Y-67900000D01*
X130133072Y-67600000D01*
X130123223Y-67500000D01*
X130133072Y-67400000D01*
X130133072Y-67276303D01*
X130144314Y-67290001D01*
X130240000Y-67368528D01*
X130240001Y-92612058D01*
X127500130Y-92612058D01*
X127375648Y-92624318D01*
X127255950Y-92660628D01*
X127145636Y-92719593D01*
X127048945Y-92798945D01*
X126969593Y-92895636D01*
X126910628Y-93005950D01*
X126874318Y-93125648D01*
X126862058Y-93250130D01*
X126862058Y-96249870D01*
X126874318Y-96374352D01*
X126910628Y-96494050D01*
X126969593Y-96604364D01*
X127048945Y-96701055D01*
X127145636Y-96780407D01*
X127255950Y-96839372D01*
X127375648Y-96875682D01*
X127500130Y-96887942D01*
X130499870Y-96887942D01*
X130624352Y-96875682D01*
X130744050Y-96839372D01*
X130854364Y-96780407D01*
X130951055Y-96701055D01*
X131030407Y-96604364D01*
X131089372Y-96494050D01*
X131125682Y-96374352D01*
X131137942Y-96249870D01*
X131137942Y-96090253D01*
X131151738Y-96110900D01*
X131449100Y-96408262D01*
X131798760Y-96641897D01*
X132187281Y-96802828D01*
X132599734Y-96884870D01*
X133020266Y-96884870D01*
X133432719Y-96802828D01*
X133821240Y-96641897D01*
X134170900Y-96408262D01*
X134468262Y-96110900D01*
X134701897Y-95761240D01*
X134862828Y-95372719D01*
X134944870Y-94960266D01*
X134944870Y-94539734D01*
X134862828Y-94127281D01*
X134701897Y-93738760D01*
X134468262Y-93389100D01*
X134170900Y-93091738D01*
X133821240Y-92858103D01*
X133432719Y-92697172D01*
X133020266Y-92615130D01*
X132599734Y-92615130D01*
X132260000Y-92682707D01*
X132260000Y-78674947D01*
X145715000Y-78674947D01*
X145715000Y-79125053D01*
X145802811Y-79566510D01*
X145975059Y-79982353D01*
X146225125Y-80356603D01*
X146543397Y-80674875D01*
X146917647Y-80924941D01*
X147333490Y-81097189D01*
X147774947Y-81185000D01*
X148225053Y-81185000D01*
X148666510Y-81097189D01*
X149082353Y-80924941D01*
X149456603Y-80674875D01*
X149774875Y-80356603D01*
X150024941Y-79982353D01*
X150197189Y-79566510D01*
X150285000Y-79125053D01*
X150285000Y-78674947D01*
X170715000Y-78674947D01*
X170715000Y-79125053D01*
X170802811Y-79566510D01*
X170975059Y-79982353D01*
X171225125Y-80356603D01*
X171543397Y-80674875D01*
X171917647Y-80924941D01*
X172333490Y-81097189D01*
X172774947Y-81185000D01*
X173225053Y-81185000D01*
X173666510Y-81097189D01*
X174082353Y-80924941D01*
X174456603Y-80674875D01*
X174774875Y-80356603D01*
X175024941Y-79982353D01*
X175197189Y-79566510D01*
X175285000Y-79125053D01*
X175285000Y-78674947D01*
X195715000Y-78674947D01*
X195715000Y-79125053D01*
X195802811Y-79566510D01*
X195975059Y-79982353D01*
X196225125Y-80356603D01*
X196543397Y-80674875D01*
X196917647Y-80924941D01*
X197333490Y-81097189D01*
X197774947Y-81185000D01*
X198225053Y-81185000D01*
X198666510Y-81097189D01*
X199082353Y-80924941D01*
X199456603Y-80674875D01*
X199774875Y-80356603D01*
X200024941Y-79982353D01*
X200197189Y-79566510D01*
X200285000Y-79125053D01*
X200285000Y-78674947D01*
X200197189Y-78233490D01*
X200024941Y-77817647D01*
X199774875Y-77443397D01*
X199456603Y-77125125D01*
X199082353Y-76875059D01*
X198666510Y-76702811D01*
X198225053Y-76615000D01*
X197774947Y-76615000D01*
X197333490Y-76702811D01*
X196917647Y-76875059D01*
X196543397Y-77125125D01*
X196225125Y-77443397D01*
X195975059Y-77817647D01*
X195802811Y-78233490D01*
X195715000Y-78674947D01*
X175285000Y-78674947D01*
X175197189Y-78233490D01*
X175024941Y-77817647D01*
X174774875Y-77443397D01*
X174456603Y-77125125D01*
X174082353Y-76875059D01*
X173666510Y-76702811D01*
X173225053Y-76615000D01*
X172774947Y-76615000D01*
X172333490Y-76702811D01*
X171917647Y-76875059D01*
X171543397Y-77125125D01*
X171225125Y-77443397D01*
X170975059Y-77817647D01*
X170802811Y-78233490D01*
X170715000Y-78674947D01*
X150285000Y-78674947D01*
X150197189Y-78233490D01*
X150024941Y-77817647D01*
X149774875Y-77443397D01*
X149456603Y-77125125D01*
X149082353Y-76875059D01*
X148666510Y-76702811D01*
X148225053Y-76615000D01*
X147774947Y-76615000D01*
X147333490Y-76702811D01*
X146917647Y-76875059D01*
X146543397Y-77125125D01*
X146225125Y-77443397D01*
X145975059Y-77817647D01*
X145802811Y-78233490D01*
X145715000Y-78674947D01*
X132260000Y-78674947D01*
X132260000Y-68167311D01*
X132448102Y-68245226D01*
X132648061Y-68285000D01*
X132851939Y-68285000D01*
X133051898Y-68245226D01*
X133240256Y-68167205D01*
X133409774Y-68053937D01*
X133553937Y-67909774D01*
X133667205Y-67740256D01*
X133745226Y-67551898D01*
X133785000Y-67351939D01*
X133785000Y-67148061D01*
X133760000Y-67022377D01*
X133760000Y-66733923D01*
X133764886Y-66684315D01*
X133745385Y-66486320D01*
X133687632Y-66295935D01*
X133677453Y-66276892D01*
X133593847Y-66120475D01*
X133467633Y-65966682D01*
X133429099Y-65935058D01*
X132564946Y-65070905D01*
X132533318Y-65032367D01*
X132379525Y-64906153D01*
X132204065Y-64812368D01*
X132013679Y-64754615D01*
X131865293Y-64740000D01*
X131815685Y-64735114D01*
X131766077Y-64740000D01*
X131477623Y-64740000D01*
X131351939Y-64715000D01*
X131148061Y-64715000D01*
X130948102Y-64754774D01*
X130759744Y-64832795D01*
X130590226Y-64946063D01*
X130546289Y-64990000D01*
X130124208Y-64990000D01*
X130133072Y-64900000D01*
X130133072Y-64600000D01*
X130123223Y-64500000D01*
X130133072Y-64400000D01*
X130133072Y-64100000D01*
X130123223Y-64000000D01*
X130133072Y-63900000D01*
X130133072Y-63600000D01*
X130122864Y-63496356D01*
X130130000Y-63431750D01*
X130097753Y-63399503D01*
X130084502Y-63355820D01*
X130025537Y-63245506D01*
X129992725Y-63205525D01*
X130130000Y-63068250D01*
X130118564Y-62964711D01*
X130080189Y-62845659D01*
X130019325Y-62736381D01*
X129938312Y-62641077D01*
X129840263Y-62563409D01*
X129728945Y-62506362D01*
X129608637Y-62472129D01*
X129483961Y-62462023D01*
X129180750Y-62465000D01*
X129022000Y-62623750D01*
X129022000Y-62961928D01*
X128768000Y-62961928D01*
X128768000Y-62623750D01*
X128609250Y-62465000D01*
X128306039Y-62462023D01*
X128273044Y-62464698D01*
X128236869Y-62428523D01*
X128194313Y-62471079D01*
X128181363Y-62472129D01*
X128114026Y-62491290D01*
X128104323Y-62351730D01*
X128027125Y-62319263D01*
X128072937Y-62208662D01*
X128136000Y-61891624D01*
X128136000Y-61569883D01*
X128196063Y-61659774D01*
X128340226Y-61803937D01*
X128509744Y-61917205D01*
X128698102Y-61995226D01*
X128898061Y-62035000D01*
X129101939Y-62035000D01*
X129301898Y-61995226D01*
X129490256Y-61917205D01*
X129659774Y-61803937D01*
X129803937Y-61659774D01*
X129875132Y-61553223D01*
X135168356Y-56260000D01*
X144502723Y-56260000D01*
X144641406Y-56467554D01*
X144907446Y-56733594D01*
X145220276Y-56942620D01*
X145567873Y-57086600D01*
X145936881Y-57160000D01*
X146313119Y-57160000D01*
X146682127Y-57086600D01*
X147029724Y-56942620D01*
X147342554Y-56733594D01*
X147608594Y-56467554D01*
X147747277Y-56260000D01*
X169502723Y-56260000D01*
X169641406Y-56467554D01*
X169907446Y-56733594D01*
X170220276Y-56942620D01*
X170567873Y-57086600D01*
X170936881Y-57160000D01*
X171313119Y-57160000D01*
X171682127Y-57086600D01*
X172029724Y-56942620D01*
X172342554Y-56733594D01*
X172608594Y-56467554D01*
X172747277Y-56260000D01*
X194502723Y-56260000D01*
X194641406Y-56467554D01*
X194907446Y-56733594D01*
X195220276Y-56942620D01*
X195567873Y-57086600D01*
X195936881Y-57160000D01*
X196313119Y-57160000D01*
X196682127Y-57086600D01*
X197029724Y-56942620D01*
X197342554Y-56733594D01*
X197608594Y-56467554D01*
X197817620Y-56154724D01*
X197961600Y-55807127D01*
X198035000Y-55438119D01*
X198035000Y-55061881D01*
X197961600Y-54692873D01*
X197817620Y-54345276D01*
X197608594Y-54032446D01*
X197342554Y-53766406D01*
X197029724Y-53557380D01*
X196682127Y-53413400D01*
X196313119Y-53340000D01*
X195936881Y-53340000D01*
X195567873Y-53413400D01*
X195220276Y-53557380D01*
X194907446Y-53766406D01*
X194641406Y-54032446D01*
X194502723Y-54240000D01*
X172747277Y-54240000D01*
X172608594Y-54032446D01*
X172342554Y-53766406D01*
X172029724Y-53557380D01*
X171682127Y-53413400D01*
X171313119Y-53340000D01*
X170936881Y-53340000D01*
X170567873Y-53413400D01*
X170220276Y-53557380D01*
X169907446Y-53766406D01*
X169641406Y-54032446D01*
X169502723Y-54240000D01*
X147747277Y-54240000D01*
X147608594Y-54032446D01*
X147342554Y-53766406D01*
X147029724Y-53557380D01*
X146682127Y-53413400D01*
X146313119Y-53340000D01*
X145936881Y-53340000D01*
X145567873Y-53413400D01*
X145220276Y-53557380D01*
X144907446Y-53766406D01*
X144641406Y-54032446D01*
X144502723Y-54240000D01*
X134799608Y-54240000D01*
X134750000Y-54235114D01*
X134552005Y-54254615D01*
X134361620Y-54312368D01*
X134186160Y-54406153D01*
X134032367Y-54532367D01*
X134000744Y-54570900D01*
X128446777Y-60124868D01*
X128340226Y-60196063D01*
X128196063Y-60340226D01*
X128082795Y-60509744D01*
X128004774Y-60698102D01*
X127965000Y-60898061D01*
X127965000Y-60990755D01*
X127949235Y-60952695D01*
X127769648Y-60683924D01*
X127541076Y-60455352D01*
X127272305Y-60275765D01*
X126973662Y-60152063D01*
X126656624Y-60089000D01*
X126333376Y-60089000D01*
X126016338Y-60152063D01*
X125717695Y-60275765D01*
X125448924Y-60455352D01*
X125220352Y-60683924D01*
X125040765Y-60952695D01*
X124917063Y-61251338D01*
X124854000Y-61568376D01*
X123406000Y-61568376D01*
X123342937Y-61251338D01*
X123219235Y-60952695D01*
X123039648Y-60683924D01*
X122811076Y-60455352D01*
X122542305Y-60275765D01*
X122243662Y-60152063D01*
X121926624Y-60089000D01*
X121603376Y-60089000D01*
X121286338Y-60152063D01*
X120987695Y-60275765D01*
X120718924Y-60455352D01*
X120490352Y-60683924D01*
X120310765Y-60952695D01*
X120187063Y-61251338D01*
X120124000Y-61568376D01*
X119660000Y-61568376D01*
X119660000Y-52127000D01*
X121765000Y-52127000D01*
X121765000Y-52220128D01*
X121850890Y-52651925D01*
X122019369Y-53058669D01*
X122263962Y-53424729D01*
X122575271Y-53736038D01*
X122941331Y-53980631D01*
X123348075Y-54149110D01*
X123779872Y-54235000D01*
X124220128Y-54235000D01*
X124651925Y-54149110D01*
X125058669Y-53980631D01*
X125424729Y-53736038D01*
X125736038Y-53424729D01*
X125980631Y-53058669D01*
X126149110Y-52651925D01*
X126235000Y-52220128D01*
X126235000Y-51779872D01*
X126149110Y-51348075D01*
X125980631Y-50941331D01*
X125736038Y-50575271D01*
X125424729Y-50263962D01*
X125058669Y-50019369D01*
X124651925Y-49850890D01*
X124220128Y-49765000D01*
X124127000Y-49765000D01*
X124127000Y-47660000D01*
X206873000Y-47660000D01*
X206873000Y-49765000D01*
G37*
X206873000Y-49765000D02*
X206779872Y-49765000D01*
X206348075Y-49850890D01*
X205941331Y-50019369D01*
X205575271Y-50263962D01*
X205263962Y-50575271D01*
X205019369Y-50941331D01*
X204850890Y-51348075D01*
X204765000Y-51779872D01*
X204765000Y-52220128D01*
X204850890Y-52651925D01*
X205019369Y-53058669D01*
X205263962Y-53424729D01*
X205575271Y-53736038D01*
X205941331Y-53980631D01*
X206348075Y-54149110D01*
X206779872Y-54235000D01*
X207220128Y-54235000D01*
X207651925Y-54149110D01*
X208058669Y-53980631D01*
X208424729Y-53736038D01*
X208736038Y-53424729D01*
X208980631Y-53058669D01*
X209149110Y-52651925D01*
X209235000Y-52220128D01*
X209235000Y-52127000D01*
X211340001Y-52127000D01*
X211340000Y-185873000D01*
X209235000Y-185873000D01*
X209235000Y-185779872D01*
X209149110Y-185348075D01*
X208980631Y-184941331D01*
X208736038Y-184575271D01*
X208424729Y-184263962D01*
X208058669Y-184019369D01*
X207651925Y-183850890D01*
X207220128Y-183765000D01*
X206779872Y-183765000D01*
X206348075Y-183850890D01*
X205941331Y-184019369D01*
X205575271Y-184263962D01*
X205263962Y-184575271D01*
X205019369Y-184941331D01*
X204850890Y-185348075D01*
X204765000Y-185779872D01*
X204765000Y-186220128D01*
X204850890Y-186651925D01*
X205019369Y-187058669D01*
X205263962Y-187424729D01*
X205575271Y-187736038D01*
X205941331Y-187980631D01*
X206348075Y-188149110D01*
X206779872Y-188235000D01*
X206873000Y-188235000D01*
X206873000Y-190340000D01*
X124127000Y-190340000D01*
X124127000Y-188235000D01*
X124220128Y-188235000D01*
X124651925Y-188149110D01*
X125058669Y-187980631D01*
X125424729Y-187736038D01*
X125736038Y-187424729D01*
X125980631Y-187058669D01*
X126149110Y-186651925D01*
X126235000Y-186220128D01*
X126235000Y-185779872D01*
X126149110Y-185348075D01*
X125980631Y-184941331D01*
X125736038Y-184575271D01*
X125424729Y-184263962D01*
X125067097Y-184025000D01*
X144211928Y-184025000D01*
X144224188Y-184149482D01*
X144260498Y-184269180D01*
X144319463Y-184379494D01*
X144398815Y-184476185D01*
X144495506Y-184555537D01*
X144605820Y-184614502D01*
X144725518Y-184650812D01*
X144850000Y-184663072D01*
X145839250Y-184660000D01*
X145998000Y-184501250D01*
X145998000Y-182877000D01*
X144373750Y-182877000D01*
X144215000Y-183035750D01*
X144211928Y-184025000D01*
X125067097Y-184025000D01*
X125058669Y-184019369D01*
X124651925Y-183850890D01*
X124220128Y-183765000D01*
X123779872Y-183765000D01*
X123348075Y-183850890D01*
X122941331Y-184019369D01*
X122575271Y-184263962D01*
X122263962Y-184575271D01*
X122019369Y-184941331D01*
X121850890Y-185348075D01*
X121765000Y-185779872D01*
X121765000Y-185873000D01*
X119660000Y-185873000D01*
X119660000Y-181475000D01*
X144211928Y-181475000D01*
X144215000Y-182464250D01*
X144373750Y-182623000D01*
X145998000Y-182623000D01*
X145998000Y-180998750D01*
X145839250Y-180840000D01*
X144850000Y-180836928D01*
X144725518Y-180849188D01*
X144605820Y-180885498D01*
X144495506Y-180944463D01*
X144398815Y-181023815D01*
X144319463Y-181120506D01*
X144260498Y-181230820D01*
X144224188Y-181350518D01*
X144211928Y-181475000D01*
X119660000Y-181475000D01*
X119660000Y-105290000D01*
X121941928Y-105290000D01*
X121954188Y-105414482D01*
X121990498Y-105534180D01*
X122049463Y-105644494D01*
X122128815Y-105741185D01*
X122225506Y-105820537D01*
X122335820Y-105879502D01*
X122455518Y-105915812D01*
X122463961Y-105916643D01*
X122265363Y-106115241D01*
X122108320Y-106350273D01*
X122000147Y-106611426D01*
X121945000Y-106888665D01*
X121945000Y-107171335D01*
X122000147Y-107448574D01*
X122108320Y-107709727D01*
X122265363Y-107944759D01*
X122465241Y-108144637D01*
X122697759Y-108300000D01*
X122465241Y-108455363D01*
X122265363Y-108655241D01*
X122108320Y-108890273D01*
X122000147Y-109151426D01*
X121945000Y-109428665D01*
X121945000Y-109711335D01*
X122000147Y-109988574D01*
X122108320Y-110249727D01*
X122265363Y-110484759D01*
X122465241Y-110684637D01*
X122697759Y-110840000D01*
X122465241Y-110995363D01*
X122265363Y-111195241D01*
X122108320Y-111430273D01*
X122000147Y-111691426D01*
X121945000Y-111968665D01*
X121945000Y-112251335D01*
X122000147Y-112528574D01*
X122108320Y-112789727D01*
X122265363Y-113024759D01*
X122465241Y-113224637D01*
X122697759Y-113380000D01*
X122465241Y-113535363D01*
X122265363Y-113735241D01*
X122108320Y-113970273D01*
X122000147Y-114231426D01*
X121945000Y-114508665D01*
X121945000Y-114791335D01*
X122000147Y-115068574D01*
X122108320Y-115329727D01*
X122265363Y-115564759D01*
X122465241Y-115764637D01*
X122697759Y-115920000D01*
X122465241Y-116075363D01*
X122265363Y-116275241D01*
X122108320Y-116510273D01*
X122000147Y-116771426D01*
X121945000Y-117048665D01*
X121945000Y-117331335D01*
X122000147Y-117608574D01*
X122108320Y-117869727D01*
X122265363Y-118104759D01*
X122465241Y-118304637D01*
X122697759Y-118460000D01*
X122465241Y-118615363D01*
X122265363Y-118815241D01*
X122108320Y-119050273D01*
X122000147Y-119311426D01*
X121945000Y-119588665D01*
X121945000Y-119871335D01*
X122000147Y-120148574D01*
X122108320Y-120409727D01*
X122265363Y-120644759D01*
X122465241Y-120844637D01*
X122697759Y-121000000D01*
X122465241Y-121155363D01*
X122265363Y-121355241D01*
X122108320Y-121590273D01*
X122000147Y-121851426D01*
X121945000Y-122128665D01*
X121945000Y-122411335D01*
X122000147Y-122688574D01*
X122108320Y-122949727D01*
X122265363Y-123184759D01*
X122465241Y-123384637D01*
X122697759Y-123540000D01*
X122465241Y-123695363D01*
X122265363Y-123895241D01*
X122108320Y-124130273D01*
X122000147Y-124391426D01*
X121945000Y-124668665D01*
X121945000Y-124951335D01*
X122000147Y-125228574D01*
X122108320Y-125489727D01*
X122265363Y-125724759D01*
X122465241Y-125924637D01*
X122697759Y-126080000D01*
X122465241Y-126235363D01*
X122265363Y-126435241D01*
X122108320Y-126670273D01*
X122000147Y-126931426D01*
X121945000Y-127208665D01*
X121945000Y-127491335D01*
X122000147Y-127768574D01*
X122108320Y-128029727D01*
X122265363Y-128264759D01*
X122465241Y-128464637D01*
X122697759Y-128620000D01*
X122465241Y-128775363D01*
X122265363Y-128975241D01*
X122108320Y-129210273D01*
X122000147Y-129471426D01*
X121945000Y-129748665D01*
X121945000Y-130031335D01*
X122000147Y-130308574D01*
X122108320Y-130569727D01*
X122265363Y-130804759D01*
X122465241Y-131004637D01*
X122697759Y-131160000D01*
X122465241Y-131315363D01*
X122265363Y-131515241D01*
X122108320Y-131750273D01*
X122000147Y-132011426D01*
X121945000Y-132288665D01*
X121945000Y-132571335D01*
X122000147Y-132848574D01*
X122108320Y-133109727D01*
X122265363Y-133344759D01*
X122465241Y-133544637D01*
X122697759Y-133700000D01*
X122465241Y-133855363D01*
X122265363Y-134055241D01*
X122108320Y-134290273D01*
X122000147Y-134551426D01*
X121945000Y-134828665D01*
X121945000Y-135111335D01*
X122000147Y-135388574D01*
X122108320Y-135649727D01*
X122265363Y-135884759D01*
X122465241Y-136084637D01*
X122697759Y-136240000D01*
X122465241Y-136395363D01*
X122265363Y-136595241D01*
X122108320Y-136830273D01*
X122000147Y-137091426D01*
X121945000Y-137368665D01*
X121945000Y-137651335D01*
X122000147Y-137928574D01*
X122108320Y-138189727D01*
X122265363Y-138424759D01*
X122465241Y-138624637D01*
X122700273Y-138781680D01*
X122961426Y-138889853D01*
X123238665Y-138945000D01*
X123521335Y-138945000D01*
X123798574Y-138889853D01*
X124059727Y-138781680D01*
X124294759Y-138624637D01*
X124494637Y-138424759D01*
X124650000Y-138192241D01*
X124805363Y-138424759D01*
X125005241Y-138624637D01*
X125240273Y-138781680D01*
X125501426Y-138889853D01*
X125778665Y-138945000D01*
X126061335Y-138945000D01*
X126338574Y-138889853D01*
X126599727Y-138781680D01*
X126834759Y-138624637D01*
X127034637Y-138424759D01*
X127190000Y-138192241D01*
X127345363Y-138424759D01*
X127545241Y-138624637D01*
X127780273Y-138781680D01*
X128041426Y-138889853D01*
X128318665Y-138945000D01*
X128601335Y-138945000D01*
X128878574Y-138889853D01*
X129139727Y-138781680D01*
X129374759Y-138624637D01*
X129496694Y-138502702D01*
X130186903Y-138502702D01*
X130258486Y-138746671D01*
X130513996Y-138867571D01*
X130788184Y-138936300D01*
X131070512Y-138950217D01*
X131350130Y-138908787D01*
X131616292Y-138813603D01*
X131741514Y-138746671D01*
X131813097Y-138502702D01*
X131000000Y-137689605D01*
X130186903Y-138502702D01*
X129496694Y-138502702D01*
X129574637Y-138424759D01*
X129730915Y-138190872D01*
X129763329Y-138251514D01*
X130007298Y-138323097D01*
X130820395Y-137510000D01*
X131179605Y-137510000D01*
X131992702Y-138323097D01*
X132236671Y-138251514D01*
X132267194Y-138187008D01*
X132268320Y-138189727D01*
X132425363Y-138424759D01*
X132625241Y-138624637D01*
X132860273Y-138781680D01*
X133121426Y-138889853D01*
X133398665Y-138945000D01*
X133681335Y-138945000D01*
X133958574Y-138889853D01*
X134219727Y-138781680D01*
X134454759Y-138624637D01*
X134654637Y-138424759D01*
X134810000Y-138192241D01*
X134965363Y-138424759D01*
X135165241Y-138624637D01*
X135400273Y-138781680D01*
X135661426Y-138889853D01*
X135938665Y-138945000D01*
X136221335Y-138945000D01*
X136498574Y-138889853D01*
X136759727Y-138781680D01*
X136994759Y-138624637D01*
X137194637Y-138424759D01*
X137350000Y-138192241D01*
X137505363Y-138424759D01*
X137705241Y-138624637D01*
X137940273Y-138781680D01*
X138201426Y-138889853D01*
X138478665Y-138945000D01*
X138761335Y-138945000D01*
X139038574Y-138889853D01*
X139299727Y-138781680D01*
X139534759Y-138624637D01*
X139734637Y-138424759D01*
X139891680Y-138189727D01*
X139999853Y-137928574D01*
X140024801Y-137803156D01*
X150139999Y-147918355D01*
X150139999Y-160295422D01*
X150024941Y-160017647D01*
X149774875Y-159643397D01*
X149456603Y-159325125D01*
X149082353Y-159075059D01*
X148666510Y-158902811D01*
X148225053Y-158815000D01*
X147774947Y-158815000D01*
X147333490Y-158902811D01*
X146917647Y-159075059D01*
X146543397Y-159325125D01*
X146225125Y-159643397D01*
X145975059Y-160017647D01*
X145802811Y-160433490D01*
X145715000Y-160874947D01*
X145715000Y-161325053D01*
X145802811Y-161766510D01*
X145975059Y-162182353D01*
X146225125Y-162556603D01*
X146543397Y-162874875D01*
X146917647Y-163124941D01*
X147333490Y-163297189D01*
X147774947Y-163385000D01*
X148225053Y-163385000D01*
X148666510Y-163297189D01*
X149082353Y-163124941D01*
X149456603Y-162874875D01*
X149774875Y-162556603D01*
X150024941Y-162182353D01*
X150139999Y-161904578D01*
X150140000Y-180855293D01*
X150063119Y-180840000D01*
X149686881Y-180840000D01*
X149317873Y-180913400D01*
X148970276Y-181057380D01*
X148657446Y-181266406D01*
X148391406Y-181532446D01*
X148182380Y-181845276D01*
X148038400Y-182192873D01*
X148035802Y-182205933D01*
X148038072Y-181475000D01*
X148025812Y-181350518D01*
X147989502Y-181230820D01*
X147930537Y-181120506D01*
X147851185Y-181023815D01*
X147754494Y-180944463D01*
X147644180Y-180885498D01*
X147524482Y-180849188D01*
X147400000Y-180836928D01*
X146410750Y-180840000D01*
X146252000Y-180998750D01*
X146252000Y-182623000D01*
X146272000Y-182623000D01*
X146272000Y-182877000D01*
X146252000Y-182877000D01*
X146252000Y-184501250D01*
X146410750Y-184660000D01*
X147400000Y-184663072D01*
X147524482Y-184650812D01*
X147644180Y-184614502D01*
X147754494Y-184555537D01*
X147851185Y-184476185D01*
X147930537Y-184379494D01*
X147989502Y-184269180D01*
X148025812Y-184149482D01*
X148038072Y-184025000D01*
X148035802Y-183294067D01*
X148038400Y-183307127D01*
X148182380Y-183654724D01*
X148391406Y-183967554D01*
X148657446Y-184233594D01*
X148970276Y-184442620D01*
X149317873Y-184586600D01*
X149686881Y-184660000D01*
X150063119Y-184660000D01*
X150432127Y-184586600D01*
X150779724Y-184442620D01*
X151092554Y-184233594D01*
X151301148Y-184025000D01*
X169211928Y-184025000D01*
X169224188Y-184149482D01*
X169260498Y-184269180D01*
X169319463Y-184379494D01*
X169398815Y-184476185D01*
X169495506Y-184555537D01*
X169605820Y-184614502D01*
X169725518Y-184650812D01*
X169850000Y-184663072D01*
X170839250Y-184660000D01*
X170998000Y-184501250D01*
X170998000Y-182877000D01*
X169373750Y-182877000D01*
X169215000Y-183035750D01*
X169211928Y-184025000D01*
X151301148Y-184025000D01*
X151358594Y-183967554D01*
X151567620Y-183654724D01*
X151711600Y-183307127D01*
X151785000Y-182938119D01*
X151785000Y-182561881D01*
X151736301Y-182317055D01*
X151829098Y-182224258D01*
X151867632Y-182192634D01*
X151993846Y-182038841D01*
X152087631Y-181863381D01*
X152145384Y-181672995D01*
X152159999Y-181524609D01*
X152164885Y-181475001D01*
X152164885Y-181475000D01*
X169211928Y-181475000D01*
X169215000Y-182464250D01*
X169373750Y-182623000D01*
X170998000Y-182623000D01*
X170998000Y-180998750D01*
X170839250Y-180840000D01*
X169850000Y-180836928D01*
X169725518Y-180849188D01*
X169605820Y-180885498D01*
X169495506Y-180944463D01*
X169398815Y-181023815D01*
X169319463Y-181120506D01*
X169260498Y-181230820D01*
X169224188Y-181350518D01*
X169211928Y-181475000D01*
X152164885Y-181475000D01*
X152159999Y-181425393D01*
X152159999Y-147549607D01*
X152164885Y-147499999D01*
X152154314Y-147392669D01*
X173865000Y-169103356D01*
X173865001Y-181127722D01*
X173657446Y-181266406D01*
X173391406Y-181532446D01*
X173182380Y-181845276D01*
X173038400Y-182192873D01*
X173035802Y-182205933D01*
X173038072Y-181475000D01*
X173025812Y-181350518D01*
X172989502Y-181230820D01*
X172930537Y-181120506D01*
X172851185Y-181023815D01*
X172754494Y-180944463D01*
X172644180Y-180885498D01*
X172524482Y-180849188D01*
X172400000Y-180836928D01*
X171410750Y-180840000D01*
X171252000Y-180998750D01*
X171252000Y-182623000D01*
X171272000Y-182623000D01*
X171272000Y-182877000D01*
X171252000Y-182877000D01*
X171252000Y-184501250D01*
X171410750Y-184660000D01*
X172400000Y-184663072D01*
X172524482Y-184650812D01*
X172644180Y-184614502D01*
X172754494Y-184555537D01*
X172851185Y-184476185D01*
X172930537Y-184379494D01*
X172989502Y-184269180D01*
X173025812Y-184149482D01*
X173038072Y-184025000D01*
X173035802Y-183294067D01*
X173038400Y-183307127D01*
X173182380Y-183654724D01*
X173391406Y-183967554D01*
X173657446Y-184233594D01*
X173970276Y-184442620D01*
X174317873Y-184586600D01*
X174686881Y-184660000D01*
X175063119Y-184660000D01*
X175432127Y-184586600D01*
X175779724Y-184442620D01*
X176092554Y-184233594D01*
X176301148Y-184025000D01*
X194211928Y-184025000D01*
X194224188Y-184149482D01*
X194260498Y-184269180D01*
X194319463Y-184379494D01*
X194398815Y-184476185D01*
X194495506Y-184555537D01*
X194605820Y-184614502D01*
X194725518Y-184650812D01*
X194850000Y-184663072D01*
X195839250Y-184660000D01*
X195998000Y-184501250D01*
X195998000Y-182877000D01*
X194373750Y-182877000D01*
X194215000Y-183035750D01*
X194211928Y-184025000D01*
X176301148Y-184025000D01*
X176358594Y-183967554D01*
X176567620Y-183654724D01*
X176711600Y-183307127D01*
X176785000Y-182938119D01*
X176785000Y-182561881D01*
X176711600Y-182192873D01*
X176567620Y-181845276D01*
X176358594Y-181532446D01*
X176301148Y-181475000D01*
X194211928Y-181475000D01*
X194215000Y-182464250D01*
X194373750Y-182623000D01*
X195998000Y-182623000D01*
X195998000Y-180998750D01*
X195839250Y-180840000D01*
X194850000Y-180836928D01*
X194725518Y-180849188D01*
X194605820Y-180885498D01*
X194495506Y-180944463D01*
X194398815Y-181023815D01*
X194319463Y-181120506D01*
X194260498Y-181230820D01*
X194224188Y-181350518D01*
X194211928Y-181475000D01*
X176301148Y-181475000D01*
X176092554Y-181266406D01*
X175885000Y-181127723D01*
X175885000Y-168734608D01*
X175889886Y-168685000D01*
X175870385Y-168487005D01*
X175812632Y-168296620D01*
X175718846Y-168121159D01*
X175624256Y-168005900D01*
X175592633Y-167967367D01*
X175554100Y-167935744D01*
X168493303Y-160874947D01*
X170715000Y-160874947D01*
X170715000Y-161325053D01*
X170802811Y-161766510D01*
X170975059Y-162182353D01*
X171225125Y-162556603D01*
X171543397Y-162874875D01*
X171917647Y-163124941D01*
X172333490Y-163297189D01*
X172774947Y-163385000D01*
X173225053Y-163385000D01*
X173666510Y-163297189D01*
X174082353Y-163124941D01*
X174456603Y-162874875D01*
X174774875Y-162556603D01*
X175024941Y-162182353D01*
X175197189Y-161766510D01*
X175285000Y-161325053D01*
X175285000Y-160874947D01*
X175197189Y-160433490D01*
X175024941Y-160017647D01*
X174774875Y-159643397D01*
X174456603Y-159325125D01*
X174082353Y-159075059D01*
X173666510Y-158902811D01*
X173225053Y-158815000D01*
X172774947Y-158815000D01*
X172333490Y-158902811D01*
X171917647Y-159075059D01*
X171543397Y-159325125D01*
X171225125Y-159643397D01*
X170975059Y-160017647D01*
X170802811Y-160433490D01*
X170715000Y-160874947D01*
X168493303Y-160874947D01*
X140055000Y-132436645D01*
X140055000Y-132288665D01*
X139999853Y-132011426D01*
X139891680Y-131750273D01*
X139734637Y-131515241D01*
X139534759Y-131315363D01*
X139302241Y-131160000D01*
X139534759Y-131004637D01*
X139639396Y-130900000D01*
X148399767Y-130900000D01*
X198722623Y-181222856D01*
X198657446Y-181266406D01*
X198391406Y-181532446D01*
X198182380Y-181845276D01*
X198038400Y-182192873D01*
X198035802Y-182205933D01*
X198038072Y-181475000D01*
X198025812Y-181350518D01*
X197989502Y-181230820D01*
X197930537Y-181120506D01*
X197851185Y-181023815D01*
X197754494Y-180944463D01*
X197644180Y-180885498D01*
X197524482Y-180849188D01*
X197400000Y-180836928D01*
X196410750Y-180840000D01*
X196252000Y-180998750D01*
X196252000Y-182623000D01*
X196272000Y-182623000D01*
X196272000Y-182877000D01*
X196252000Y-182877000D01*
X196252000Y-184501250D01*
X196410750Y-184660000D01*
X197400000Y-184663072D01*
X197524482Y-184650812D01*
X197644180Y-184614502D01*
X197754494Y-184555537D01*
X197851185Y-184476185D01*
X197930537Y-184379494D01*
X197989502Y-184269180D01*
X198025812Y-184149482D01*
X198038072Y-184025000D01*
X198035802Y-183294067D01*
X198038400Y-183307127D01*
X198182380Y-183654724D01*
X198391406Y-183967554D01*
X198657446Y-184233594D01*
X198970276Y-184442620D01*
X199317873Y-184586600D01*
X199686881Y-184660000D01*
X200063119Y-184660000D01*
X200432127Y-184586600D01*
X200779724Y-184442620D01*
X201092554Y-184233594D01*
X201358594Y-183967554D01*
X201567620Y-183654724D01*
X201711600Y-183307127D01*
X201785000Y-182938119D01*
X201785000Y-182561881D01*
X201711600Y-182192873D01*
X201567620Y-181845276D01*
X201358594Y-181532446D01*
X201092554Y-181266406D01*
X200885000Y-181127723D01*
X200885000Y-180996482D01*
X200889886Y-180946877D01*
X200885000Y-180897270D01*
X200870385Y-180748884D01*
X200812632Y-180558498D01*
X200718847Y-180383038D01*
X200592633Y-180229245D01*
X200554094Y-180197617D01*
X181231424Y-160874947D01*
X195715000Y-160874947D01*
X195715000Y-161325053D01*
X195802811Y-161766510D01*
X195975059Y-162182353D01*
X196225125Y-162556603D01*
X196543397Y-162874875D01*
X196917647Y-163124941D01*
X197333490Y-163297189D01*
X197774947Y-163385000D01*
X198225053Y-163385000D01*
X198666510Y-163297189D01*
X199082353Y-163124941D01*
X199456603Y-162874875D01*
X199774875Y-162556603D01*
X200024941Y-162182353D01*
X200197189Y-161766510D01*
X200285000Y-161325053D01*
X200285000Y-160874947D01*
X200197189Y-160433490D01*
X200024941Y-160017647D01*
X199774875Y-159643397D01*
X199456603Y-159325125D01*
X199082353Y-159075059D01*
X198666510Y-158902811D01*
X198225053Y-158815000D01*
X197774947Y-158815000D01*
X197333490Y-158902811D01*
X196917647Y-159075059D01*
X196543397Y-159325125D01*
X196225125Y-159643397D01*
X195975059Y-160017647D01*
X195802811Y-160433490D01*
X195715000Y-160874947D01*
X181231424Y-160874947D01*
X149567383Y-129210906D01*
X149535755Y-129172367D01*
X149381962Y-129046153D01*
X149206502Y-128952368D01*
X149016116Y-128894615D01*
X148867730Y-128880000D01*
X148818122Y-128875114D01*
X148768514Y-128880000D01*
X139639396Y-128880000D01*
X139534759Y-128775363D01*
X139302241Y-128620000D01*
X139534759Y-128464637D01*
X139734637Y-128264759D01*
X139891680Y-128029727D01*
X139999853Y-127768574D01*
X140055000Y-127491335D01*
X140055000Y-127208665D01*
X139999853Y-126931426D01*
X139891680Y-126670273D01*
X139734637Y-126435241D01*
X139534759Y-126235363D01*
X139302241Y-126080000D01*
X139534759Y-125924637D01*
X139734637Y-125724759D01*
X139891680Y-125489727D01*
X139999853Y-125228574D01*
X140055000Y-124951335D01*
X140055000Y-124668665D01*
X139999853Y-124391426D01*
X139891680Y-124130273D01*
X139734637Y-123895241D01*
X139534759Y-123695363D01*
X139302241Y-123540000D01*
X139534759Y-123384637D01*
X139734637Y-123184759D01*
X139891680Y-122949727D01*
X139999853Y-122688574D01*
X140055000Y-122411335D01*
X140055000Y-122128665D01*
X139999853Y-121851426D01*
X139891680Y-121590273D01*
X139734637Y-121355241D01*
X139534759Y-121155363D01*
X139302241Y-121000000D01*
X139534759Y-120844637D01*
X139734637Y-120644759D01*
X139891680Y-120409727D01*
X139999853Y-120148574D01*
X140055000Y-119871335D01*
X140055000Y-119588665D01*
X139999853Y-119311426D01*
X139891680Y-119050273D01*
X139734637Y-118815241D01*
X139699268Y-118779872D01*
X158765000Y-118779872D01*
X158765000Y-119220128D01*
X158850890Y-119651925D01*
X159019369Y-120058669D01*
X159263962Y-120424729D01*
X159575271Y-120736038D01*
X159941331Y-120980631D01*
X160348075Y-121149110D01*
X160779872Y-121235000D01*
X161220128Y-121235000D01*
X161651925Y-121149110D01*
X162058669Y-120980631D01*
X162424729Y-120736038D01*
X162736038Y-120424729D01*
X162980631Y-120058669D01*
X163149110Y-119651925D01*
X163235000Y-119220128D01*
X163235000Y-118779872D01*
X183765000Y-118779872D01*
X183765000Y-119220128D01*
X183850890Y-119651925D01*
X184019369Y-120058669D01*
X184263962Y-120424729D01*
X184575271Y-120736038D01*
X184941331Y-120980631D01*
X185348075Y-121149110D01*
X185779872Y-121235000D01*
X186220128Y-121235000D01*
X186651925Y-121149110D01*
X187058669Y-120980631D01*
X187424729Y-120736038D01*
X187736038Y-120424729D01*
X187980631Y-120058669D01*
X188149110Y-119651925D01*
X188235000Y-119220128D01*
X188235000Y-118779872D01*
X188149110Y-118348075D01*
X187980631Y-117941331D01*
X187736038Y-117575271D01*
X187424729Y-117263962D01*
X187058669Y-117019369D01*
X186651925Y-116850890D01*
X186220128Y-116765000D01*
X185779872Y-116765000D01*
X185348075Y-116850890D01*
X184941331Y-117019369D01*
X184575271Y-117263962D01*
X184263962Y-117575271D01*
X184019369Y-117941331D01*
X183850890Y-118348075D01*
X183765000Y-118779872D01*
X163235000Y-118779872D01*
X163149110Y-118348075D01*
X162980631Y-117941331D01*
X162736038Y-117575271D01*
X162424729Y-117263962D01*
X162058669Y-117019369D01*
X161651925Y-116850890D01*
X161220128Y-116765000D01*
X160779872Y-116765000D01*
X160348075Y-116850890D01*
X159941331Y-117019369D01*
X159575271Y-117263962D01*
X159263962Y-117575271D01*
X159019369Y-117941331D01*
X158850890Y-118348075D01*
X158765000Y-118779872D01*
X139699268Y-118779872D01*
X139534759Y-118615363D01*
X139302241Y-118460000D01*
X139534759Y-118304637D01*
X139734637Y-118104759D01*
X139891680Y-117869727D01*
X139999853Y-117608574D01*
X140055000Y-117331335D01*
X140055000Y-117048665D01*
X139999853Y-116771426D01*
X139891680Y-116510273D01*
X139734637Y-116275241D01*
X139534759Y-116075363D01*
X139302241Y-115920000D01*
X139534759Y-115764637D01*
X139734637Y-115564759D01*
X139891680Y-115329727D01*
X139999853Y-115068574D01*
X140055000Y-114791335D01*
X140055000Y-114508665D01*
X139999853Y-114231426D01*
X139891680Y-113970273D01*
X139734637Y-113735241D01*
X139534759Y-113535363D01*
X139302241Y-113380000D01*
X139534759Y-113224637D01*
X139734637Y-113024759D01*
X139891680Y-112789727D01*
X139999853Y-112528574D01*
X140055000Y-112251335D01*
X140055000Y-111968665D01*
X139999853Y-111691426D01*
X139891680Y-111430273D01*
X139734637Y-111195241D01*
X139534759Y-110995363D01*
X139302241Y-110840000D01*
X139534759Y-110684637D01*
X139734637Y-110484759D01*
X139891680Y-110249727D01*
X139999853Y-109988574D01*
X140055000Y-109711335D01*
X140055000Y-109428665D01*
X139999853Y-109151426D01*
X139891680Y-108890273D01*
X139734637Y-108655241D01*
X139534759Y-108455363D01*
X139300872Y-108299085D01*
X139361514Y-108266671D01*
X139433097Y-108022702D01*
X138620000Y-107209605D01*
X137806903Y-108022702D01*
X137878486Y-108266671D01*
X137942992Y-108297194D01*
X137940273Y-108298320D01*
X137705241Y-108455363D01*
X137505363Y-108655241D01*
X137348320Y-108890273D01*
X137240147Y-109151426D01*
X137185000Y-109428665D01*
X137185000Y-109711335D01*
X137240147Y-109988574D01*
X137348320Y-110249727D01*
X137505363Y-110484759D01*
X137705241Y-110684637D01*
X137937759Y-110840000D01*
X137705241Y-110995363D01*
X137505363Y-111195241D01*
X137350000Y-111427759D01*
X137194637Y-111195241D01*
X136994759Y-110995363D01*
X136759727Y-110838320D01*
X136498574Y-110730147D01*
X136221335Y-110675000D01*
X135938665Y-110675000D01*
X135661426Y-110730147D01*
X135400273Y-110838320D01*
X135165241Y-110995363D01*
X134965363Y-111195241D01*
X134808320Y-111430273D01*
X134700147Y-111691426D01*
X134645000Y-111968665D01*
X134645000Y-112251335D01*
X134700147Y-112528574D01*
X134808320Y-112789727D01*
X134965363Y-113024759D01*
X135165241Y-113224637D01*
X135397759Y-113380000D01*
X135165241Y-113535363D01*
X134965363Y-113735241D01*
X134808320Y-113970273D01*
X134700147Y-114231426D01*
X134645000Y-114508665D01*
X134645000Y-114791335D01*
X134700147Y-115068574D01*
X134808320Y-115329727D01*
X134965363Y-115564759D01*
X135165241Y-115764637D01*
X135397759Y-115920000D01*
X135165241Y-116075363D01*
X134965363Y-116275241D01*
X134808320Y-116510273D01*
X134700147Y-116771426D01*
X134645000Y-117048665D01*
X134645000Y-117331335D01*
X134700147Y-117608574D01*
X134808320Y-117869727D01*
X134965363Y-118104759D01*
X135165241Y-118304637D01*
X135400273Y-118461680D01*
X135661426Y-118569853D01*
X135938665Y-118625000D01*
X136221335Y-118625000D01*
X136498574Y-118569853D01*
X136759727Y-118461680D01*
X136994759Y-118304637D01*
X137194637Y-118104759D01*
X137350000Y-117872241D01*
X137505363Y-118104759D01*
X137705241Y-118304637D01*
X137937759Y-118460000D01*
X137705241Y-118615363D01*
X137505363Y-118815241D01*
X137348320Y-119050273D01*
X137240147Y-119311426D01*
X137185000Y-119588665D01*
X137185000Y-119871335D01*
X137240147Y-120148574D01*
X137348320Y-120409727D01*
X137505363Y-120644759D01*
X137705241Y-120844637D01*
X137937759Y-121000000D01*
X137705241Y-121155363D01*
X137505363Y-121355241D01*
X137348320Y-121590273D01*
X137240147Y-121851426D01*
X137185000Y-122128665D01*
X137185000Y-122411335D01*
X137240147Y-122688574D01*
X137348320Y-122949727D01*
X137505363Y-123184759D01*
X137705241Y-123384637D01*
X137937759Y-123540000D01*
X137705241Y-123695363D01*
X137505363Y-123895241D01*
X137348320Y-124130273D01*
X137240147Y-124391426D01*
X137185000Y-124668665D01*
X137185000Y-124951335D01*
X137240147Y-125228574D01*
X137348320Y-125489727D01*
X137505363Y-125724759D01*
X137705241Y-125924637D01*
X137937759Y-126080000D01*
X137705241Y-126235363D01*
X137505363Y-126435241D01*
X137348320Y-126670273D01*
X137240147Y-126931426D01*
X137185000Y-127208665D01*
X137185000Y-127491335D01*
X137240147Y-127768574D01*
X137348320Y-128029727D01*
X137505363Y-128264759D01*
X137705241Y-128464637D01*
X137937759Y-128620000D01*
X137705241Y-128775363D01*
X137505363Y-128975241D01*
X137348320Y-129210273D01*
X137240147Y-129471426D01*
X137185000Y-129748665D01*
X137185000Y-130031335D01*
X137240147Y-130308574D01*
X137348320Y-130569727D01*
X137505363Y-130804759D01*
X137705241Y-131004637D01*
X137937759Y-131160000D01*
X137705241Y-131315363D01*
X137505363Y-131515241D01*
X137348320Y-131750273D01*
X137240147Y-132011426D01*
X137185000Y-132288665D01*
X137185000Y-132571335D01*
X137240147Y-132848574D01*
X137348320Y-133109727D01*
X137505363Y-133344759D01*
X137705241Y-133544637D01*
X137937759Y-133700000D01*
X137705241Y-133855363D01*
X137505363Y-134055241D01*
X137348320Y-134290273D01*
X137240147Y-134551426D01*
X137185000Y-134828665D01*
X137185000Y-135111335D01*
X137240147Y-135388574D01*
X137348320Y-135649727D01*
X137505363Y-135884759D01*
X137705241Y-136084637D01*
X137937759Y-136240000D01*
X137705241Y-136395363D01*
X137505363Y-136595241D01*
X137350000Y-136827759D01*
X137194637Y-136595241D01*
X136994759Y-136395363D01*
X136759727Y-136238320D01*
X136498574Y-136130147D01*
X136221335Y-136075000D01*
X135938665Y-136075000D01*
X135661426Y-136130147D01*
X135400273Y-136238320D01*
X135165241Y-136395363D01*
X134965363Y-136595241D01*
X134810000Y-136827759D01*
X134654637Y-136595241D01*
X134454759Y-136395363D01*
X134219727Y-136238320D01*
X133958574Y-136130147D01*
X133681335Y-136075000D01*
X133398665Y-136075000D01*
X133121426Y-136130147D01*
X132860273Y-136238320D01*
X132625241Y-136395363D01*
X132425363Y-136595241D01*
X132269085Y-136829128D01*
X132236671Y-136768486D01*
X131992702Y-136696903D01*
X131179605Y-137510000D01*
X130820395Y-137510000D01*
X130007298Y-136696903D01*
X129763329Y-136768486D01*
X129732806Y-136832992D01*
X129731680Y-136830273D01*
X129574637Y-136595241D01*
X129496694Y-136517298D01*
X130186903Y-136517298D01*
X131000000Y-137330395D01*
X131813097Y-136517298D01*
X131741514Y-136273329D01*
X131486004Y-136152429D01*
X131211816Y-136083700D01*
X130929488Y-136069783D01*
X130649870Y-136111213D01*
X130383708Y-136206397D01*
X130258486Y-136273329D01*
X130186903Y-136517298D01*
X129496694Y-136517298D01*
X129374759Y-136395363D01*
X129139727Y-136238320D01*
X128878574Y-136130147D01*
X128601335Y-136075000D01*
X128318665Y-136075000D01*
X128041426Y-136130147D01*
X127780273Y-136238320D01*
X127545241Y-136395363D01*
X127345363Y-136595241D01*
X127190000Y-136827759D01*
X127034637Y-136595241D01*
X126834759Y-136395363D01*
X126599727Y-136238320D01*
X126338574Y-136130147D01*
X126061335Y-136075000D01*
X125778665Y-136075000D01*
X125501426Y-136130147D01*
X125240273Y-136238320D01*
X125005241Y-136395363D01*
X124805363Y-136595241D01*
X124650000Y-136827759D01*
X124494637Y-136595241D01*
X124294759Y-136395363D01*
X124062241Y-136240000D01*
X124294759Y-136084637D01*
X124494637Y-135884759D01*
X124651680Y-135649727D01*
X124759853Y-135388574D01*
X124815000Y-135111335D01*
X124815000Y-134828665D01*
X124759853Y-134551426D01*
X124651680Y-134290273D01*
X124494637Y-134055241D01*
X124294759Y-133855363D01*
X124062241Y-133700000D01*
X124294759Y-133544637D01*
X124494637Y-133344759D01*
X124651680Y-133109727D01*
X124759853Y-132848574D01*
X124815000Y-132571335D01*
X124815000Y-132288665D01*
X124759853Y-132011426D01*
X124651680Y-131750273D01*
X124494637Y-131515241D01*
X124294759Y-131315363D01*
X124062241Y-131160000D01*
X124294759Y-131004637D01*
X124494637Y-130804759D01*
X124651680Y-130569727D01*
X124759853Y-130308574D01*
X124815000Y-130031335D01*
X124815000Y-129748665D01*
X124759853Y-129471426D01*
X124651680Y-129210273D01*
X124494637Y-128975241D01*
X124294759Y-128775363D01*
X124062241Y-128620000D01*
X124294759Y-128464637D01*
X124494637Y-128264759D01*
X124651680Y-128029727D01*
X124759853Y-127768574D01*
X124815000Y-127491335D01*
X124815000Y-127208665D01*
X124759853Y-126931426D01*
X124651680Y-126670273D01*
X124494637Y-126435241D01*
X124294759Y-126235363D01*
X124062241Y-126080000D01*
X124294759Y-125924637D01*
X124494637Y-125724759D01*
X124651680Y-125489727D01*
X124759853Y-125228574D01*
X124815000Y-124951335D01*
X124815000Y-124668665D01*
X124759853Y-124391426D01*
X124651680Y-124130273D01*
X124494637Y-123895241D01*
X124294759Y-123695363D01*
X124062241Y-123540000D01*
X124294759Y-123384637D01*
X124494637Y-123184759D01*
X124651680Y-122949727D01*
X124759853Y-122688574D01*
X124815000Y-122411335D01*
X124815000Y-122128665D01*
X124759853Y-121851426D01*
X124651680Y-121590273D01*
X124494637Y-121355241D01*
X124294759Y-121155363D01*
X124062241Y-121000000D01*
X124294759Y-120844637D01*
X124494637Y-120644759D01*
X124651680Y-120409727D01*
X124759853Y-120148574D01*
X124815000Y-119871335D01*
X124815000Y-119588665D01*
X124759853Y-119311426D01*
X124651680Y-119050273D01*
X124494637Y-118815241D01*
X124294759Y-118615363D01*
X124062241Y-118460000D01*
X124294759Y-118304637D01*
X124494637Y-118104759D01*
X124651680Y-117869727D01*
X124759853Y-117608574D01*
X124815000Y-117331335D01*
X124815000Y-117048665D01*
X124759853Y-116771426D01*
X124651680Y-116510273D01*
X124494637Y-116275241D01*
X124294759Y-116075363D01*
X124062241Y-115920000D01*
X124294759Y-115764637D01*
X124494637Y-115564759D01*
X124651680Y-115329727D01*
X124759853Y-115068574D01*
X124815000Y-114791335D01*
X124815000Y-114508665D01*
X124812062Y-114493891D01*
X129415000Y-114493891D01*
X129415000Y-114806109D01*
X129475911Y-115112327D01*
X129595391Y-115400779D01*
X129768850Y-115660379D01*
X129989621Y-115881150D01*
X130249221Y-116054609D01*
X130537673Y-116174089D01*
X130843891Y-116235000D01*
X131156109Y-116235000D01*
X131462327Y-116174089D01*
X131750779Y-116054609D01*
X132010379Y-115881150D01*
X132231150Y-115660379D01*
X132404609Y-115400779D01*
X132524089Y-115112327D01*
X132585000Y-114806109D01*
X132585000Y-114493891D01*
X132524089Y-114187673D01*
X132404609Y-113899221D01*
X132231150Y-113639621D01*
X132010379Y-113418850D01*
X131750779Y-113245391D01*
X131462327Y-113125911D01*
X131156109Y-113065000D01*
X130843891Y-113065000D01*
X130537673Y-113125911D01*
X130249221Y-113245391D01*
X129989621Y-113418850D01*
X129768850Y-113639621D01*
X129595391Y-113899221D01*
X129475911Y-114187673D01*
X129415000Y-114493891D01*
X124812062Y-114493891D01*
X124759853Y-114231426D01*
X124651680Y-113970273D01*
X124494637Y-113735241D01*
X124294759Y-113535363D01*
X124062241Y-113380000D01*
X124294759Y-113224637D01*
X124494637Y-113024759D01*
X124651680Y-112789727D01*
X124759853Y-112528574D01*
X124815000Y-112251335D01*
X124815000Y-111968665D01*
X124759853Y-111691426D01*
X124651680Y-111430273D01*
X124494637Y-111195241D01*
X124294759Y-110995363D01*
X124062241Y-110840000D01*
X124294759Y-110684637D01*
X124295505Y-110683891D01*
X129415000Y-110683891D01*
X129415000Y-110996109D01*
X129475911Y-111302327D01*
X129595391Y-111590779D01*
X129768850Y-111850379D01*
X129989621Y-112071150D01*
X130249221Y-112244609D01*
X130537673Y-112364089D01*
X130843891Y-112425000D01*
X131156109Y-112425000D01*
X131462327Y-112364089D01*
X131750779Y-112244609D01*
X132010379Y-112071150D01*
X132231150Y-111850379D01*
X132404609Y-111590779D01*
X132524089Y-111302327D01*
X132585000Y-110996109D01*
X132585000Y-110683891D01*
X132524089Y-110377673D01*
X132404609Y-110089221D01*
X132231150Y-109829621D01*
X132010379Y-109608850D01*
X131750779Y-109435391D01*
X131462327Y-109315911D01*
X131156109Y-109255000D01*
X130843891Y-109255000D01*
X130537673Y-109315911D01*
X130249221Y-109435391D01*
X129989621Y-109608850D01*
X129768850Y-109829621D01*
X129595391Y-110089221D01*
X129475911Y-110377673D01*
X129415000Y-110683891D01*
X124295505Y-110683891D01*
X124494637Y-110484759D01*
X124651680Y-110249727D01*
X124759853Y-109988574D01*
X124815000Y-109711335D01*
X124815000Y-109428665D01*
X124759853Y-109151426D01*
X124651680Y-108890273D01*
X124494637Y-108655241D01*
X124294759Y-108455363D01*
X124062241Y-108300000D01*
X124294759Y-108144637D01*
X124494637Y-107944759D01*
X124651680Y-107709727D01*
X124759853Y-107448574D01*
X124815000Y-107171335D01*
X124815000Y-106888665D01*
X134645000Y-106888665D01*
X134645000Y-107171335D01*
X134700147Y-107448574D01*
X134808320Y-107709727D01*
X134965363Y-107944759D01*
X135165241Y-108144637D01*
X135400273Y-108301680D01*
X135661426Y-108409853D01*
X135938665Y-108465000D01*
X136221335Y-108465000D01*
X136498574Y-108409853D01*
X136759727Y-108301680D01*
X136994759Y-108144637D01*
X137194637Y-107944759D01*
X137350915Y-107710872D01*
X137383329Y-107771514D01*
X137627298Y-107843097D01*
X138440395Y-107030000D01*
X138799605Y-107030000D01*
X139612702Y-107843097D01*
X139856671Y-107771514D01*
X139977571Y-107516004D01*
X140046300Y-107241816D01*
X140060217Y-106959488D01*
X140018787Y-106679870D01*
X139923603Y-106413708D01*
X139856671Y-106288486D01*
X139612702Y-106216903D01*
X138799605Y-107030000D01*
X138440395Y-107030000D01*
X137627298Y-106216903D01*
X137383329Y-106288486D01*
X137352806Y-106352992D01*
X137351680Y-106350273D01*
X137194637Y-106115241D01*
X136994759Y-105915363D01*
X136759727Y-105758320D01*
X136498574Y-105650147D01*
X136221335Y-105595000D01*
X135938665Y-105595000D01*
X135661426Y-105650147D01*
X135400273Y-105758320D01*
X135165241Y-105915363D01*
X134965363Y-106115241D01*
X134808320Y-106350273D01*
X134700147Y-106611426D01*
X134645000Y-106888665D01*
X124815000Y-106888665D01*
X124759853Y-106611426D01*
X124651680Y-106350273D01*
X124494637Y-106115241D01*
X124296039Y-105916643D01*
X124304482Y-105915812D01*
X124424180Y-105879502D01*
X124534494Y-105820537D01*
X124631185Y-105741185D01*
X124710537Y-105644494D01*
X124769502Y-105534180D01*
X124805812Y-105414482D01*
X124818072Y-105290000D01*
X124815000Y-104775750D01*
X124656250Y-104617000D01*
X123507000Y-104617000D01*
X123507000Y-104637000D01*
X123253000Y-104637000D01*
X123253000Y-104617000D01*
X122103750Y-104617000D01*
X121945000Y-104775750D01*
X121941928Y-105290000D01*
X119660000Y-105290000D01*
X119660000Y-103690000D01*
X121941928Y-103690000D01*
X121945000Y-104204250D01*
X122103750Y-104363000D01*
X123253000Y-104363000D01*
X123253000Y-103213750D01*
X123507000Y-103213750D01*
X123507000Y-104363000D01*
X124656250Y-104363000D01*
X124670585Y-104348665D01*
X137185000Y-104348665D01*
X137185000Y-104631335D01*
X137240147Y-104908574D01*
X137348320Y-105169727D01*
X137505363Y-105404759D01*
X137705241Y-105604637D01*
X137939128Y-105760915D01*
X137878486Y-105793329D01*
X137806903Y-106037298D01*
X138620000Y-106850395D01*
X139433097Y-106037298D01*
X139361514Y-105793329D01*
X139297008Y-105762806D01*
X139299727Y-105761680D01*
X139534759Y-105604637D01*
X139734637Y-105404759D01*
X139891680Y-105169727D01*
X139999853Y-104908574D01*
X140055000Y-104631335D01*
X140055000Y-104348665D01*
X139999853Y-104071426D01*
X139891680Y-103810273D01*
X139734637Y-103575241D01*
X139534759Y-103375363D01*
X139299727Y-103218320D01*
X139038574Y-103110147D01*
X138761335Y-103055000D01*
X138478665Y-103055000D01*
X138201426Y-103110147D01*
X137940273Y-103218320D01*
X137705241Y-103375363D01*
X137505363Y-103575241D01*
X137348320Y-103810273D01*
X137240147Y-104071426D01*
X137185000Y-104348665D01*
X124670585Y-104348665D01*
X124815000Y-104204250D01*
X124818072Y-103690000D01*
X124805812Y-103565518D01*
X124769502Y-103445820D01*
X124710537Y-103335506D01*
X124631185Y-103238815D01*
X124534494Y-103159463D01*
X124424180Y-103100498D01*
X124304482Y-103064188D01*
X124180000Y-103051928D01*
X123665750Y-103055000D01*
X123507000Y-103213750D01*
X123253000Y-103213750D01*
X123094250Y-103055000D01*
X122580000Y-103051928D01*
X122455518Y-103064188D01*
X122335820Y-103100498D01*
X122225506Y-103159463D01*
X122128815Y-103238815D01*
X122049463Y-103335506D01*
X121990498Y-103445820D01*
X121954188Y-103565518D01*
X121941928Y-103690000D01*
X119660000Y-103690000D01*
X119660000Y-70108376D01*
X120124000Y-70108376D01*
X120124000Y-70431624D01*
X120187063Y-70748662D01*
X120310765Y-71047305D01*
X120490352Y-71316076D01*
X120718924Y-71544648D01*
X120987695Y-71724235D01*
X121286338Y-71847937D01*
X121603376Y-71911000D01*
X121926624Y-71911000D01*
X122243662Y-71847937D01*
X122542305Y-71724235D01*
X122811076Y-71544648D01*
X123039648Y-71316076D01*
X123219235Y-71047305D01*
X123342937Y-70748662D01*
X123406000Y-70431624D01*
X123406000Y-70108376D01*
X123342937Y-69791338D01*
X123219235Y-69492695D01*
X123039648Y-69223924D01*
X122811076Y-68995352D01*
X122542305Y-68815765D01*
X122243662Y-68692063D01*
X121926624Y-68629000D01*
X121603376Y-68629000D01*
X121286338Y-68692063D01*
X120987695Y-68815765D01*
X120718924Y-68995352D01*
X120490352Y-69223924D01*
X120310765Y-69492695D01*
X120187063Y-69791338D01*
X120124000Y-70108376D01*
X119660000Y-70108376D01*
X119660000Y-65900000D01*
X120076928Y-65900000D01*
X120076928Y-66100000D01*
X120089188Y-66224482D01*
X120125498Y-66344180D01*
X120184463Y-66454494D01*
X120263815Y-66551185D01*
X120360506Y-66630537D01*
X120470820Y-66689502D01*
X120590518Y-66725812D01*
X120715000Y-66738072D01*
X121715000Y-66738072D01*
X121839482Y-66725812D01*
X121959180Y-66689502D01*
X122069494Y-66630537D01*
X122166185Y-66551185D01*
X122245537Y-66454494D01*
X122304502Y-66344180D01*
X122340812Y-66224482D01*
X122353072Y-66100000D01*
X122353072Y-65900000D01*
X123176928Y-65900000D01*
X123176928Y-66100000D01*
X123189188Y-66224482D01*
X123225498Y-66344180D01*
X123284463Y-66454494D01*
X123363815Y-66551185D01*
X123460506Y-66630537D01*
X123570820Y-66689502D01*
X123690518Y-66725812D01*
X123815000Y-66738072D01*
X124815000Y-66738072D01*
X124939482Y-66725812D01*
X125059180Y-66689502D01*
X125169494Y-66630537D01*
X125266185Y-66551185D01*
X125345537Y-66454494D01*
X125404502Y-66344180D01*
X125440812Y-66224482D01*
X125453072Y-66100000D01*
X125453072Y-65900000D01*
X125440812Y-65775518D01*
X125404502Y-65655820D01*
X125345537Y-65545506D01*
X125266185Y-65448815D01*
X125169494Y-65369463D01*
X125059180Y-65310498D01*
X124939482Y-65274188D01*
X124815000Y-65261928D01*
X123815000Y-65261928D01*
X123690518Y-65274188D01*
X123570820Y-65310498D01*
X123460506Y-65369463D01*
X123363815Y-65448815D01*
X123284463Y-65545506D01*
X123225498Y-65655820D01*
X123189188Y-65775518D01*
X123176928Y-65900000D01*
X122353072Y-65900000D01*
X122340812Y-65775518D01*
X122304502Y-65655820D01*
X122245537Y-65545506D01*
X122166185Y-65448815D01*
X122069494Y-65369463D01*
X121959180Y-65310498D01*
X121839482Y-65274188D01*
X121715000Y-65261928D01*
X120715000Y-65261928D01*
X120590518Y-65274188D01*
X120470820Y-65310498D01*
X120360506Y-65369463D01*
X120263815Y-65448815D01*
X120184463Y-65545506D01*
X120125498Y-65655820D01*
X120089188Y-65775518D01*
X120076928Y-65900000D01*
X119660000Y-65900000D01*
X119660000Y-61568376D01*
X120124000Y-61568376D01*
X120124000Y-61891624D01*
X120187063Y-62208662D01*
X120310765Y-62507305D01*
X120490352Y-62776076D01*
X120718924Y-63004648D01*
X120987695Y-63184235D01*
X121286338Y-63307937D01*
X121603376Y-63371000D01*
X121926624Y-63371000D01*
X122243662Y-63307937D01*
X122542305Y-63184235D01*
X122811076Y-63004648D01*
X123039648Y-62776076D01*
X123219235Y-62507305D01*
X123342937Y-62208662D01*
X123406000Y-61891624D01*
X123406000Y-61568376D01*
X124854000Y-61568376D01*
X124854000Y-61891624D01*
X124917063Y-62208662D01*
X125040765Y-62507305D01*
X125220352Y-62776076D01*
X125448924Y-63004648D01*
X125717695Y-63184235D01*
X126016338Y-63307937D01*
X126026077Y-63309874D01*
X126021892Y-63319978D01*
X125985000Y-63505448D01*
X125985000Y-63694552D01*
X126021892Y-63880022D01*
X126071589Y-64000000D01*
X126021892Y-64119978D01*
X125985000Y-64305448D01*
X125985000Y-64494552D01*
X126021892Y-64680022D01*
X126071589Y-64800000D01*
X126021892Y-64919978D01*
X125985000Y-65105448D01*
X125985000Y-65294552D01*
X126021892Y-65480022D01*
X126094259Y-65654731D01*
X126199319Y-65811964D01*
X126333036Y-65945681D01*
X126414330Y-66000000D01*
X126333036Y-66054319D01*
X126199319Y-66188036D01*
X126094259Y-66345269D01*
X126021892Y-66519978D01*
X125985000Y-66705448D01*
X125985000Y-66894552D01*
X126021892Y-67080022D01*
X126071589Y-67200000D01*
X126021892Y-67319978D01*
X125985000Y-67505448D01*
X125985000Y-67694552D01*
X126021892Y-67880022D01*
X126071589Y-68000000D01*
X126021892Y-68119978D01*
X125985000Y-68305448D01*
X125985000Y-68494552D01*
X126021892Y-68680022D01*
X126026077Y-68690126D01*
X126016338Y-68692063D01*
X125717695Y-68815765D01*
X125448924Y-68995352D01*
X125220352Y-69223924D01*
X125040765Y-69492695D01*
X124917063Y-69791338D01*
X124854000Y-70108376D01*
X124854000Y-70431624D01*
X124917063Y-70748662D01*
X125040765Y-71047305D01*
X125220352Y-71316076D01*
X125448924Y-71544648D01*
X125717695Y-71724235D01*
X126016338Y-71847937D01*
X126333376Y-71911000D01*
X126656624Y-71911000D01*
X126973662Y-71847937D01*
X127272305Y-71724235D01*
X127541076Y-71544648D01*
X127769648Y-71316076D01*
X127949235Y-71047305D01*
X128072937Y-70748662D01*
X128136000Y-70431624D01*
X128136000Y-70108376D01*
X128072937Y-69791338D01*
X128027191Y-69680897D01*
X128095126Y-69653187D01*
X128104323Y-69648270D01*
X128114026Y-69508710D01*
X128181363Y-69527871D01*
X128194313Y-69528921D01*
X128236869Y-69571477D01*
X128273044Y-69535302D01*
X128306039Y-69537977D01*
X128609250Y-69535000D01*
X128768000Y-69376250D01*
X128768000Y-69038072D01*
X129022000Y-69038072D01*
X129022000Y-69376250D01*
X129180750Y-69535000D01*
X129483961Y-69537977D01*
X129608637Y-69527871D01*
X129728945Y-69493638D01*
X129840263Y-69436591D01*
X129938312Y-69358923D01*
X130019325Y-69263619D01*
X130080189Y-69154341D01*
X130118564Y-69035289D01*
X130130000Y-68931750D01*
X129992725Y-68794475D01*
X130025537Y-68754494D01*
X130084502Y-68644180D01*
X130097753Y-68600497D01*
X130130000Y-68568250D01*
X130122864Y-68503644D01*
X130133072Y-68400000D01*
X130133072Y-68100000D01*
X130123223Y-68000000D01*
X130133072Y-67900000D01*
X130133072Y-67600000D01*
X130123223Y-67500000D01*
X130133072Y-67400000D01*
X130133072Y-67276303D01*
X130144314Y-67290001D01*
X130240000Y-67368528D01*
X130240001Y-92612058D01*
X127500130Y-92612058D01*
X127375648Y-92624318D01*
X127255950Y-92660628D01*
X127145636Y-92719593D01*
X127048945Y-92798945D01*
X126969593Y-92895636D01*
X126910628Y-93005950D01*
X126874318Y-93125648D01*
X126862058Y-93250130D01*
X126862058Y-96249870D01*
X126874318Y-96374352D01*
X126910628Y-96494050D01*
X126969593Y-96604364D01*
X127048945Y-96701055D01*
X127145636Y-96780407D01*
X127255950Y-96839372D01*
X127375648Y-96875682D01*
X127500130Y-96887942D01*
X130499870Y-96887942D01*
X130624352Y-96875682D01*
X130744050Y-96839372D01*
X130854364Y-96780407D01*
X130951055Y-96701055D01*
X131030407Y-96604364D01*
X131089372Y-96494050D01*
X131125682Y-96374352D01*
X131137942Y-96249870D01*
X131137942Y-96090253D01*
X131151738Y-96110900D01*
X131449100Y-96408262D01*
X131798760Y-96641897D01*
X132187281Y-96802828D01*
X132599734Y-96884870D01*
X133020266Y-96884870D01*
X133432719Y-96802828D01*
X133821240Y-96641897D01*
X134170900Y-96408262D01*
X134468262Y-96110900D01*
X134701897Y-95761240D01*
X134862828Y-95372719D01*
X134944870Y-94960266D01*
X134944870Y-94539734D01*
X134862828Y-94127281D01*
X134701897Y-93738760D01*
X134468262Y-93389100D01*
X134170900Y-93091738D01*
X133821240Y-92858103D01*
X133432719Y-92697172D01*
X133020266Y-92615130D01*
X132599734Y-92615130D01*
X132260000Y-92682707D01*
X132260000Y-78674947D01*
X145715000Y-78674947D01*
X145715000Y-79125053D01*
X145802811Y-79566510D01*
X145975059Y-79982353D01*
X146225125Y-80356603D01*
X146543397Y-80674875D01*
X146917647Y-80924941D01*
X147333490Y-81097189D01*
X147774947Y-81185000D01*
X148225053Y-81185000D01*
X148666510Y-81097189D01*
X149082353Y-80924941D01*
X149456603Y-80674875D01*
X149774875Y-80356603D01*
X150024941Y-79982353D01*
X150197189Y-79566510D01*
X150285000Y-79125053D01*
X150285000Y-78674947D01*
X170715000Y-78674947D01*
X170715000Y-79125053D01*
X170802811Y-79566510D01*
X170975059Y-79982353D01*
X171225125Y-80356603D01*
X171543397Y-80674875D01*
X171917647Y-80924941D01*
X172333490Y-81097189D01*
X172774947Y-81185000D01*
X173225053Y-81185000D01*
X173666510Y-81097189D01*
X174082353Y-80924941D01*
X174456603Y-80674875D01*
X174774875Y-80356603D01*
X175024941Y-79982353D01*
X175197189Y-79566510D01*
X175285000Y-79125053D01*
X175285000Y-78674947D01*
X195715000Y-78674947D01*
X195715000Y-79125053D01*
X195802811Y-79566510D01*
X195975059Y-79982353D01*
X196225125Y-80356603D01*
X196543397Y-80674875D01*
X196917647Y-80924941D01*
X197333490Y-81097189D01*
X197774947Y-81185000D01*
X198225053Y-81185000D01*
X198666510Y-81097189D01*
X199082353Y-80924941D01*
X199456603Y-80674875D01*
X199774875Y-80356603D01*
X200024941Y-79982353D01*
X200197189Y-79566510D01*
X200285000Y-79125053D01*
X200285000Y-78674947D01*
X200197189Y-78233490D01*
X200024941Y-77817647D01*
X199774875Y-77443397D01*
X199456603Y-77125125D01*
X199082353Y-76875059D01*
X198666510Y-76702811D01*
X198225053Y-76615000D01*
X197774947Y-76615000D01*
X197333490Y-76702811D01*
X196917647Y-76875059D01*
X196543397Y-77125125D01*
X196225125Y-77443397D01*
X195975059Y-77817647D01*
X195802811Y-78233490D01*
X195715000Y-78674947D01*
X175285000Y-78674947D01*
X175197189Y-78233490D01*
X175024941Y-77817647D01*
X174774875Y-77443397D01*
X174456603Y-77125125D01*
X174082353Y-76875059D01*
X173666510Y-76702811D01*
X173225053Y-76615000D01*
X172774947Y-76615000D01*
X172333490Y-76702811D01*
X171917647Y-76875059D01*
X171543397Y-77125125D01*
X171225125Y-77443397D01*
X170975059Y-77817647D01*
X170802811Y-78233490D01*
X170715000Y-78674947D01*
X150285000Y-78674947D01*
X150197189Y-78233490D01*
X150024941Y-77817647D01*
X149774875Y-77443397D01*
X149456603Y-77125125D01*
X149082353Y-76875059D01*
X148666510Y-76702811D01*
X148225053Y-76615000D01*
X147774947Y-76615000D01*
X147333490Y-76702811D01*
X146917647Y-76875059D01*
X146543397Y-77125125D01*
X146225125Y-77443397D01*
X145975059Y-77817647D01*
X145802811Y-78233490D01*
X145715000Y-78674947D01*
X132260000Y-78674947D01*
X132260000Y-68167311D01*
X132448102Y-68245226D01*
X132648061Y-68285000D01*
X132851939Y-68285000D01*
X133051898Y-68245226D01*
X133240256Y-68167205D01*
X133409774Y-68053937D01*
X133553937Y-67909774D01*
X133667205Y-67740256D01*
X133745226Y-67551898D01*
X133785000Y-67351939D01*
X133785000Y-67148061D01*
X133760000Y-67022377D01*
X133760000Y-66733923D01*
X133764886Y-66684315D01*
X133745385Y-66486320D01*
X133687632Y-66295935D01*
X133677453Y-66276892D01*
X133593847Y-66120475D01*
X133467633Y-65966682D01*
X133429099Y-65935058D01*
X132564946Y-65070905D01*
X132533318Y-65032367D01*
X132379525Y-64906153D01*
X132204065Y-64812368D01*
X132013679Y-64754615D01*
X131865293Y-64740000D01*
X131815685Y-64735114D01*
X131766077Y-64740000D01*
X131477623Y-64740000D01*
X131351939Y-64715000D01*
X131148061Y-64715000D01*
X130948102Y-64754774D01*
X130759744Y-64832795D01*
X130590226Y-64946063D01*
X130546289Y-64990000D01*
X130124208Y-64990000D01*
X130133072Y-64900000D01*
X130133072Y-64600000D01*
X130123223Y-64500000D01*
X130133072Y-64400000D01*
X130133072Y-64100000D01*
X130123223Y-64000000D01*
X130133072Y-63900000D01*
X130133072Y-63600000D01*
X130122864Y-63496356D01*
X130130000Y-63431750D01*
X130097753Y-63399503D01*
X130084502Y-63355820D01*
X130025537Y-63245506D01*
X129992725Y-63205525D01*
X130130000Y-63068250D01*
X130118564Y-62964711D01*
X130080189Y-62845659D01*
X130019325Y-62736381D01*
X129938312Y-62641077D01*
X129840263Y-62563409D01*
X129728945Y-62506362D01*
X129608637Y-62472129D01*
X129483961Y-62462023D01*
X129180750Y-62465000D01*
X129022000Y-62623750D01*
X129022000Y-62961928D01*
X128768000Y-62961928D01*
X128768000Y-62623750D01*
X128609250Y-62465000D01*
X128306039Y-62462023D01*
X128273044Y-62464698D01*
X128236869Y-62428523D01*
X128194313Y-62471079D01*
X128181363Y-62472129D01*
X128114026Y-62491290D01*
X128104323Y-62351730D01*
X128027125Y-62319263D01*
X128072937Y-62208662D01*
X128136000Y-61891624D01*
X128136000Y-61569883D01*
X128196063Y-61659774D01*
X128340226Y-61803937D01*
X128509744Y-61917205D01*
X128698102Y-61995226D01*
X128898061Y-62035000D01*
X129101939Y-62035000D01*
X129301898Y-61995226D01*
X129490256Y-61917205D01*
X129659774Y-61803937D01*
X129803937Y-61659774D01*
X129875132Y-61553223D01*
X135168356Y-56260000D01*
X144502723Y-56260000D01*
X144641406Y-56467554D01*
X144907446Y-56733594D01*
X145220276Y-56942620D01*
X145567873Y-57086600D01*
X145936881Y-57160000D01*
X146313119Y-57160000D01*
X146682127Y-57086600D01*
X147029724Y-56942620D01*
X147342554Y-56733594D01*
X147608594Y-56467554D01*
X147747277Y-56260000D01*
X169502723Y-56260000D01*
X169641406Y-56467554D01*
X169907446Y-56733594D01*
X170220276Y-56942620D01*
X170567873Y-57086600D01*
X170936881Y-57160000D01*
X171313119Y-57160000D01*
X171682127Y-57086600D01*
X172029724Y-56942620D01*
X172342554Y-56733594D01*
X172608594Y-56467554D01*
X172747277Y-56260000D01*
X194502723Y-56260000D01*
X194641406Y-56467554D01*
X194907446Y-56733594D01*
X195220276Y-56942620D01*
X195567873Y-57086600D01*
X195936881Y-57160000D01*
X196313119Y-57160000D01*
X196682127Y-57086600D01*
X197029724Y-56942620D01*
X197342554Y-56733594D01*
X197608594Y-56467554D01*
X197817620Y-56154724D01*
X197961600Y-55807127D01*
X198035000Y-55438119D01*
X198035000Y-55061881D01*
X197961600Y-54692873D01*
X197817620Y-54345276D01*
X197608594Y-54032446D01*
X197342554Y-53766406D01*
X197029724Y-53557380D01*
X196682127Y-53413400D01*
X196313119Y-53340000D01*
X195936881Y-53340000D01*
X195567873Y-53413400D01*
X195220276Y-53557380D01*
X194907446Y-53766406D01*
X194641406Y-54032446D01*
X194502723Y-54240000D01*
X172747277Y-54240000D01*
X172608594Y-54032446D01*
X172342554Y-53766406D01*
X172029724Y-53557380D01*
X171682127Y-53413400D01*
X171313119Y-53340000D01*
X170936881Y-53340000D01*
X170567873Y-53413400D01*
X170220276Y-53557380D01*
X169907446Y-53766406D01*
X169641406Y-54032446D01*
X169502723Y-54240000D01*
X147747277Y-54240000D01*
X147608594Y-54032446D01*
X147342554Y-53766406D01*
X147029724Y-53557380D01*
X146682127Y-53413400D01*
X146313119Y-53340000D01*
X145936881Y-53340000D01*
X145567873Y-53413400D01*
X145220276Y-53557380D01*
X144907446Y-53766406D01*
X144641406Y-54032446D01*
X144502723Y-54240000D01*
X134799608Y-54240000D01*
X134750000Y-54235114D01*
X134552005Y-54254615D01*
X134361620Y-54312368D01*
X134186160Y-54406153D01*
X134032367Y-54532367D01*
X134000744Y-54570900D01*
X128446777Y-60124868D01*
X128340226Y-60196063D01*
X128196063Y-60340226D01*
X128082795Y-60509744D01*
X128004774Y-60698102D01*
X127965000Y-60898061D01*
X127965000Y-60990755D01*
X127949235Y-60952695D01*
X127769648Y-60683924D01*
X127541076Y-60455352D01*
X127272305Y-60275765D01*
X126973662Y-60152063D01*
X126656624Y-60089000D01*
X126333376Y-60089000D01*
X126016338Y-60152063D01*
X125717695Y-60275765D01*
X125448924Y-60455352D01*
X125220352Y-60683924D01*
X125040765Y-60952695D01*
X124917063Y-61251338D01*
X124854000Y-61568376D01*
X123406000Y-61568376D01*
X123342937Y-61251338D01*
X123219235Y-60952695D01*
X123039648Y-60683924D01*
X122811076Y-60455352D01*
X122542305Y-60275765D01*
X122243662Y-60152063D01*
X121926624Y-60089000D01*
X121603376Y-60089000D01*
X121286338Y-60152063D01*
X120987695Y-60275765D01*
X120718924Y-60455352D01*
X120490352Y-60683924D01*
X120310765Y-60952695D01*
X120187063Y-61251338D01*
X120124000Y-61568376D01*
X119660000Y-61568376D01*
X119660000Y-52127000D01*
X121765000Y-52127000D01*
X121765000Y-52220128D01*
X121850890Y-52651925D01*
X122019369Y-53058669D01*
X122263962Y-53424729D01*
X122575271Y-53736038D01*
X122941331Y-53980631D01*
X123348075Y-54149110D01*
X123779872Y-54235000D01*
X124220128Y-54235000D01*
X124651925Y-54149110D01*
X125058669Y-53980631D01*
X125424729Y-53736038D01*
X125736038Y-53424729D01*
X125980631Y-53058669D01*
X126149110Y-52651925D01*
X126235000Y-52220128D01*
X126235000Y-51779872D01*
X126149110Y-51348075D01*
X125980631Y-50941331D01*
X125736038Y-50575271D01*
X125424729Y-50263962D01*
X125058669Y-50019369D01*
X124651925Y-49850890D01*
X124220128Y-49765000D01*
X124127000Y-49765000D01*
X124127000Y-47660000D01*
X206873000Y-47660000D01*
X206873000Y-49765000D01*
M02*
